v -8.471801 4.052918 -5.413093
v -8.467349 4.052918 -5.400164
v -8.450710 4.052918 -5.405892
v -8.463481 4.052918 -5.415957
v -8.471869 4.025967 -5.413289
v -8.471869 4.052522 -5.413289
v -8.463549 4.052522 -5.416154
v -8.463549 4.025967 -5.416154
v -8.467261 4.052918 -5.399909
v -8.450624 4.052918 -5.405639
v -8.471869 4.052918 -5.413289
v -8.463549 4.052918 -5.416154
v -8.471869 4.025556 -5.413289
v -8.463549 4.025556 -5.416154
v -8.450710 4.052523 -5.405892
v -8.463481 4.052523 -5.415957
v -8.450624 4.052523 -5.405639
v -8.450710 4.025967 -5.405892
v -8.463481 4.025967 -5.415957
v -8.450624 4.025967 -5.405639
v -8.450710 4.025556 -5.405892
v -8.463481 4.025556 -5.415957
v -8.450624 4.025556 -5.405639
v -8.467349 4.025556 -5.400164
v -8.471801 4.025556 -5.413093
v -8.467261 4.052522 -5.399909
v -8.467261 4.025967 -5.399909
v -8.467261 4.025556 -5.399909
vn 0.000000 1.000000 -0.000200
vn 0.000000 1.000000 -0.000500
vn 0.620900 0.648500 -0.440300
vn 0.513800 0.776300 -0.365000
vn -0.325600 0.000000 -0.945500
vn -0.325500 0.000000 -0.945500
vn 0.438200 0.000000 -0.898900
vn 0.438200 0.000000 -0.898800
vn 0.230400 0.707600 0.668000
vn 0.733600 0.577600 0.358000
vn -0.230100 0.706900 -0.668800
vn 0.357700 0.577300 -0.734000
vn -0.230200 -0.707000 -0.668600
vn 0.357900 -0.577400 -0.733800
vn 0.815900 0.000000 -0.578100
vn 0.815200 0.000000 -0.579100
vn 0.898400 0.000000 0.439200
vn 0.815900 0.000000 -0.578100
vn 0.815300 0.000000 -0.579100
vn 0.898300 0.000000 0.439300
vn 0.621000 -0.648600 -0.440000
vn 0.513800 -0.776400 -0.364900
vn 0.733400 -0.577400 0.358600
vn 0.000000 -1.000000 0.000000
vn 0.000000 -1.000000 0.000000
vn 0.325600 0.000000 0.945500
vn 0.325500 0.000000 0.945500
vn 0.230100 -0.707300 0.668400
vt 0.000000 0.000000
vt 0.000000 0.000000
vt 0.000000 0.000000
vt 0.000000 0.000000
vt 0.000000 0.000000
vt 0.000000 0.000000
vt 0.000000 0.000000
vt 0.000000 0.000000
vt 0.000000 0.000000
vt 0.000000 0.000000
vt 0.000000 0.000000
vt 0.000000 0.000000
vt 0.000000 0.000000
vt 0.000000 0.000000
vt 0.000000 0.000000
vt 0.000000 0.000000
vt 0.000000 0.000000
vt 0.000000 0.000000
vt 0.000000 0.000000
vt 0.000000 0.000000
vt 0.000000 0.000000
vt 0.000000 0.000000
vt 0.000000 0.000000
vt 0.000000 0.000000
vt 0.000000 0.000000
vt 0.000000 0.000000
vt 0.000000 0.000000
vt 0.000000 0.000000
f 1/1/1 2/2/2 3/3/3
f 1/1/1 3/3/3 4/4/4
f 5/5/5 6/6/6 7/7/7
f 5/5/5 7/7/7 8/8/8
f 2/2/2 9/9/9 10/10/10
f 2/2/2 10/10/10 3/3/3
f 6/6/6 11/11/11 12/12/12
f 6/6/6 12/12/12 7/7/7
f 13/13/13 5/5/5 8/8/8
f 13/13/13 8/8/8 14/14/14
f 11/11/11 1/1/1 4/4/4
f 11/11/11 4/4/4 12/12/12
f 4/4/4 3/3/3 15/15/15
f 4/4/4 15/15/15 16/16/16
f 3/3/3 10/10/10 17/17/17
f 3/3/3 17/17/17 15/15/15
f 16/16/16 15/15/15 18/18/18
f 16/16/16 18/18/18 19/19/19
f 15/15/15 17/17/17 20/20/20
f 15/15/15 20/20/20 18/18/18
f 19/19/19 18/18/18 21/21/21
f 19/19/19 21/21/21 22/22/22
f 18/18/18 20/20/20 23/23/23
f 18/18/18 23/23/23 21/21/21
f 24/24/24 25/25/25 22/22/22
f 24/24/24 22/22/22 21/21/21
f 26/26/26 27/27/27 20/20/20
f 26/26/26 20/20/20 17/17/17
f 28/28/28 23/23/23 20/20/20
f 28/28/28 20/20/20 27/27/27
f 13/13/13 14/14/14 22/22/22
f 13/13/13 22/22/22 25/25/25
f 17/17/17 10/10/10 9/9/9
f 17/17/17 9/9/9 26/26/26
f 21/21/21 23/23/23 28/28/28
f 21/21/21 28/28/28 24/24/24
f 12/12/12 4/4/4 16/16/16
f 12/12/12 16/16/16 7/7/7
f 7/7/7 16/16/16 19/19/19
f 7/7/7 19/19/19 8/8/8
f 8/8/8 19/19/19 22/22/22
f 8/8/8 22/22/22 14/14/14
