v -7.696685 0.578194 -6.774428
v -7.758975 0.578194 -6.774428
v -7.758975 -0.339082 -6.774428
v -7.696685 -0.339082 -6.774428
v -7.693582 0.578194 -6.844618
v -7.693582 0.578194 -6.777185
v -7.693582 -0.339082 -6.777185
v -7.693582 -0.339082 -6.844618
v -7.787158 0.582729 -5.726168
v -7.787158 0.630059 -5.726168
v -7.787158 0.630060 -6.926651
v -7.787158 0.582730 -6.926651
v -7.758975 0.578194 -6.847375
v -7.696685 0.578194 -6.847375
v -7.696685 -0.339082 -6.847375
v -7.758975 -0.339082 -6.847375
v -7.669377 0.630059 -5.726168
v -7.669377 0.582729 -5.726168
v -7.669377 0.582730 -6.926651
v -7.669377 0.630060 -6.926651
v -7.784054 0.630060 -6.929409
v -7.672481 0.630060 -6.929409
v -7.672481 0.582730 -6.929409
v -7.784054 0.582730 -6.929409
v -7.784054 0.576626 -5.720824
v -7.672481 0.576626 -5.720824
v -7.672481 0.022327 -4.805706
v -7.784054 0.022327 -4.805706
v -7.784054 0.634595 -5.726168
v -7.672481 0.634595 -5.726168
v -7.672481 0.634596 -6.926651
v -7.784054 0.634596 -6.926651
v -7.696685 0.578194 -5.774319
v -7.758975 0.578194 -5.774319
v -7.758975 -0.339082 -5.774319
v -7.696685 -0.339082 -5.774319
v -7.693582 0.578194 -5.844508
v -7.693582 0.578194 -5.777076
v -7.693582 -0.339082 -5.777076
v -7.693582 -0.339082 -5.844508
v -7.784054 0.025296 -4.803118
v -7.672481 0.025296 -4.803118
v -7.672481 0.072626 -4.803118
v -7.784054 0.072626 -4.803118
v -7.758975 0.578194 -5.847266
v -7.696685 0.578194 -5.847266
v -7.696685 -0.339082 -5.847266
v -7.758975 -0.339082 -5.847266
v -7.787158 0.628092 -5.720654
v -7.787158 0.581357 -5.720654
v -7.787158 0.027264 -4.805875
v -7.787158 0.073999 -4.805875
v -7.762078 0.578194 -5.777076
v -7.762078 0.578194 -5.844508
v -7.762078 -0.339082 -5.844508
v -7.762078 -0.339082 -5.777076
v -7.669377 0.581357 -5.720654
v -7.669377 0.628092 -5.720654
v -7.669377 0.073999 -4.805875
v -7.669377 0.027264 -4.805875
v -7.672481 0.633028 -5.720824
v -7.784054 0.633028 -5.720824
v -7.784054 0.078729 -4.805706
v -7.672481 0.078729 -4.805706
v -7.762078 0.074140 -4.890316
v -7.762078 0.114165 -4.957749
v -7.762078 -0.934227 -4.957749
v -7.762078 -0.934227 -4.890316
v -7.672481 0.578193 -5.726168
v -7.784054 0.578193 -5.726168
v -7.784054 0.578194 -6.926651
v -7.672481 0.578194 -6.926651
v -7.696685 0.072503 -4.887559
v -7.758975 0.072503 -4.887559
v -7.758975 -0.934227 -4.887559
v -7.696685 -0.934227 -4.887559
v -7.693582 0.114165 -4.957749
v -7.693582 0.074140 -4.890316
v -7.693582 -0.934227 -4.890316
v -7.693582 -0.934227 -4.957749
v -7.758975 0.115802 -4.960506
v -7.696685 0.115802 -4.960506
v -7.696685 -0.934227 -4.960506
v -7.758975 -0.934227 -4.960506
v -7.784054 0.582730 -6.929409
v -7.784054 0.578194 -6.926651
v -7.787158 0.582730 -6.926651
v -7.787158 0.630060 -6.926651
v -7.784054 0.634596 -6.926651
v -7.784054 0.630060 -6.929409
v -7.672481 0.634596 -6.926651
v -7.669377 0.630060 -6.926651
v -7.672481 0.630060 -6.929409
v -7.669377 0.582730 -6.926651
v -7.672481 0.578194 -6.926651
v -7.672481 0.582730 -6.929409
v -7.787158 0.582729 -5.726168
v -7.784054 0.578193 -5.726168
v -7.784054 0.576626 -5.720824
v -7.787158 0.581357 -5.720654
v -7.787158 0.630059 -5.726168
v -7.787158 0.628092 -5.720654
v -7.784054 0.633028 -5.720824
v -7.784054 0.634595 -5.726168
v -7.672481 0.634595 -5.726168
v -7.672481 0.633028 -5.720824
v -7.669377 0.628092 -5.720654
v -7.669377 0.630059 -5.726168
v -7.669377 0.582729 -5.726168
v -7.669377 0.581357 -5.720654
v -7.672481 0.576626 -5.720824
v -7.672481 0.578193 -5.726168
v -7.784054 0.025296 -4.803118
v -7.787158 0.027264 -4.805875
v -7.784054 0.022327 -4.805706
v -7.784054 0.078729 -4.805706
v -7.787158 0.073999 -4.805875
v -7.784054 0.072626 -4.803118
v -7.669377 0.073999 -4.805875
v -7.672481 0.078729 -4.805706
v -7.672481 0.072626 -4.803118
v -7.672481 0.022327 -4.805706
v -7.669377 0.027264 -4.805875
v -7.672481 0.025296 -4.803118
v -7.758975 -0.339082 -6.774428
v -7.758975 0.578194 -6.774428
v -7.762078 0.578194 -6.777185
v -7.762078 -0.339082 -6.777185
v -7.758975 0.578194 -6.847375
v -7.758975 -0.339082 -6.847375
v -7.762078 -0.339082 -6.844618
v -7.762078 0.578194 -6.844618
v -7.693582 0.578194 -6.844618
v -7.693582 -0.339082 -6.844618
v -7.696685 -0.339082 -6.847375
v -7.696685 0.578194 -6.847375
v -7.696685 0.578194 -6.774428
v -7.696685 -0.339082 -6.774428
v -7.693582 -0.339082 -6.777185
v -7.693582 0.578194 -6.777185
v -7.784054 0.578194 -6.926651
v -7.784054 0.578193 -5.726168
v -7.787158 0.582729 -5.726168
v -7.787158 0.582730 -6.926651
v -7.784054 0.634595 -5.726168
v -7.784054 0.634596 -6.926651
v -7.787158 0.630060 -6.926651
v -7.787158 0.630059 -5.726168
v -7.784054 0.630060 -6.929409
v -7.784054 0.582730 -6.929409
v -7.787158 0.582730 -6.926651
v -7.787158 0.630060 -6.926651
v -7.784054 0.633028 -5.720824
v -7.672481 0.633028 -5.720824
v -7.672481 0.634595 -5.726168
v -7.784054 0.634595 -5.726168
v -7.669377 0.630059 -5.726168
v -7.669377 0.630060 -6.926651
v -7.672481 0.634596 -6.926651
v -7.672481 0.634595 -5.726168
v -7.672481 0.630060 -6.929409
v -7.784054 0.630060 -6.929409
v -7.784054 0.634596 -6.926651
v -7.672481 0.634596 -6.926651
v -7.672481 0.578193 -5.726168
v -7.672481 0.578194 -6.926651
v -7.669377 0.582730 -6.926651
v -7.669377 0.582729 -5.726168
v -7.672481 0.582730 -6.929409
v -7.672481 0.630060 -6.929409
v -7.669377 0.630060 -6.926651
v -7.669377 0.582730 -6.926651
v -7.672481 0.576626 -5.720824
v -7.784054 0.576626 -5.720824
v -7.784054 0.578193 -5.726168
v -7.672481 0.578193 -5.726168
v -7.784054 0.582730 -6.929409
v -7.672481 0.582730 -6.929409
v -7.672481 0.578194 -6.926651
v -7.784054 0.578194 -6.926651
v -7.758975 -0.339082 -5.774319
v -7.758975 0.578194 -5.774319
v -7.762078 0.578194 -5.777076
v -7.762078 -0.339082 -5.777076
v -7.758975 0.578194 -5.847266
v -7.758975 -0.339082 -5.847266
v -7.762078 -0.339082 -5.844508
v -7.762078 0.578194 -5.844508
v -7.693582 0.578194 -5.844508
v -7.693582 -0.339082 -5.844508
v -7.696685 -0.339082 -5.847266
v -7.696685 0.578194 -5.847266
v -7.696685 0.578194 -5.774319
v -7.696685 -0.339082 -5.774319
v -7.693582 -0.339082 -5.777076
v -7.693582 0.578194 -5.777076
v -7.784054 0.025296 -4.803118
v -7.784054 0.072626 -4.803118
v -7.787158 0.073999 -4.805875
v -7.787158 0.027264 -4.805875
v -7.784054 0.072626 -4.803118
v -7.672481 0.072626 -4.803118
v -7.672481 0.078729 -4.805706
v -7.784054 0.078729 -4.805706
v -7.672481 0.072626 -4.803118
v -7.672481 0.025296 -4.803118
v -7.669377 0.027264 -4.805875
v -7.669377 0.073999 -4.805875
v -7.672481 0.025296 -4.803118
v -7.784054 0.025296 -4.803118
v -7.784054 0.022327 -4.805706
v -7.672481 0.022327 -4.805706
v -7.787158 0.027264 -4.805875
v -7.787158 0.581357 -5.720654
v -7.784054 0.576626 -5.720824
v -7.784054 0.022327 -4.805706
v -7.669377 0.581357 -5.720654
v -7.669377 0.027264 -4.805875
v -7.672481 0.022327 -4.805706
v -7.672481 0.576626 -5.720824
v -7.672481 0.633028 -5.720824
v -7.672481 0.078729 -4.805706
v -7.669377 0.073999 -4.805875
v -7.669377 0.628092 -5.720654
v -7.787158 0.628092 -5.720654
v -7.787158 0.073999 -4.805875
v -7.784054 0.078729 -4.805706
v -7.784054 0.633028 -5.720824
v -7.758975 -0.934227 -4.887559
v -7.758975 0.072503 -4.887559
v -7.762078 0.074140 -4.890316
v -7.762078 -0.934227 -4.890316
v -7.758975 0.115802 -4.960506
v -7.758975 -0.934227 -4.960506
v -7.762078 -0.934227 -4.957749
v -7.762078 0.114165 -4.957749
v -7.693582 0.114165 -4.957749
v -7.693582 -0.934227 -4.957749
v -7.696685 -0.934227 -4.960506
v -7.696685 0.115802 -4.960506
v -7.696685 0.072503 -4.887559
v -7.696685 -0.934227 -4.887559
v -7.693582 -0.934227 -4.890316
v -7.693582 0.074140 -4.890316
v -7.762078 0.578194 -6.777185
v -7.762078 0.578194 -6.844618
v -7.762078 -0.339082 -6.844618
v -7.762078 -0.339082 -6.777185
vn 0.000000 0.000000 1.000000
vn 0.000000 0.000000 1.000000
vn 0.000000 0.000000 1.000000
vn 0.000000 0.000000 1.000000
vn 1.000000 0.000000 0.000000
vn 1.000000 0.000000 0.000000
vn 1.000000 0.000000 0.000000
vn 1.000000 0.000000 0.000000
vn -1.000000 0.000000 0.000000
vn -1.000000 0.000000 0.000000
vn -1.000000 0.000000 0.000000
vn -1.000000 0.000000 0.000000
vn 0.000000 0.000000 -1.000000
vn 0.000000 0.000000 -1.000000
vn 0.000000 0.000000 -1.000000
vn 0.000000 0.000000 -1.000000
vn 1.000000 0.000000 0.000000
vn 1.000000 0.000000 0.000000
vn 1.000000 0.000000 0.000000
vn 1.000000 0.000000 0.000000
vn 0.000000 0.000000 -1.000000
vn 0.000000 0.000000 -1.000000
vn 0.000000 0.000000 -1.000000
vn 0.000000 0.000000 -1.000000
vn 0.000000 -0.855300 -0.518100
vn 0.000000 -0.855300 -0.518100
vn 0.000000 -0.855300 -0.518100
vn 0.000000 -0.855300 -0.518100
vn 0.000000 1.000000 0.000000
vn 0.000000 1.000000 0.000000
vn 0.000000 1.000000 0.000000
vn 0.000000 1.000000 0.000000
vn 0.000000 0.000000 1.000000
vn 0.000000 0.000000 1.000000
vn 0.000000 0.000000 1.000000
vn 0.000000 0.000000 1.000000
vn 1.000000 0.000000 0.000000
vn 1.000000 0.000000 0.000000
vn 1.000000 0.000000 0.000000
vn 1.000000 0.000000 0.000000
vn 0.000000 0.000000 1.000000
vn 0.000000 0.000000 1.000000
vn 0.000000 0.000000 1.000000
vn 0.000000 0.000000 1.000000
vn 0.000000 0.000000 -1.000000
vn 0.000000 0.000000 -1.000000
vn 0.000000 0.000000 -1.000000
vn 0.000000 0.000000 -1.000000
vn -1.000000 0.000000 0.000000
vn -1.000000 0.000000 0.000000
vn -1.000000 0.000000 0.000000
vn -1.000000 0.000000 0.000000
vn -1.000000 0.000000 0.000000
vn -1.000000 0.000000 0.000000
vn -1.000000 0.000000 0.000000
vn -1.000000 0.000000 0.000000
vn 1.000000 0.000000 0.000000
vn 1.000000 0.000000 0.000000
vn 1.000000 0.000000 0.000000
vn 1.000000 0.000000 0.000000
vn 0.000000 0.855300 0.518100
vn 0.000000 0.855300 0.518100
vn 0.000000 0.855300 0.518100
vn 0.000000 0.855300 0.518100
vn -1.000000 0.000000 0.000000
vn -1.000000 0.000000 0.000000
vn -1.000000 0.000000 0.000000
vn -1.000000 0.000000 0.000000
vn 0.000000 -1.000000 -0.000000
vn 0.000000 -1.000000 -0.000000
vn 0.000000 -1.000000 -0.000000
vn 0.000000 -1.000000 -0.000000
vn 0.000000 0.000000 1.000000
vn 0.000000 0.000000 1.000000
vn 0.000000 0.000000 1.000000
vn 0.000000 0.000000 1.000000
vn 1.000000 0.000000 0.000000
vn 1.000000 0.000000 0.000000
vn 1.000000 0.000000 0.000000
vn 1.000000 0.000000 0.000000
vn 0.000000 0.000000 -1.000000
vn 0.000000 0.000000 -1.000000
vn 0.000000 0.000000 -1.000000
vn 0.000000 0.000000 -1.000000
vn -0.604500 -0.413800 -0.680700
vn -0.604500 -0.413800 -0.680700
vn -0.604500 -0.413800 -0.680700
vn -0.604500 0.413800 -0.680700
vn -0.604500 0.413800 -0.680700
vn -0.604500 0.413800 -0.680700
vn 0.604600 0.413600 -0.680800
vn 0.604600 0.413600 -0.680800
vn 0.604600 0.413600 -0.680800
vn 0.604600 -0.413600 -0.680800
vn 0.604600 -0.413600 -0.680800
vn 0.604600 -0.413600 -0.680800
vn -0.822900 -0.548400 -0.148500
vn -0.822900 -0.548400 -0.148500
vn -0.822900 -0.548400 -0.148500
vn -0.822900 -0.548400 -0.148500
vn -0.821900 0.541700 0.176300
vn -0.821900 0.541700 0.176300
vn -0.821900 0.541700 0.176300
vn -0.821900 0.541700 0.176300
vn 0.821800 0.541800 0.176300
vn 0.821800 0.541800 0.176300
vn 0.821800 0.541800 0.176300
vn 0.821800 0.541800 0.176300
vn 0.822800 -0.548500 -0.148500
vn 0.822800 -0.548500 -0.148500
vn 0.822800 -0.548500 -0.148500
vn 0.822800 -0.548500 -0.148500
vn -0.735700 -0.445100 0.510500
vn -0.735700 -0.445100 0.510500
vn -0.735700 -0.445100 0.510500
vn -0.542200 0.328000 0.773500
vn -0.542200 0.328000 0.773500
vn -0.542200 0.328000 0.773500
vn 0.542200 0.327900 0.773600
vn 0.542200 0.327900 0.773600
vn 0.542200 0.327900 0.773600
vn 0.735800 -0.444900 0.510600
vn 0.735800 -0.444900 0.510600
vn 0.735800 -0.444900 0.510600
vn -0.664200 0.000000 0.747600
vn -0.664200 0.000000 0.747600
vn -0.664200 0.000000 0.747600
vn -0.664200 0.000000 0.747600
vn -0.664100 0.000000 -0.747600
vn -0.664100 0.000000 -0.747600
vn -0.664100 0.000000 -0.747600
vn -0.664100 0.000000 -0.747600
vn 0.664100 0.000000 -0.747600
vn 0.664100 0.000000 -0.747600
vn 0.664100 0.000000 -0.747600
vn 0.664100 0.000000 -0.747600
vn 0.664200 0.000000 0.747600
vn 0.664200 0.000000 0.747600
vn 0.664200 0.000000 0.747600
vn 0.664200 0.000000 0.747600
vn -0.825400 -0.564600 -0.000000
vn -0.825400 -0.564600 -0.000000
vn -0.825400 -0.564600 -0.000000
vn -0.825400 -0.564600 -0.000000
vn -0.825400 0.564600 0.000000
vn -0.825400 0.564600 0.000000
vn -0.825400 0.564600 0.000000
vn -0.825400 0.564600 0.000000
vn -0.664100 0.000000 -0.747600
vn -0.664100 0.000000 -0.747600
vn -0.664100 0.000000 -0.747600
vn -0.664100 0.000000 -0.747600
vn 0.000000 0.959600 0.281400
vn 0.000000 0.959600 0.281400
vn 0.000000 0.959600 0.281400
vn 0.000000 0.959600 0.281400
vn 0.825300 0.564700 0.000000
vn 0.825300 0.564700 0.000000
vn 0.825300 0.564700 0.000000
vn 0.825300 0.564700 0.000000
vn 0.000000 0.519400 -0.854500
vn 0.000000 0.519400 -0.854500
vn 0.000000 0.519400 -0.854500
vn 0.000000 0.519400 -0.854500
vn 0.825300 -0.564700 -0.000000
vn 0.825300 -0.564700 -0.000000
vn 0.825300 -0.564700 -0.000000
vn 0.825300 -0.564700 -0.000000
vn 0.664100 0.000000 -0.747700
vn 0.664100 0.000000 -0.747700
vn 0.664100 0.000000 -0.747700
vn 0.664100 0.000000 -0.747700
vn 0.000000 -0.959600 -0.281400
vn 0.000000 -0.959600 -0.281400
vn 0.000000 -0.959600 -0.281400
vn 0.000000 -0.959600 -0.281400
vn 0.000000 -0.519400 -0.854500
vn 0.000000 -0.519400 -0.854500
vn 0.000000 -0.519400 -0.854500
vn 0.000000 -0.519400 -0.854500
vn -0.664100 0.000000 0.747600
vn -0.664100 0.000000 0.747600
vn -0.664100 0.000000 0.747600
vn -0.664100 0.000000 0.747600
vn -0.664200 0.000000 -0.747600
vn -0.664200 0.000000 -0.747600
vn -0.664200 0.000000 -0.747600
vn -0.664200 0.000000 -0.747600
vn 0.664200 0.000000 -0.747600
vn 0.664200 0.000000 -0.747600
vn 0.664200 0.000000 -0.747600
vn 0.664200 0.000000 -0.747600
vn 0.664100 0.000000 0.747600
vn 0.664100 0.000000 0.747600
vn 0.664100 0.000000 0.747600
vn 0.664100 0.000000 0.747600
vn -0.664200 0.000000 0.747600
vn -0.664200 0.000000 0.747600
vn -0.664200 0.000000 0.747600
vn -0.664200 0.000000 0.747600
vn 0.000000 0.390300 0.920700
vn 0.000000 0.390300 0.920700
vn 0.000000 0.390300 0.920700
vn 0.000000 0.390300 0.920700
vn 0.664100 0.000000 0.747600
vn 0.664100 0.000000 0.747600
vn 0.664100 0.000000 0.747600
vn 0.664100 0.000000 0.747600
vn 0.000000 -0.657000 0.753900
vn 0.000000 -0.657000 0.753900
vn 0.000000 -0.657000 0.753900
vn 0.000000 -0.657000 0.753900
vn -0.799700 -0.513500 -0.311000
vn -0.799700 -0.513500 -0.311000
vn -0.799700 -0.513500 -0.311000
vn -0.799700 -0.513500 -0.311000
vn 0.799700 -0.513500 -0.311000
vn 0.799700 -0.513500 -0.311000
vn 0.799700 -0.513500 -0.311000
vn 0.799700 -0.513500 -0.311000
vn 0.799700 0.513500 0.311100
vn 0.799700 0.513500 0.311100
vn 0.799700 0.513500 0.311100
vn 0.799700 0.513500 0.311100
vn -0.799700 0.513600 0.311000
vn -0.799700 0.513600 0.311000
vn -0.799700 0.513600 0.311000
vn -0.799700 0.513600 0.311000
vn -0.664100 0.000000 0.747600
vn -0.664100 0.000000 0.747600
vn -0.664100 0.000000 0.747600
vn -0.664100 0.000000 0.747600
vn -0.664100 0.000000 -0.747600
vn -0.664100 0.000000 -0.747600
vn -0.664100 0.000000 -0.747600
vn -0.664100 0.000000 -0.747600
vn 0.664100 0.000000 -0.747600
vn 0.664100 0.000000 -0.747600
vn 0.664100 0.000000 -0.747600
vn 0.664100 0.000000 -0.747600
vn 0.664100 0.000000 0.747600
vn 0.664100 0.000000 0.747600
vn 0.664100 0.000000 0.747600
vn 0.664100 0.000000 0.747600
vn -1.000000 0.000000 0.000000
vn -1.000000 0.000000 0.000000
vn -1.000000 0.000000 0.000000
vn -1.000000 0.000000 0.000000
vt 0.000000 0.000000
vt 0.000000 0.000000
vt 0.000000 0.000000
vt 0.000000 0.000000
vt 0.000000 0.000000
vt 0.000000 0.000000
vt 0.000000 0.000000
vt 0.000000 0.000000
vt 0.000000 0.000000
vt 0.000000 0.000000
vt 0.000000 0.000000
vt 0.000000 0.000000
vt 0.000000 0.000000
vt 0.000000 0.000000
vt 0.000000 0.000000
vt 0.000000 0.000000
vt 0.000000 0.000000
vt 0.000000 0.000000
vt 0.000000 0.000000
vt 0.000000 0.000000
vt 0.000000 0.000000
vt 0.000000 0.000000
vt 0.000000 0.000000
vt 0.000000 0.000000
vt 0.000000 0.000000
vt 0.000000 0.000000
vt 0.000000 0.000000
vt 0.000000 0.000000
vt 0.000000 0.000000
vt 0.000000 0.000000
vt 0.000000 0.000000
vt 0.000000 0.000000
vt 0.000000 0.000000
vt 0.000000 0.000000
vt 0.000000 0.000000
vt 0.000000 0.000000
vt 0.000000 0.000000
vt 0.000000 0.000000
vt 0.000000 0.000000
vt 0.000000 0.000000
vt 0.000000 0.000000
vt 0.000000 0.000000
vt 0.000000 0.000000
vt 0.000000 0.000000
vt 0.000000 0.000000
vt 0.000000 0.000000
vt 0.000000 0.000000
vt 0.000000 0.000000
vt 0.000000 0.000000
vt 0.000000 0.000000
vt 0.000000 0.000000
vt 0.000000 0.000000
vt 0.000000 0.000000
vt 0.000000 0.000000
vt 0.000000 0.000000
vt 0.000000 0.000000
vt 0.000000 0.000000
vt 0.000000 0.000000
vt 0.000000 0.000000
vt 0.000000 0.000000
vt 0.000000 0.000000
vt 0.000000 0.000000
vt 0.000000 0.000000
vt 0.000000 0.000000
vt 0.000000 0.000000
vt 0.000000 0.000000
vt 0.000000 0.000000
vt 0.000000 0.000000
vt 0.000000 0.000000
vt 0.000000 0.000000
vt 0.000000 0.000000
vt 0.000000 0.000000
vt 0.000000 0.000000
vt 0.000000 0.000000
vt 0.000000 0.000000
vt 0.000000 0.000000
vt 0.000000 0.000000
vt 0.000000 0.000000
vt 0.000000 0.000000
vt 0.000000 0.000000
vt 0.000000 0.000000
vt 0.000000 0.000000
vt 0.000000 0.000000
vt 0.000000 0.000000
vt 0.000000 0.000000
vt 0.000000 0.000000
vt 0.000000 0.000000
vt 0.000000 0.000000
vt 0.000000 0.000000
vt 0.000000 0.000000
vt 0.000000 0.000000
vt 0.000000 0.000000
vt 0.000000 0.000000
vt 0.000000 0.000000
vt 0.000000 0.000000
vt 0.000000 0.000000
vt 0.000000 0.000000
vt 0.000000 0.000000
vt 0.000000 0.000000
vt 0.000000 0.000000
vt 0.000000 0.000000
vt 0.000000 0.000000
vt 0.000000 0.000000
vt 0.000000 0.000000
vt 0.000000 0.000000
vt 0.000000 0.000000
vt 0.000000 0.000000
vt 0.000000 0.000000
vt 0.000000 0.000000
vt 0.000000 0.000000
vt 0.000000 0.000000
vt 0.000000 0.000000
vt 0.000000 0.000000
vt 0.000000 0.000000
vt 0.000000 0.000000
vt 0.000000 0.000000
vt 0.000000 0.000000
vt 0.000000 0.000000
vt 0.000000 0.000000
vt 0.000000 0.000000
vt 0.000000 0.000000
vt 0.000000 0.000000
vt 0.000000 0.000000
vt 0.000000 0.000000
vt 0.000000 0.000000
vt 0.000000 0.000000
vt 0.000000 0.000000
vt 0.000000 0.000000
vt 0.000000 0.000000
vt 0.000000 0.000000
vt 0.000000 0.000000
vt 0.000000 0.000000
vt 0.000000 0.000000
vt 0.000000 0.000000
vt 0.000000 0.000000
vt 0.000000 0.000000
vt 0.000000 0.000000
vt 0.000000 0.000000
vt 0.000000 0.000000
vt 0.000000 0.000000
vt 0.000000 0.000000
vt 0.000000 0.000000
vt 0.000000 0.000000
vt 0.000000 0.000000
vt 0.000000 0.000000
vt 0.000000 0.000000
vt 0.000000 0.000000
vt 0.000000 0.000000
vt 0.000000 0.000000
vt 0.000000 0.000000
vt 0.000000 0.000000
vt 0.000000 0.000000
vt 0.000000 0.000000
vt 0.000000 0.000000
vt 0.000000 0.000000
vt 0.000000 0.000000
vt 0.000000 0.000000
vt 0.000000 0.000000
vt 0.000000 0.000000
vt 0.000000 0.000000
vt 0.000000 0.000000
vt 0.000000 0.000000
vt 0.000000 0.000000
vt 0.000000 0.000000
vt 0.000000 0.000000
vt 0.000000 0.000000
vt 0.000000 0.000000
vt 0.000000 0.000000
vt 0.000000 0.000000
vt 0.000000 0.000000
vt 0.000000 0.000000
vt 0.000000 0.000000
vt 0.000000 0.000000
vt 0.000000 0.000000
vt 0.000000 0.000000
vt 0.000000 0.000000
vt 0.000000 0.000000
vt 0.000000 0.000000
vt 0.000000 0.000000
vt 0.000000 0.000000
vt 0.000000 0.000000
vt 0.000000 0.000000
vt 0.000000 0.000000
vt 0.000000 0.000000
vt 0.000000 0.000000
vt 0.000000 0.000000
vt 0.000000 0.000000
vt 0.000000 0.000000
vt 0.000000 0.000000
vt 0.000000 0.000000
vt 0.000000 0.000000
vt 0.000000 0.000000
vt 0.000000 0.000000
vt 0.000000 0.000000
vt 0.000000 0.000000
vt 0.000000 0.000000
vt 0.000000 0.000000
vt 0.000000 0.000000
vt 0.000000 0.000000
vt 0.000000 0.000000
vt 0.000000 0.000000
vt 0.000000 0.000000
vt 0.000000 0.000000
vt 0.000000 0.000000
vt 0.000000 0.000000
vt 0.000000 0.000000
vt 0.000000 0.000000
vt 0.000000 0.000000
vt 0.000000 0.000000
vt 0.000000 0.000000
vt 0.000000 0.000000
vt 0.000000 0.000000
vt 0.000000 0.000000
vt 0.000000 0.000000
vt 0.000000 0.000000
vt 0.000000 0.000000
vt 0.000000 0.000000
vt 0.000000 0.000000
vt 0.000000 0.000000
vt 0.000000 0.000000
vt 0.000000 0.000000
vt 0.000000 0.000000
vt 0.000000 0.000000
vt 0.000000 0.000000
vt 0.000000 0.000000
vt 0.000000 0.000000
vt 0.000000 0.000000
vt 0.000000 0.000000
vt 0.000000 0.000000
vt 0.000000 0.000000
vt 0.000000 0.000000
vt 0.000000 0.000000
vt 0.000000 0.000000
vt 0.000000 0.000000
vt 0.000000 0.000000
vt 0.000000 0.000000
vt 0.000000 0.000000
vt 0.000000 0.000000
vt 0.000000 0.000000
vt 0.000000 0.000000
vt 0.000000 0.000000
vt 0.000000 0.000000
vt 0.000000 0.000000
vt 0.000000 0.000000
vt 0.000000 0.000000
vt 0.000000 0.000000
vt 0.000000 0.000000
vt 0.000000 0.000000
f 1/1/1 2/2/2 3/3/3
f 1/1/1 3/3/3 4/4/4
f 5/5/5 6/6/6 7/7/7
f 5/5/5 7/7/7 8/8/8
f 9/9/9 10/10/10 11/11/11
f 9/9/9 11/11/11 12/12/12
f 13/13/13 14/14/14 15/15/15
f 13/13/13 15/15/15 16/16/16
f 17/17/17 18/18/18 19/19/19
f 17/17/17 19/19/19 20/20/20
f 21/21/21 22/22/22 23/23/23
f 21/21/21 23/23/23 24/24/24
f 25/25/25 26/26/26 27/27/27
f 25/25/25 27/27/27 28/28/28
f 29/29/29 30/30/30 31/31/31
f 29/29/29 31/31/31 32/32/32
f 33/33/33 34/34/34 35/35/35
f 33/33/33 35/35/35 36/36/36
f 37/37/37 38/38/38 39/39/39
f 37/37/37 39/39/39 40/40/40
f 41/41/41 42/42/42 43/43/43
f 41/41/41 43/43/43 44/44/44
f 45/45/45 46/46/46 47/47/47
f 45/45/45 47/47/47 48/48/48
f 49/49/49 50/50/50 51/51/51
f 49/49/49 51/51/51 52/52/52
f 53/53/53 54/54/54 55/55/55
f 53/53/53 55/55/55 56/56/56
f 57/57/57 58/58/58 59/59/59
f 57/57/57 59/59/59 60/60/60
f 61/61/61 62/62/62 63/63/63
f 61/61/61 63/63/63 64/64/64
f 65/65/65 66/66/66 67/67/67
f 65/65/65 67/67/67 68/68/68
f 69/69/69 70/70/70 71/71/71
f 69/69/69 71/71/71 72/72/72
f 73/73/73 74/74/74 75/75/75
f 73/73/73 75/75/75 76/76/76
f 77/77/77 78/78/78 79/79/79
f 77/77/77 79/79/79 80/80/80
f 81/81/81 82/82/82 83/83/83
f 81/81/81 83/83/83 84/84/84
f 85/85/85 86/86/86 87/87/87
f 88/88/88 89/89/89 90/90/90
f 91/91/91 92/92/92 93/93/93
f 94/94/94 95/95/95 96/96/96
f 97/97/97 98/98/98 99/99/99
f 97/97/97 99/99/99 100/100/100
f 101/101/101 102/102/102 103/103/103
f 101/101/101 103/103/103 104/104/104
f 105/105/105 106/106/106 107/107/107
f 105/105/105 107/107/107 108/108/108
f 109/109/109 110/110/110 111/111/111
f 109/109/109 111/111/111 112/112/112
f 113/113/113 114/114/114 115/115/115
f 116/116/116 117/117/117 118/118/118
f 119/119/119 120/120/120 121/121/121
f 122/122/122 123/123/123 124/124/124
f 125/125/125 126/126/126 127/127/127
f 125/125/125 127/127/127 128/128/128
f 129/129/129 130/130/130 131/131/131
f 129/129/129 131/131/131 132/132/132
f 133/133/133 134/134/134 135/135/135
f 133/133/133 135/135/135 136/136/136
f 137/137/137 138/138/138 139/139/139
f 137/137/137 139/139/139 140/140/140
f 141/141/141 142/142/142 143/143/143
f 141/141/141 143/143/143 144/144/144
f 50/50/50 49/49/49 10/10/10
f 50/50/50 10/10/10 9/9/9
f 145/145/145 146/146/146 147/147/147
f 145/145/145 147/147/147 148/148/148
f 149/149/149 150/150/150 151/151/151
f 149/149/149 151/151/151 152/152/152
f 153/153/153 154/154/154 155/155/155
f 153/153/153 155/155/155 156/156/156
f 157/157/157 158/158/158 159/159/159
f 157/157/157 159/159/159 160/160/160
f 161/161/161 162/162/162 163/163/163
f 161/161/161 163/163/163 164/164/164
f 58/58/58 57/57/57 18/18/18
f 58/58/58 18/18/18 17/17/17
f 165/165/165 166/166/166 167/167/167
f 165/165/165 167/167/167 168/168/168
f 169/169/169 170/170/170 171/171/171
f 169/169/169 171/171/171 172/172/172
f 173/173/173 174/174/174 175/175/175
f 173/173/173 175/175/175 176/176/176
f 177/177/177 178/178/178 179/179/179
f 177/177/177 179/179/179 180/180/180
f 181/181/181 182/182/182 183/183/183
f 181/181/181 183/183/183 184/184/184
f 185/185/185 186/186/186 187/187/187
f 185/185/185 187/187/187 188/188/188
f 189/189/189 190/190/190 191/191/191
f 189/189/189 191/191/191 192/192/192
f 193/193/193 194/194/194 195/195/195
f 193/193/193 195/195/195 196/196/196
f 197/197/197 198/198/198 199/199/199
f 197/197/197 199/199/199 200/200/200
f 201/201/201 202/202/202 203/203/203
f 201/201/201 203/203/203 204/204/204
f 205/205/205 206/206/206 207/207/207
f 205/205/205 207/207/207 208/208/208
f 209/209/209 210/210/210 211/211/211
f 209/209/209 211/211/211 212/212/212
f 213/213/213 214/214/214 215/215/215
f 213/213/213 215/215/215 216/216/216
f 217/217/217 218/218/218 219/219/219
f 217/217/217 219/219/219 220/220/220
f 221/221/221 222/222/222 223/223/223
f 221/221/221 223/223/223 224/224/224
f 225/225/225 226/226/226 227/227/227
f 225/225/225 227/227/227 228/228/228
f 229/229/229 230/230/230 231/231/231
f 229/229/229 231/231/231 232/232/232
f 233/233/233 234/234/234 235/235/235
f 233/233/233 235/235/235 236/236/236
f 237/237/237 238/238/238 239/239/239
f 237/237/237 239/239/239 240/240/240
f 241/241/241 242/242/242 243/243/243
f 241/241/241 243/243/243 244/244/244
f 245/245/245 246/246/246 247/247/247
f 245/245/245 247/247/247 248/248/248
