v -1.921380 0.620934 -2.614419
v -1.921380 0.620934 -1.328013
v -1.966053 0.620934 -1.328013
v -1.966053 0.620934 -2.614419
v -1.921380 0.561816 -2.614419
v -1.966053 0.561816 -2.614419
v -1.966053 0.561816 -2.650055
v -1.921381 0.561816 -2.650055
v -0.712697 0.620934 -1.328012
v -0.712697 0.620934 -2.614419
v -1.921381 0.620934 -2.650055
v -1.921381 0.561816 -2.650055
v -1.966053 0.561816 -2.650055
v -1.966053 0.620934 -2.650055
v -1.966053 0.561816 -2.614419
v -1.966053 0.620934 -2.614419
v -1.966053 0.620934 -2.650055
v -1.966053 0.561816 -2.650055
v -1.966053 0.620934 -2.614419
v -1.921380 0.620934 -2.614419
v -1.921381 0.620934 -2.650055
v -1.966053 0.620934 -2.650055
v -1.921380 0.561816 -1.328013
v -1.966053 0.561816 -1.328013
v -1.966053 0.561816 -1.292377
v -1.921381 0.561816 -1.292377
v -0.712697 0.620934 -1.292376
v -1.921381 0.620934 -1.292377
v -1.921381 0.620934 -1.292377
v -1.921381 0.561816 -1.292377
v -1.966053 0.561816 -1.292377
v -1.966053 0.620934 -1.292377
v -0.712697 0.620934 -1.292376
v -0.712697 0.561816 -1.292376
v -0.712696 0.561816 -1.328012
v -0.712697 0.561816 -1.292376
v -1.966053 0.561816 -1.328013
v -1.966053 0.620934 -1.328013
v -1.966053 0.620934 -1.292377
v -1.966053 0.561816 -1.292377
v -1.966053 0.620934 -1.292377
v -0.712697 0.620934 -1.328012
v -0.712696 0.561816 -1.328012
v -0.712697 0.561816 -1.292376
v -0.712697 0.620934 -1.292376
v -1.966053 0.620934 -2.614419
v -1.966053 0.561816 -2.614419
v -1.921380 0.561816 -2.614419
v -1.966053 0.561816 -2.614419
v 2.938466 -0.339082 -7.447981
v 2.938466 -0.339082 -3.747746
v 0.080444 -0.339082 -3.747746
v 0.080444 -0.339082 -7.441573
v -9.191953 -0.339082 -2.595758
v -6.697244 -0.339082 -0.275707
v -8.910953 -0.339082 1.860519
v -11.274625 -0.339082 -0.466229
v -0.515681 -0.339082 -9.000319
v -3.112851 -0.339082 -9.000319
v -3.112851 -0.339082 -12.290683
v -0.515681 -0.339082 -12.290683
v -3.112851 -0.339082 -3.747746
v -3.733753 -0.339082 -3.747746
v -3.733753 -0.339082 -7.441573
v -3.112851 -0.339082 -7.441573
v -3.733753 -0.339082 -9.000319
v -3.733753 -0.339082 -12.290683
v -4.085463 -0.339082 -9.000319
v -4.085463 -0.339082 -12.290683
v -3.733753 -0.339082 -0.275707
v -3.733753 -0.339082 0.807657
v -4.085463 -0.339082 0.807657
v -4.085464 -0.339082 -0.275707
v -0.515682 -0.339082 3.841908
v -3.112851 -0.339082 3.841842
v -3.112851 -0.339082 3.229350
v -0.515681 -0.339082 3.229350
v -3.112851 -0.339082 -0.275707
v -3.112851 -0.339082 0.803330
v -0.515681 -0.339082 0.803330
v -0.515681 -0.339082 -3.747746
v -0.515681 -0.339082 -7.441573
v 2.938466 -0.339082 0.803330
v 4.115150 -0.339082 0.803330
v 4.115151 -0.339082 3.229350
v 2.938466 -0.339082 3.229350
v -11.274625 -0.339082 0.907622
v -10.319901 -0.339082 1.860519
v -6.697244 -0.339082 -2.595758
v -7.834785 -0.339082 -2.595758
v -3.733753 -0.339082 3.229350
v -3.112851 -0.339082 -2.595758
v -3.733753 -0.339082 -2.595758
v -0.515681 -0.339082 -2.595758
v -4.085463 -0.339082 3.229350
v -5.142488 -0.339082 -12.290683
v -4.085463 -0.339082 -12.290683
v -4.085463 -0.339082 -9.000319
v -5.142489 -0.339082 -9.000319
v -4.085463 -0.339082 -2.595758
v -0.515681 -0.339082 -0.275707
v 4.121906 -0.339082 -7.444759
v 4.121906 -0.339082 -3.747746
v 0.428437 -0.339082 -8.658474
v 2.938466 -0.339082 -2.595758
v 4.121906 -0.339082 -2.595758
v -6.718414 -0.339082 -9.000319
v -11.600780 -0.339082 -9.000319
v -11.600780 -0.339082 -12.290683
v -6.718413 -0.339082 -12.290683
v 2.938466 -0.339082 -0.275707
v 4.121909 -0.339082 -0.275707
v 0.428437 -0.339082 -12.290683
v 0.080444 -0.339082 -2.595758
v 2.938465 -0.339082 -8.658474
v 0.080444 -0.339082 0.803330
v 0.080443 -0.339082 3.229350
v 0.080444 -0.339082 -0.275707
v -4.085463 -0.339082 -7.441573
v -4.085464 -0.339082 -3.747746
v -6.000526 -0.339082 -7.441573
v -6.718414 -0.339082 -7.441573
v -6.718414 -0.339082 -9.000319
v -6.000526 -0.339082 -9.000319
v -5.142489 -0.339082 -3.747746
v -4.085464 -0.339082 -3.747746
v -4.085463 -0.339082 -2.595758
v -5.133860 -0.339082 -2.595758
v -6.718413 -0.339082 -3.747746
v -5.985285 -0.339082 -2.595758
v -5.985286 -0.339082 -0.275707
v -6.697244 -0.339082 -0.275707
v -6.697244 -0.339082 -2.595758
v -5.133860 -0.339082 -0.275707
v -4.085464 -0.339082 -0.275707
v -4.085463 -0.339082 0.807657
v -5.133859 -0.339082 0.807657
v -5.142489 -0.339082 -7.441573
v -4.085463 -0.339082 -7.441573
v -6.718413 -0.339082 -12.290683
v -6.000526 -0.339082 -12.290683
v -6.718413 -0.339082 -3.747746
v -6.000526 -0.339082 -3.747746
v -5.985285 -0.339082 0.807657
v -6.697243 -0.339082 0.807657
v -5.985285 -0.339082 0.807657
v -5.133859 -0.339082 0.807657
v -5.133859 -0.339082 0.997003
v -5.985285 -0.339082 0.997003
v -5.133859 -0.350312 1.008233
v -5.985285 -0.350312 1.008233
v -5.985285 -0.344697 1.006728
v -5.133859 -0.344697 1.006728
v -5.133859 -0.344697 1.006728
v -5.985285 -0.344697 1.006728
v -5.985285 -0.340587 1.002618
v -5.133859 -0.340587 1.002617
v -5.133859 -0.340587 1.002617
v -5.985285 -0.340587 1.002618
v -5.985285 -0.339082 0.997003
v -5.133859 -0.339082 0.997003
v -5.985285 -0.350312 1.008233
v -5.133859 -0.350312 1.008233
v -5.133859 -0.401641 1.008234
v -5.985285 -0.401641 1.008234
v -5.133859 -0.339082 0.807658
v -5.985285 -0.339082 0.807658
v -5.133859 -0.401641 1.008234
v -5.985285 -0.401641 1.008234
v -5.133859 -0.339082 1.008179
v -5.985285 -0.339082 1.008179
v -5.985285 -0.339082 1.005555
v -5.133859 -0.339082 1.005555
v -5.133859 -0.339082 1.005555
v -5.133859 -0.339082 1.008178
v -5.985285 -0.339082 1.008178
v -5.985285 -0.339082 1.005555
v -5.985285 -0.339082 1.008178
v -5.133859 -0.339082 1.008178
vn 0.000000 -1.000000 0.000000
vn 0.000000 -1.000000 0.000000
vn 0.000000 -1.000000 0.000000
vn 0.000000 -1.000000 0.000000
vn 0.000000 -1.000000 0.000000
vn 0.000000 -1.000000 0.000000
vn 0.000000 -1.000000 0.000000
vn 0.000000 -1.000000 0.000000
vn 0.000000 -1.000000 0.000000
vn 0.000000 -1.000000 0.000000
vn 0.000000 0.000000 -1.000000
vn 0.000000 0.000000 -1.000000
vn 0.000000 0.000000 -1.000000
vn 0.000000 0.000000 -1.000000
vn -1.000000 0.000000 0.000000
vn -1.000000 0.000000 0.000000
vn -1.000000 0.000000 0.000000
vn -1.000000 0.000000 0.000000
vn 0.000000 1.000000 0.000000
vn 0.000000 1.000000 0.000000
vn 0.000000 1.000000 0.000000
vn 0.000000 1.000000 0.000000
vn 0.000000 1.000000 0.000000
vn 0.000000 1.000000 0.000000
vn 0.000000 1.000000 0.000000
vn 0.000000 1.000000 0.000000
vn 0.000000 -1.000000 0.000000
vn 0.000000 -1.000000 0.000000
vn 0.000000 0.000000 -1.000000
vn 0.000000 0.000000 -1.000000
vn 0.000000 0.000000 -1.000000
vn 0.000000 0.000000 -1.000000
vn 0.000000 0.000000 -1.000000
vn 0.000000 0.000000 -1.000000
vn 0.000000 1.000000 0.000000
vn 0.000000 1.000000 0.000000
vn 1.000000 0.000000 0.000000
vn 1.000000 0.000000 0.000000
vn 1.000000 0.000000 0.000000
vn 1.000000 0.000000 0.000000
vn 0.000000 -1.000000 0.000000
vn -1.000000 0.000000 0.000000
vn -1.000000 0.000000 0.000000
vn -1.000000 0.000000 0.000000
vn -1.000000 0.000000 0.000000
vn 1.000000 0.000000 0.000000
vn 1.000000 0.000000 0.000000
vn 0.000000 1.000000 0.000000
vn 0.000000 1.000000 0.000000
vn 0.000000 -1.000000 0.000000
vn 0.000000 -1.000000 0.000000
vn 0.000000 -1.000000 0.000000
vn 0.000000 -1.000000 0.000000
vn 0.000000 -1.000000 0.000000
vn 0.000000 -1.000000 0.000000
vn 0.000000 -1.000000 0.000000
vn 0.000000 -1.000000 0.000000
vn 0.000000 -1.000000 0.000000
vn 0.000000 -1.000000 0.000000
vn 0.000000 -1.000000 0.000000
vn 0.000000 -1.000000 0.000000
vn 0.000000 -1.000000 0.000000
vn 0.000000 -1.000000 0.000000
vn 0.000000 -1.000000 0.000000
vn 0.000000 -1.000000 0.000000
vn 0.000000 -1.000000 0.000000
vn 0.000000 -1.000000 0.000000
vn 0.000000 -1.000000 0.000000
vn 0.000000 -1.000000 0.000000
vn 0.000000 -1.000000 0.000000
vn 0.000000 -1.000000 0.000000
vn 0.000000 -1.000000 0.000000
vn 0.000000 -1.000000 0.000000
vn 0.000000 -1.000000 0.000000
vn 0.000000 -1.000000 0.000000
vn 0.000000 -1.000000 0.000000
vn 0.000000 -1.000000 0.000000
vn 0.000000 -1.000000 0.000000
vn 0.000000 -1.000000 0.000000
vn 0.000000 -1.000000 0.000000
vn 0.000000 -1.000000 0.000000
vn 0.000000 -1.000000 0.000000
vn 0.000000 -1.000000 0.000000
vn 0.000000 -1.000000 0.000000
vn 0.000000 -1.000000 0.000000
vn 0.000000 -1.000000 0.000000
vn 0.000000 -1.000000 0.000000
vn 0.000000 -1.000000 0.000000
vn 0.000000 -1.000000 0.000000
vn 0.000000 -1.000000 0.000000
vn 0.000000 -1.000000 0.000000
vn 0.000000 -1.000000 0.000000
vn 0.000000 -1.000000 0.000000
vn 0.000000 -1.000000 0.000000
vn 0.000000 -1.000000 0.000000
vn 0.000000 -1.000000 0.000000
vn 0.000000 -1.000000 0.000000
vn 0.000000 -1.000000 0.000000
vn 0.000000 -1.000000 0.000000
vn 0.000000 -1.000000 0.000000
vn 0.000000 -1.000000 0.000000
vn 0.000000 -1.000000 0.000000
vn 0.000000 -1.000000 0.000000
vn 0.000000 -1.000000 0.000000
vn 0.000000 -1.000000 0.000000
vn 0.000000 -1.000000 0.000000
vn 0.000000 -1.000000 0.000000
vn 0.000000 -1.000000 0.000000
vn 0.000000 -1.000000 0.000000
vn 0.000000 -1.000000 0.000000
vn 0.000000 -1.000000 0.000000
vn 0.000000 -1.000000 0.000000
vn 0.000000 -1.000000 0.000000
vn 0.000000 -1.000000 0.000000
vn 0.000000 -1.000000 0.000000
vn 0.000000 -1.000000 0.000000
vn 0.000000 -1.000000 0.000000
vn 0.000000 -1.000000 0.000000
vn 0.000000 -1.000000 0.000000
vn 0.000000 -1.000000 0.000000
vn 0.000000 -1.000000 0.000000
vn 0.000000 -1.000000 0.000000
vn 0.000000 -1.000000 0.000000
vn 0.000000 -1.000000 0.000000
vn 0.000000 -1.000000 0.000000
vn 0.000000 -1.000000 0.000000
vn 0.000000 -1.000000 0.000000
vn 0.000000 -1.000000 0.000000
vn 0.000000 -1.000000 0.000000
vn 0.000000 -1.000000 0.000000
vn 0.000000 -1.000000 0.000000
vn 0.000000 -1.000000 0.000000
vn 0.000000 -1.000000 0.000000
vn 0.000000 -1.000000 0.000000
vn 0.000000 -1.000000 0.000000
vn 0.000000 -1.000000 0.000000
vn 0.000000 -1.000000 0.000000
vn 0.000000 -1.000000 0.000000
vn 0.000000 -1.000000 0.000000
vn 0.000000 -1.000000 0.000000
vn 0.000000 -1.000000 0.000000
vn 0.000000 -1.000000 0.000000
vn 0.000000 -1.000000 0.000000
vn 0.000000 -1.000000 0.000000
vn 0.000000 -1.000000 0.000000
vn 0.000000 -1.000000 0.000000
vn 0.000000 -1.000000 0.000000
vn 0.000000 -1.000000 0.000000
vn 0.000000 -1.000000 0.000000
vn -0.000000 -0.258900 -0.965900
vn -0.000000 -0.258900 -0.965900
vn -0.000000 -0.258900 -0.965900
vn -0.000000 -0.258900 -0.965900
vn -0.000000 -0.707100 -0.707100
vn -0.000000 -0.707100 -0.707100
vn -0.000000 -0.707100 -0.707100
vn -0.000000 -0.707100 -0.707100
vn -0.000000 -0.965900 -0.258800
vn -0.000000 -0.965900 -0.258800
vn -0.000000 -0.965900 -0.258800
vn -0.000000 -0.965900 -0.258800
vn 0.000000 0.000000 -1.000000
vn 0.000000 0.000000 -1.000000
vn 0.000000 0.000000 -1.000000
vn 0.000000 0.000000 -1.000000
vn 0.000000 1.000000 0.000000
vn 0.000000 1.000000 0.000000
vn 0.000000 1.000000 0.000000
vn 0.000000 1.000000 0.000000
vn 0.000000 1.000000 0.000000
vn 0.000000 1.000000 0.000000
vn 0.000000 1.000000 0.000000
vn 0.000000 1.000000 0.000000
vn 0.000000 1.000000 0.000000
vn 0.000000 1.000000 0.000000
vn 0.000000 1.000000 0.000000
vn 0.000000 1.000000 0.000000
vn 0.000000 1.000000 0.000000
vn 0.000000 1.000000 0.000000
vt 0.306062 -0.032005
vt 0.306063 0.958592
vt 0.271663 0.958591
vt 0.271661 -0.032005
vt 0.191319 -0.077438
vt 0.225710 -0.077439
vt 0.225709 -0.104872
vt 0.191318 -0.104872
vt 1.236810 0.958591
vt 1.236809 -0.032007
vt 0.191318 -0.150383
vt 0.191318 -0.104872
vt 0.225709 -0.104872
vt 0.225708 -0.150384
vt 0.225710 -0.077439
vt 0.271219 -0.077440
vt 0.271219 -0.104873
vt 0.225709 -0.104872
vt 0.271661 -0.032005
vt 0.306062 -0.032005
vt 0.306061 -0.059447
vt 0.271661 -0.059447
vt 0.191345 0.912868
vt 0.225737 0.912866
vt 0.225748 0.940308
vt 0.191346 0.940316
vt 1.236810 0.986032
vt 0.306063 0.986033
vt 0.191354 0.985853
vt 0.191346 0.940316
vt 0.225748 0.940308
vt 0.225762 0.985842
vt -0.739773 0.986034
vt -0.739782 0.940492
vt -0.739787 0.913037
vt -0.739782 0.940492
vt 0.225737 0.912866
vt 0.271240 0.912866
vt 0.271240 0.940296
vt 0.225748 0.940308
vt 0.271663 0.986033
vt 0.317185 -0.059869
vt 0.271661 -0.059869
vt 0.271661 -0.087311
vt 0.317185 -0.087311
vt 0.271219 -0.077440
vt 0.225710 -0.077439
vt 0.191319 -0.077438
vt 0.225710 -0.077439
vt 4.615989 3.787592
vt 4.615989 0.862015
vt 2.356305 0.862015
vt 2.356305 3.782526
vt -4.974883 -0.048801
vt -3.002451 -1.883141
vt -4.752712 -3.572141
vt -6.621542 -1.732506
vt 1.884981 5.014943
vt -0.168463 5.014943
vt -0.168463 7.616456
vt 1.884981 7.616456
vt -0.168463 0.862015
vt -0.659376 0.862015
vt -0.659376 3.782526
vt -0.168463 3.782526
vt -0.659376 5.014943
vt -0.659376 7.616456
vt -0.937456 5.014943
vt -0.937456 7.616456
vt -0.659376 -1.883141
vt -0.659376 -2.739699
vt -0.937455 -2.739699
vt -0.937456 -1.883141
vt 1.884980 -5.138719
vt -0.168463 -5.138666
vt -0.168463 -4.654402
vt 1.884981 -4.654402
vt -0.168463 -1.883141
vt -0.168463 -2.736278
vt 1.884981 -2.736278
vt 1.884981 0.862015
vt 1.884981 3.782526
vt 4.615989 -2.736278
vt 5.546331 -2.736278
vt 5.546331 -4.654401
vt 4.615989 -4.654402
vt -6.621542 -2.818735
vt -5.866692 -3.572141
vt -3.002451 -0.048801
vt -3.901845 -0.048801
vt -0.659376 -4.654402
vt -0.168463 -0.048801
vt -0.659376 -0.048801
vt 1.884981 -0.048801
vt -0.937455 -4.654402
vt -2.180813 7.616531
vt -3.019188 7.616456
vt -3.025777 5.014755
vt -2.187400 5.014826
vt -0.937455 -0.048801
vt 1.884981 -1.883141
vt 5.551673 3.785045
vt 5.551673 0.862015
vt 2.631444 4.744665
vt 4.615989 -0.048801
vt 5.551673 -0.048801
vt -3.019188 5.014943
vt -6.879416 5.014943
vt -6.879414 7.616456
vt -3.019188 7.616456
vt 4.615989 -1.883141
vt 5.551675 -1.883141
vt 2.631444 7.616456
vt 2.356305 -0.048801
vt 4.615989 4.744665
vt 2.356305 -2.736278
vt 2.356303 -4.654402
vt 2.356305 -1.883141
vt -0.937456 3.782526
vt -0.937456 0.862015
vt -1.506851 3.782480
vt -0.937456 3.782526
vt -0.937456 5.014943
vt -1.506850 5.014892
vt -2.187408 0.861914
vt -3.025790 0.861848
vt -3.009007 -0.048958
vt -2.177464 -0.048897
vt -3.019188 0.862015
vt -1.502151 -0.048846
vt -1.502153 -1.883182
vt -0.937456 -1.883141
vt -0.937455 -0.048801
vt -2.177473 -1.883233
vt -3.009018 -1.883293
vt -3.009021 -2.739856
vt -2.177474 -2.739795
vt -2.187403 3.782420
vt -3.025783 3.782349
vt -0.930872 7.616646
vt -1.500263 7.616591
vt -0.937456 0.862015
vt -1.506852 0.861969
vt -1.502153 -2.739745
vt -0.937455 -2.739699
vt -1.730776 -3.186443
vt -1.730826 -2.511123
vt -1.878147 -2.511123
vt -1.878145 -3.186443
vt -1.898937 -2.511123
vt -1.898938 -3.186443
vt -1.892912 -3.186443
vt -1.892911 -2.511123
vt -1.892911 -2.511123
vt -1.892912 -3.186443
vt -1.882515 -3.186443
vt -1.882516 -2.511123
vt -1.882516 -2.511123
vt -1.882515 -3.186443
vt -1.878145 -3.186443
vt -1.878147 -2.511123
vt -1.898938 -3.186443
vt -1.898937 -2.511123
vt -1.954024 -2.511123
vt -1.954025 -3.186443
vt 0.000000 0.000000
vt 0.000000 0.000000
vt 0.000000 0.000000
vt 0.000000 0.000000
vt 0.000000 0.000000
vt 0.000000 0.000000
vt 0.000000 0.000000
vt 0.000000 0.000000
vt 0.000000 0.000000
vt 0.000000 0.000000
vt 0.000000 0.000000
vt 0.000000 0.000000
vt 0.000000 0.000000
vt 0.000000 0.000000
f 1/1/1 2/2/2 3/3/3
f 1/1/1 3/3/3 4/4/4
f 5/5/5 6/6/6 7/7/7
f 5/5/5 7/7/7 8/8/8
f 9/9/9 2/2/2 1/1/1
f 9/9/9 1/1/1 10/10/10
f 11/11/11 12/12/12 13/13/13
f 11/11/11 13/13/13 14/14/14
f 15/15/15 16/16/16 17/17/17
f 15/15/15 17/17/17 18/18/18
f 19/19/19 20/20/20 21/21/21
f 19/19/19 21/21/21 22/22/22
f 23/23/23 24/24/24 25/25/25
f 23/23/23 25/25/25 26/26/26
f 2/2/2 9/9/9 27/27/27
f 2/2/2 27/27/27 28/28/28
f 29/29/29 30/30/30 31/31/31
f 29/29/29 31/31/31 32/32/32
f 33/33/33 34/34/34 30/30/30
f 33/33/33 30/30/30 29/29/29
f 35/35/35 23/23/23 26/26/26
f 35/35/35 26/26/26 36/36/36
f 37/37/37 38/38/38 39/39/39
f 37/37/37 39/39/39 40/40/40
f 3/3/3 2/2/2 28/28/28
f 3/3/3 28/28/28 41/41/41
f 42/42/42 43/43/43 44/44/44
f 42/42/42 44/44/44 45/45/45
f 46/46/46 38/38/38 37/37/37
f 46/46/46 37/37/37 47/47/47
f 23/23/23 48/48/48 49/49/49
f 23/23/23 49/49/49 24/24/24
f 50/50/50 51/51/51 52/52/52
f 50/50/50 52/52/52 53/53/53
f 54/54/54 55/55/55 56/56/56
f 54/54/54 56/56/56 57/57/57
f 58/58/58 59/59/59 60/60/60
f 58/58/58 60/60/60 61/61/61
f 62/62/62 63/63/63 64/64/64
f 62/62/62 64/64/64 65/65/65
f 59/59/59 66/66/66 67/67/67
f 59/59/59 67/67/67 60/60/60
f 68/68/68 69/69/69 67/67/67
f 68/68/68 67/67/67 66/66/66
f 70/70/70 71/71/71 72/72/72
f 70/70/70 72/72/72 73/73/73
f 74/74/74 75/75/75 76/76/76
f 74/74/74 76/76/76 77/77/77
f 78/78/78 79/79/79 71/71/71
f 78/78/78 71/71/71 70/70/70
f 77/77/77 76/76/76 79/79/79
f 77/77/77 79/79/79 80/80/80
f 53/53/53 52/52/52 81/81/81
f 53/53/53 81/81/81 82/82/82
f 83/83/83 84/84/84 85/85/85
f 83/83/83 85/85/85 86/86/86
f 87/87/87 57/57/57 56/56/56
f 87/87/87 56/56/56 88/88/88
f 89/89/89 55/55/55 54/54/54
f 89/89/89 54/54/54 90/90/90
f 66/66/66 59/59/59 65/65/65
f 66/66/66 65/65/65 64/64/64
f 76/76/76 91/91/91 71/71/71
f 76/76/76 71/71/71 79/79/79
f 92/92/92 93/93/93 63/63/63
f 92/92/92 63/63/63 62/62/62
f 62/62/62 81/81/81 94/94/94
f 62/62/62 94/94/94 92/92/92
f 71/71/71 91/91/91 95/95/95
f 71/71/71 95/95/95 72/72/72
f 91/91/91 76/76/76 75/75/75
f 96/96/96 97/97/97 98/98/98
f 96/96/96 98/98/98 99/99/99
f 93/93/93 70/70/70 73/73/73
f 93/93/93 73/73/73 100/100/100
f 80/80/80 79/79/79 78/78/78
f 80/80/80 78/78/78 101/101/101
f 102/102/102 103/103/103 51/51/51
f 102/102/102 51/51/51 50/50/50
f 58/58/58 104/104/104 53/53/53
f 58/58/58 53/53/53 82/82/82
f 105/105/105 51/51/51 103/103/103
f 105/105/105 103/103/103 106/106/106
f 107/107/107 108/108/108 109/109/109
f 107/107/107 109/109/109 110/110/110
f 111/111/111 112/112/112 84/84/84
f 111/111/111 84/84/84 83/83/83
f 113/113/113 104/104/104 58/58/58
f 113/113/113 58/58/58 61/61/61
f 114/114/114 52/52/52 51/51/51
f 114/114/114 51/51/51 105/105/105
f 115/115/115 50/50/50 53/53/53
f 115/115/115 53/53/53 104/104/104
f 116/116/116 83/83/83 86/86/86
f 116/116/116 86/86/86 117/117/117
f 105/105/105 111/111/111 118/118/118
f 105/105/105 118/118/118 114/114/114
f 118/118/118 111/111/111 83/83/83
f 118/118/118 83/83/83 116/116/116
f 80/80/80 101/101/101 118/118/118
f 80/80/80 118/118/118 116/116/116
f 105/105/105 106/106/106 112/112/112
f 105/105/105 112/112/112 111/111/111
f 62/62/62 65/65/65 82/82/82
f 62/62/62 82/82/82 81/81/81
f 101/101/101 78/78/78 92/92/92
f 101/101/101 92/92/92 94/94/94
f 80/80/80 116/116/116 117/117/117
f 80/80/80 117/117/117 77/77/77
f 59/59/59 58/58/58 82/82/82
f 59/59/59 82/82/82 65/65/65
f 117/117/117 74/74/74 77/77/77
f 50/50/50 115/115/115 102/102/102
f 68/68/68 66/66/66 64/64/64
f 68/68/68 64/64/64 119/119/119
f 93/93/93 100/100/100 120/120/120
f 93/93/93 120/120/120 63/63/63
f 81/81/81 52/52/52 114/114/114
f 81/81/81 114/114/114 94/94/94
f 114/114/114 118/118/118 101/101/101
f 114/114/114 101/101/101 94/94/94
f 92/92/92 78/78/78 70/70/70
f 92/92/92 70/70/70 93/93/93
f 121/121/121 122/122/122 123/123/123
f 121/121/121 123/123/123 124/124/124
f 125/125/125 126/126/126 127/127/127
f 125/125/125 127/127/127 128/128/128
f 90/90/90 129/129/129 89/89/89
f 130/130/130 131/131/131 132/132/132
f 130/130/130 132/132/132 133/133/133
f 134/134/134 135/135/135 136/136/136
f 134/134/134 136/136/136 137/137/137
f 64/64/64 63/63/63 120/120/120
f 64/64/64 120/120/120 119/119/119
f 138/138/138 139/139/139 126/126/126
f 138/138/138 126/126/126 125/125/125
f 140/140/140 141/141/141 124/124/124
f 140/140/140 124/124/124 123/123/123
f 138/138/138 121/121/121 124/124/124
f 138/138/138 124/124/124 99/99/99
f 142/142/142 143/143/143 130/130/130
f 142/142/142 130/130/130 133/133/133
f 128/128/128 134/134/134 131/131/131
f 128/128/128 131/131/131 130/130/130
f 132/132/132 131/131/131 144/144/144
f 132/132/132 144/144/144 145/145/145
f 122/122/122 121/121/121 143/143/143
f 122/122/122 143/143/143 142/142/142
f 141/141/141 96/96/96 99/99/99
f 141/141/141 99/99/99 124/124/124
f 143/143/143 125/125/125 128/128/128
f 143/143/143 128/128/128 130/130/130
f 131/131/131 134/134/134 137/137/137
f 131/131/131 137/137/137 144/144/144
f 121/121/121 138/138/138 125/125/125
f 121/121/121 125/125/125 143/143/143
f 139/139/139 138/138/138 99/99/99
f 139/139/139 99/99/99 98/98/98
f 127/127/127 135/135/135 134/134/134
f 127/127/127 134/134/134 128/128/128
f 146/146/146 147/147/147 148/148/148
f 146/146/146 148/148/148 149/149/149
f 150/150/150 151/151/151 152/152/152
f 150/150/150 152/152/152 153/153/153
f 154/154/154 155/155/155 156/156/156
f 154/154/154 156/156/156 157/157/157
f 158/158/158 159/159/159 160/160/160
f 158/158/158 160/160/160 161/161/161
f 162/162/162 163/163/163 164/164/164
f 162/162/162 164/164/164 165/165/165
