v 0.630050 2.510111 -12.085718
v 0.630050 2.510111 -8.855847
v 3.071623 2.510112 -8.855847
v 3.071623 2.510112 -12.085718
v 4.121897 2.510112 -7.773611
v 4.094023 2.510112 -8.855847
v 4.010825 2.510112 -12.085718
v 4.094023 2.510112 -8.855847
v 3.071623 2.510112 -8.855847
v 3.071623 2.510112 -12.085718
v -4.287056 5.631027 3.419630
v -4.546854 5.631027 3.419630
v -4.546854 5.631027 1.004958
v -4.287056 5.631027 1.004958
v 0.973516 5.631027 4.236948
v 4.892134 5.631027 4.236948
v 4.613154 5.631027 3.995148
v 0.973516 5.631027 3.995148
v 4.613154 5.631027 3.419629
v 0.648442 5.631027 3.430950
v 4.892134 5.631027 -13.442719
v 4.613154 5.631027 -12.956135
v 4.613154 5.631027 0.966668
v 0.475033 5.631027 3.995148
v 0.475033 5.631027 3.430950
v 4.323460 5.631027 -12.486103
v 4.323460 5.631027 0.966668
v -13.412266 5.631027 -8.235365
v -13.412264 5.631027 -8.476686
v -12.408573 5.631027 -8.476686
v -12.073794 5.631027 -8.235365
v -12.408573 5.631027 -13.491158
v -12.073794 5.631027 -12.956133
v 0.648442 5.631027 2.993474
v 4.613154 5.631027 2.993474
v 0.648442 5.631027 0.966668
v -1.489330 5.631027 -12.956135
v -1.489330 5.631027 -12.486103
v -14.023062 5.631027 -8.235365
v -14.023062 5.631027 -8.476686
v -0.431953 5.631027 3.995150
v 0.157884 5.631027 3.430950
v -0.335900 5.631027 3.962325
v -11.802380 5.631027 -12.492300
v -12.073794 5.631027 -12.956133
v -12.073794 5.631027 -8.235365
v -11.802380 5.631027 -8.235367
v 0.475033 5.631027 3.229349
v -4.287056 5.631027 3.989672
v -4.546854 5.631027 3.989672
v -3.817566 5.631027 3.419630
v -3.817566 5.631027 3.989672
v -3.196762 5.631027 3.989672
v -4.546853 5.783234 4.043509
v -1.807897 8.407486 4.043509
v -1.807897 8.407486 4.204960
v -4.546853 5.783234 4.204960
v -1.807897 8.407486 4.204960
v -1.807897 8.407486 4.043509
v 0.931061 5.764359 4.043507
v 0.931061 5.764359 4.204960
v -3.378189 5.631027 -13.466101
v -3.378189 5.631027 -12.956133
v -1.489330 5.631027 -12.956135
v -1.489330 5.631027 -13.460264
v 4.892134 5.631027 -13.442719
v 4.613154 5.631027 -12.956135
v -3.378189 5.631027 -12.492300
v -3.378189 5.631027 -12.956133
v -8.835501 6.214505 2.062120
v -7.784903 6.214505 1.008178
v -7.626313 6.267214 1.199323
v -8.747873 6.267214 2.260201
v -10.403914 6.214504 2.062120
v -8.835501 6.214505 2.062120
v -8.747873 6.267214 2.260201
v -10.483534 6.267214 2.260090
v -11.476236 6.214504 0.994802
v -10.403914 6.214504 2.062120
v -10.483534 6.267214 2.260090
v -11.683686 6.267214 1.078738
v -11.476236 6.214504 -0.549763
v -11.476236 6.214504 0.994802
v -11.683686 6.267214 1.078738
v -11.683684 6.267214 -0.650004
v -10.404009 6.214504 -1.619652
v -11.476236 6.214504 -0.549763
v -11.683684 6.267214 -0.650004
v -10.604042 6.267214 -1.732653
v -10.404009 6.214504 -1.619652
v -10.604042 6.267214 -1.732653
v -10.604042 6.267214 -3.384264
v -10.404009 6.214504 -3.268007
v -7.626313 6.267214 1.199323
v -7.784903 6.214505 1.008178
v -4.287057 6.214506 1.004958
v -4.287057 6.267214 1.199325
v -13.277138 2.336636 1.766527
v -11.142518 2.336635 3.906203
v -10.934721 2.515551 3.615874
v -12.881422 2.535586 1.596966
v -9.227080 2.515551 3.615874
v -10.934721 2.515551 3.615874
v -10.403915 2.515551 2.062119
v -8.832628 2.515551 2.062119
v -12.881422 2.535586 1.596966
v -11.476236 2.515551 0.994802
v -10.403915 2.515551 2.062119
v -10.934721 2.515551 3.615874
v -11.142518 2.336635 3.906203
v -10.934721 2.515551 3.615874
v -9.227080 2.515551 3.615874
v -9.381498 2.336635 3.906203
v -6.386347 2.515551 2.062119
v -7.784904 2.515551 1.013611
v -6.386347 2.515551 1.013611
v -13.277138 2.336636 1.766527
v -13.277138 2.336636 -0.549763
v -12.881422 2.535586 -0.549763
v -12.881422 2.535586 1.596966
v -12.881422 2.535586 1.596966
v -12.881422 2.535586 -0.549763
v -11.476236 2.515551 -0.549763
v -11.476236 2.515551 0.994802
v -11.476236 2.515551 -2.202379
v -11.476236 2.515551 -2.689634
v -10.404010 2.515551 -2.689634
v -10.404010 2.515551 -2.436979
v -13.277138 2.336636 -0.549763
v -13.274857 2.336636 -2.202379
v -12.881422 2.535586 -2.202379
v -12.881422 2.535586 -0.549763
v -12.881422 2.535586 -2.202379
v -11.476236 2.515551 -2.202379
v -11.476236 2.515551 -0.549763
v -10.404010 2.515551 -1.619653
v -13.274857 2.336636 -2.202379
v -12.881422 2.535586 -2.689634
v -12.881422 2.535586 -2.202379
v -12.881422 2.535586 -2.689634
v -11.476236 2.515551 -2.689634
v -6.859371 2.336635 3.906203
v -6.353916 2.515551 3.615874
v -6.379685 2.515551 5.054513
v -6.859371 2.336635 5.054513
v -4.287057 2.336635 5.408432
v -4.287057 2.515551 5.054513
v -3.922020 2.336635 5.054513
v -3.922020 2.336635 5.408432
v -6.353916 2.515551 3.615874
v -4.287057 2.515551 3.419629
v -4.287057 2.515551 5.054513
v -6.379685 2.515551 5.054513
v -6.353916 2.515551 3.615874
v -6.859371 2.336635 3.906203
v -6.379685 2.515551 5.054513
v -4.287057 2.515551 5.054513
v -4.287057 2.336635 5.408432
v -6.387627 2.336635 5.408432
v -4.287057 2.515551 5.054513
v -4.287057 2.515551 3.419629
v -3.922020 2.336635 3.419629
v -3.922020 2.336635 5.054513
v -4.287057 2.515551 2.062119
v -4.287057 2.515551 1.013611
v -6.859371 2.336635 5.054513
v -6.379685 2.515551 5.054513
v -6.387627 2.336635 5.408432
v -6.859371 2.336635 5.408432
v -13.412266 5.631027 -7.125550
v -14.023062 5.631027 -6.528961
v -13.457319 5.631027 -3.268006
v -13.457319 5.631027 -2.998760
v -14.023062 5.631027 -2.998760
v -14.023062 5.631027 -3.268006
v -10.404008 5.631027 -3.268006
v -10.404008 5.631027 -2.998760
v -14.023062 5.631027 -4.955123
v -13.457319 5.631027 -4.343688
v -14.052614 8.343220 -5.737718
v -14.221426 8.343220 -5.737718
v -14.221430 5.764359 -2.998760
v -14.052616 5.764359 -2.998759
v -14.052614 8.343220 -5.737718
v -14.221426 8.343220 -5.737718
v -14.221430 5.764359 -8.476675
v -14.052616 5.764359 -8.476676
v -14.023062 5.631027 -8.476686
v -14.023062 5.631027 -8.235365
v -14.023062 5.631027 -6.528961
vn -0.000000 1.000000 0.000000
vn -0.000000 1.000000 0.000000
vn -0.000000 1.000000 0.000000
vn -0.000000 1.000000 0.000000
vn -0.000000 1.000000 0.000000
vn -0.000000 1.000000 0.000000
vn 0.000000 -1.000000 0.000000
vn 0.000000 -1.000000 0.000000
vn 0.000000 -1.000000 0.000000
vn 0.000000 -1.000000 0.000000
vn 0.000000 -1.000000 0.000000
vn 0.000000 -1.000000 0.000000
vn 0.000000 -1.000000 0.000000
vn 0.000000 -1.000000 0.000000
vn -0.000000 1.000000 0.000000
vn -0.000000 1.000000 0.000000
vn -0.000000 1.000000 0.000000
vn -0.000000 1.000000 0.000000
vn -0.000000 1.000000 0.000000
vn -0.000000 1.000000 0.000000
vn -0.000000 1.000000 0.000000
vn -0.000000 1.000000 0.000000
vn -0.000000 1.000000 0.000000
vn -0.000000 1.000000 0.000000
vn -0.000000 1.000000 0.000000
vn -0.000000 1.000000 0.000000
vn -0.000000 1.000000 0.000000
vn 0.000000 -1.000000 0.000000
vn 0.000000 -1.000000 0.000000
vn 0.000000 -1.000000 0.000000
vn 0.000000 -1.000000 0.000000
vn 0.000000 -1.000000 0.000000
vn 0.000000 -1.000000 0.000000
vn -0.000000 1.000000 0.000000
vn -0.000000 1.000000 0.000000
vn -0.000000 1.000000 0.000000
vn -0.000000 1.000000 0.000000
vn -0.000000 1.000000 0.000000
vn 0.000000 -1.000000 0.000000
vn 0.000000 -1.000000 0.000000
vn -0.000000 1.000000 0.000000
vn -0.000000 1.000000 0.000000
vn -0.000000 1.000000 0.000000
vn -0.000000 1.000000 0.000000
vn -0.000000 1.000000 0.000000
vn -0.000000 1.000000 0.000000
vn -0.000000 1.000000 0.000000
vn -0.000000 1.000000 0.000000
vn 0.000000 -1.000000 0.000000
vn 0.000000 -1.000000 0.000000
vn 0.000000 -1.000000 0.000000
vn 0.000000 -1.000000 0.000000
vn 0.000000 -1.000000 0.000000
vn 0.691800 -0.722100 0.000000
vn 0.691800 -0.722100 0.000000
vn 0.691800 -0.722100 0.000000
vn 0.691800 -0.722100 0.000000
vn -0.694400 -0.719600 0.000000
vn -0.694400 -0.719600 0.000000
vn -0.694400 -0.719600 0.000000
vn -0.694400 -0.719600 0.000000
vn 0.000000 -1.000000 0.000000
vn 0.000000 -1.000000 0.000000
vn 0.000000 -1.000000 0.000000
vn 0.000000 -1.000000 0.000000
vn 0.000000 -1.000000 0.000000
vn 0.000000 -1.000000 0.000000
vn -0.000000 1.000000 0.000000
vn -0.000000 1.000000 0.000000
vn 0.158900 -0.973700 0.163200
vn 0.158900 -0.973700 0.163200
vn 0.158900 -0.973700 0.163200
vn 0.158900 -0.973700 0.163200
vn -0.000000 -0.966400 0.257200
vn -0.000000 -0.966400 0.257200
vn -0.000000 -0.966400 0.257200
vn -0.000000 -0.966400 0.257200
vn -0.178300 -0.967300 0.180200
vn -0.178300 -0.967300 0.180200
vn -0.178300 -0.967300 0.180200
vn -0.178300 -0.967300 0.180200
vn -0.246300 -0.969200 -0.000000
vn -0.246300 -0.969200 -0.000000
vn -0.246300 -0.969200 -0.000000
vn -0.246300 -0.969200 -0.000000
vn -0.165200 -0.972400 -0.165100
vn -0.165200 -0.972400 -0.165100
vn -0.165200 -0.972400 -0.165100
vn -0.165200 -0.972400 -0.165100
vn -0.254800 -0.967000 0.000000
vn -0.254800 -0.967000 0.000000
vn -0.254800 -0.967000 0.000000
vn -0.254800 -0.967000 0.000000
vn 0.000100 -0.964600 0.263700
vn 0.000100 -0.964600 0.263700
vn 0.000100 -0.964600 0.263700
vn 0.000100 -0.964600 0.263700
vn -0.318200 0.893600 0.316600
vn -0.318200 0.893600 0.316600
vn -0.318200 0.893600 0.316600
vn -0.318200 0.893600 0.316600
vn 0.000000 -1.000000 0.000000
vn 0.000000 -1.000000 0.000000
vn 0.000000 -1.000000 0.000000
vn 0.000000 -1.000000 0.000000
vn -0.008400 -1.000000 0.001700
vn -0.008400 -1.000000 0.001700
vn -0.008400 -1.000000 0.001700
vn -0.008400 -1.000000 0.001700
vn 0.000000 -0.851300 -0.524600
vn 0.000000 -0.851300 -0.524600
vn 0.000000 -0.851300 -0.524600
vn 0.000000 -0.851300 -0.524600
vn 0.000000 -1.000000 0.000000
vn 0.000000 -1.000000 0.000000
vn 0.000000 -1.000000 0.000000
vn 0.449200 -0.893400 0.000000
vn 0.449200 -0.893400 0.000000
vn 0.449200 -0.893400 0.000000
vn 0.449200 -0.893400 0.000000
vn -0.014300 -0.999900 0.000000
vn -0.014300 -0.999900 0.000000
vn -0.014300 -0.999900 0.000000
vn -0.014300 -0.999900 0.000000
vn 0.000000 -1.000000 0.000000
vn 0.000000 -1.000000 0.000000
vn 0.000000 -1.000000 0.000000
vn 0.000000 -1.000000 0.000000
vn 0.450200 -0.892900 0.000300
vn 0.450200 -0.892900 0.000300
vn 0.450200 -0.892900 0.000300
vn 0.450200 -0.892900 0.000300
vn -0.014300 -0.999900 0.000000
vn -0.014300 -0.999900 0.000000
vn 0.000000 -1.000000 0.000000
vn 0.000000 -1.000000 0.000000
vn 0.451300 -0.892400 0.000000
vn 0.451300 -0.892400 0.000000
vn 0.451300 -0.892400 0.000000
vn -0.014300 -0.999900 0.000000
vn -0.014300 -0.999900 0.000000
vn 0.342300 -0.939600 0.003400
vn 0.342300 -0.939600 0.003400
vn 0.342300 -0.939600 0.003400
vn 0.342300 -0.939600 0.003400
vn -0.231200 -0.943300 -0.238400
vn -0.231200 -0.943300 -0.238400
vn -0.231200 -0.943300 -0.238400
vn -0.231200 -0.943300 -0.238400
vn 0.000000 -1.000000 0.000000
vn 0.000000 -1.000000 0.000000
vn 0.000000 -1.000000 0.000000
vn 0.000000 -1.000000 0.000000
vn 0.000000 -0.851300 -0.524600
vn 0.000000 -0.851300 -0.524600
vn 0.000000 -0.892400 -0.451200
vn 0.000000 -0.892400 -0.451200
vn 0.000000 -0.892400 -0.451200
vn 0.000000 -0.892400 -0.451200
vn -0.440100 -0.897900 0.000000
vn -0.440100 -0.897900 0.000000
vn -0.440100 -0.897900 0.000000
vn -0.440100 -0.897900 0.000000
vn 0.000000 -1.000000 0.000000
vn 0.000000 -1.000000 0.000000
vn 0.179400 -0.954200 -0.239200
vn 0.179400 -0.954200 -0.239200
vn 0.179400 -0.954200 -0.239200
vn 0.179400 -0.954200 -0.239200
vn 0.000000 -1.000000 0.000000
vn 0.000000 -1.000000 0.000000
vn 0.000000 -1.000000 0.000000
vn 0.000000 -1.000000 0.000000
vn 0.000000 -1.000000 0.000000
vn 0.000000 -1.000000 0.000000
vn 0.000000 -1.000000 0.000000
vn 0.000000 -1.000000 0.000000
vn 0.000000 -1.000000 0.000000
vn 0.000000 -1.000000 0.000000
vn -0.000000 0.728100 0.685500
vn -0.000000 0.728100 0.685500
vn -0.000000 0.728100 0.685500
vn -0.000000 0.728100 0.685500
vn 0.000000 -0.728100 0.685500
vn 0.000000 -0.728100 0.685500
vn 0.000000 -0.728100 0.685500
vn 0.000000 -0.728100 0.685500
vn 0.000000 0.000000 1.000000
vn 0.000000 0.000000 1.000000
vn 0.000000 0.000000 1.000000
vt 0.000000 0.000000
vt 0.000000 0.000000
vt 0.000000 0.000000
vt 0.000000 0.000000
vt 0.000000 0.000000
vt 0.000000 0.000000
vt 0.000000 0.000000
vt 0.000000 0.000000
vt 0.000000 0.000000
vt 0.000000 0.000000
vt 0.000000 0.000000
vt 0.000000 0.000000
vt 0.000000 0.000000
vt 0.000000 0.000000
vt 0.000000 0.000000
vt 0.000000 0.000000
vt 0.000000 0.000000
vt 0.000000 0.000000
vt 0.000000 0.000000
vt 0.000000 0.000000
vt 0.000000 0.000000
vt 0.000000 0.000000
vt 0.000000 0.000000
vt 0.000000 0.000000
vt 0.000000 0.000000
vt 0.000000 0.000000
vt 0.000000 0.000000
vt 0.000000 0.000000
vt 0.000000 0.000000
vt 0.000000 0.000000
vt 0.000000 0.000000
vt 0.000000 0.000000
vt 0.000000 0.000000
vt 0.000000 0.000000
vt 0.000000 0.000000
vt 0.000000 0.000000
vt 0.000000 0.000000
vt 0.000000 0.000000
vt 0.000000 0.000000
vt 0.000000 0.000000
vt 0.000000 0.000000
vt 0.000000 0.000000
vt 0.000000 0.000000
vt 0.000000 0.000000
vt 0.000000 0.000000
vt 0.000000 0.000000
vt 0.000000 0.000000
vt 0.000000 0.000000
vt 0.000000 0.000000
vt 0.000000 0.000000
vt 0.000000 0.000000
vt 0.000000 0.000000
vt 0.000000 0.000000
vt 0.000000 0.000000
vt 0.000000 0.000000
vt 0.000000 0.000000
vt 0.000000 0.000000
vt 0.000000 0.000000
vt 0.000000 0.000000
vt 0.000000 0.000000
vt 0.000000 0.000000
vt 0.000000 0.000000
vt 0.000000 0.000000
vt 0.000000 0.000000
vt 0.000000 0.000000
vt 0.000000 0.000000
vt 0.000000 0.000000
vt 0.000000 0.000000
vt 0.000000 0.000000
vt 0.000000 0.000000
vt 0.000000 0.000000
vt 0.000000 0.000000
vt 0.000000 0.000000
vt 0.000000 0.000000
vt 0.000000 0.000000
vt 0.000000 0.000000
vt 0.000000 0.000000
vt 0.000000 0.000000
vt 0.000000 0.000000
vt 0.000000 0.000000
vt 0.000000 0.000000
vt 0.000000 0.000000
vt 0.000000 0.000000
vt 0.000000 0.000000
vt 0.000000 0.000000
vt 0.000000 0.000000
vt 0.000000 0.000000
vt 0.000000 0.000000
vt 0.000000 0.000000
vt 0.000000 0.000000
vt 0.000000 0.000000
vt 0.000000 0.000000
vt 0.000000 0.000000
vt 0.000000 0.000000
vt 0.000000 0.000000
vt 0.000000 0.000000
vt 0.000000 0.000000
vt 0.000000 0.000000
vt 0.000000 0.000000
vt 0.000000 0.000000
vt 0.000000 0.000000
vt 0.000000 0.000000
vt 0.000000 0.000000
vt 0.000000 0.000000
vt 0.000000 0.000000
vt 0.000000 0.000000
vt 0.000000 0.000000
vt 0.000000 0.000000
vt 0.000000 0.000000
vt 0.000000 0.000000
vt 0.000000 0.000000
vt 0.000000 0.000000
vt 0.000000 0.000000
vt 0.000000 0.000000
vt 0.000000 0.000000
vt 0.000000 0.000000
vt 0.000000 0.000000
vt 0.000000 0.000000
vt 0.000000 0.000000
vt 0.000000 0.000000
vt 0.000000 0.000000
vt 0.000000 0.000000
vt 0.000000 0.000000
vt 0.000000 0.000000
vt 0.000000 0.000000
vt 0.000000 0.000000
vt 0.000000 0.000000
vt 0.000000 0.000000
vt 0.000000 0.000000
vt 0.000000 0.000000
vt 0.000000 0.000000
vt 0.000000 0.000000
vt 0.000000 0.000000
vt 0.000000 0.000000
vt 0.000000 0.000000
vt 0.000000 0.000000
vt 0.000000 0.000000
vt 0.000000 0.000000
vt 0.000000 0.000000
vt 0.000000 0.000000
vt 0.000000 0.000000
vt 0.000000 0.000000
vt 0.000000 0.000000
vt 0.000000 0.000000
vt 0.000000 0.000000
vt 0.000000 0.000000
vt 0.000000 0.000000
vt 0.000000 0.000000
vt 0.000000 0.000000
vt 0.000000 0.000000
vt 0.000000 0.000000
vt 0.000000 0.000000
vt 0.000000 0.000000
vt 0.000000 0.000000
vt 0.000000 0.000000
vt 0.000000 0.000000
vt 0.000000 0.000000
vt 0.000000 0.000000
vt 0.000000 0.000000
vt 0.000000 0.000000
vt 0.000000 0.000000
vt 0.000000 0.000000
vt 0.000000 0.000000
vt 0.000000 0.000000
vt 0.000000 0.000000
vt 0.000000 0.000000
vt 0.000000 0.000000
vt 0.000000 0.000000
vt 0.000000 0.000000
vt 0.000000 0.000000
vt 0.000000 0.000000
vt 0.000000 0.000000
vt 0.000000 0.000000
vt 0.000000 0.000000
vt 0.000000 0.000000
vt 0.000000 0.000000
vt 0.000000 0.000000
vt 0.000000 0.000000
vt 0.000000 0.000000
vt 0.000000 0.000000
vt 0.000000 0.000000
vt 0.000000 0.000000
vt 0.000000 0.000000
vt 0.000000 0.000000
vt 0.000000 0.000000
vt 0.000000 0.000000
vt 0.000000 0.000000
vt 0.000000 0.000000
vt 0.000000 0.000000
vt 0.000000 0.000000
f 1/1/1 2/2/2 3/3/3
f 1/1/1 3/3/3 4/4/4
f 5/5/5 6/6/6 3/3/3
f 7/7/7 8/8/8 9/9/9
f 7/7/7 9/9/9 10/10/10
f 11/11/11 12/12/12 13/13/13
f 11/11/11 13/13/13 14/14/14
f 15/15/15 16/16/16 17/17/17
f 15/15/15 17/17/17 18/18/18
f 18/18/18 17/17/17 19/19/19
f 18/18/18 19/19/19 20/20/20
f 17/17/17 16/16/16 21/21/21
f 17/17/17 21/21/21 22/22/22
f 17/17/17 22/22/22 23/23/23
f 24/24/24 18/18/18 20/20/20
f 24/24/24 20/20/20 25/25/25
f 23/23/23 22/22/22 26/26/26
f 23/23/23 26/26/26 27/27/27
f 28/28/28 29/29/29 30/30/30
f 28/28/28 30/30/30 31/31/31
f 31/31/31 30/30/30 32/32/32
f 31/31/31 32/32/32 33/33/33
f 34/34/34 35/35/35 23/23/23
f 34/34/34 23/23/23 36/36/36
f 26/26/26 22/22/22 37/37/37
f 26/26/26 37/37/37 38/38/38
f 39/39/39 40/40/40 29/29/29
f 39/39/39 29/29/29 28/28/28
f 20/20/20 19/19/19 35/35/35
f 20/20/20 35/35/35 34/34/34
f 41/41/41 24/24/24 25/25/25
f 41/41/41 25/25/25 42/42/42
f 41/41/41 42/42/42 43/43/43
f 44/44/44 45/45/45 46/46/46
f 44/44/44 46/46/46 47/47/47
f 25/25/25 20/20/20 34/34/34
f 25/25/25 34/34/34 48/48/48
f 49/49/49 50/50/50 12/12/12
f 49/49/49 12/12/12 11/11/11
f 49/49/49 11/11/11 51/51/51
f 49/49/49 51/51/51 52/52/52
f 52/52/52 51/51/51 53/53/53
f 54/54/54 55/55/55 56/56/56
f 54/54/54 56/56/56 57/57/57
f 58/58/58 59/59/59 60/60/60
f 58/58/58 60/60/60 61/61/61
f 33/33/33 32/32/32 62/62/62
f 33/33/33 62/62/62 63/63/63
f 64/64/64 65/65/65 66/66/66
f 64/64/64 66/66/66 67/67/67
f 68/68/68 69/69/69 45/45/45
f 68/68/68 45/45/45 44/44/44
f 63/63/63 62/62/62 65/65/65
f 63/63/63 65/65/65 64/64/64
f 70/70/70 71/71/71 72/72/72
f 70/70/70 72/72/72 73/73/73
f 74/74/74 75/75/75 76/76/76
f 74/74/74 76/76/76 77/77/77
f 78/78/78 79/79/79 80/80/80
f 78/78/78 80/80/80 81/81/81
f 82/82/82 83/83/83 84/84/84
f 82/82/82 84/84/84 85/85/85
f 86/86/86 87/87/87 88/88/88
f 86/86/86 88/88/88 89/89/89
f 90/90/90 91/91/91 92/92/92
f 90/90/90 92/92/92 93/93/93
f 94/94/94 95/95/95 96/96/96
f 94/94/94 96/96/96 97/97/97
f 98/98/98 99/99/99 100/100/100
f 98/98/98 100/100/100 101/101/101
f 102/102/102 103/103/103 104/104/104
f 102/102/102 104/104/104 105/105/105
f 106/106/106 107/107/107 108/108/108
f 106/106/106 108/108/108 109/109/109
f 110/110/110 111/111/111 112/112/112
f 110/110/110 112/112/112 113/113/113
f 114/114/114 105/105/105 115/115/115
f 114/114/114 115/115/115 116/116/116
f 117/117/117 118/118/118 119/119/119
f 117/117/117 119/119/119 120/120/120
f 121/121/121 122/122/122 123/123/123
f 121/121/121 123/123/123 124/124/124
f 125/125/125 126/126/126 127/127/127
f 125/125/125 127/127/127 128/128/128
f 129/129/129 130/130/130 131/131/131
f 129/129/129 131/131/131 132/132/132
f 122/122/122 133/133/133 134/134/134
f 122/122/122 134/134/134 123/123/123
f 135/135/135 125/125/125 128/128/128
f 135/135/135 128/128/128 136/136/136
f 137/137/137 138/138/138 139/139/139
f 133/133/133 140/140/140 141/141/141
f 133/133/133 141/141/141 134/134/134
f 142/142/142 143/143/143 144/144/144
f 142/142/142 144/144/144 145/145/145
f 146/146/146 147/147/147 148/148/148
f 146/146/146 148/148/148 149/149/149
f 150/150/150 151/151/151 152/152/152
f 150/150/150 152/152/152 153/153/153
f 150/150/150 102/102/102 105/105/105
f 150/150/150 105/105/105 114/114/114
f 113/113/113 112/112/112 154/154/154
f 113/113/113 154/154/154 155/155/155
f 156/156/156 157/157/157 158/158/158
f 156/156/156 158/158/158 159/159/159
f 160/160/160 161/161/161 162/162/162
f 160/160/160 162/162/162 163/163/163
f 151/151/151 150/150/150 114/114/114
f 151/151/151 114/114/114 164/164/164
f 164/164/164 114/114/114 116/116/116
f 164/164/164 116/116/116 165/165/165
f 166/166/166 167/167/167 168/168/168
f 166/166/166 168/168/168 169/169/169
f 39/39/39 28/28/28 170/170/170
f 39/39/39 170/170/170 171/171/171
f 172/172/172 173/173/173 174/174/174
f 172/172/172 174/174/174 175/175/175
f 176/176/176 177/177/177 173/173/173
f 176/176/176 173/173/173 172/172/172
f 172/172/172 175/175/175 178/178/178
f 172/172/172 178/178/178 179/179/179
f 180/180/180 181/181/181 182/182/182
f 180/180/180 182/182/182 183/183/183
f 184/184/184 185/185/185 186/186/186
f 184/184/184 186/186/186 187/187/187
f 188/188/188 189/189/189 190/190/190
