v 1.463799 4.052805 -4.650869
v 1.466875 4.052805 -4.664193
v 1.484020 4.052805 -4.660234
v 1.472372 4.052805 -4.648890
v 1.463752 4.025854 -4.650667
v 1.463752 4.052409 -4.650667
v 1.472326 4.052409 -4.648687
v 1.472326 4.025854 -4.648687
v 1.466935 4.052805 -4.664454
v 1.484081 4.052805 -4.660496
v 1.463752 4.052805 -4.650667
v 1.472326 4.052805 -4.648687
v 1.463752 4.025443 -4.650667
v 1.472326 4.025443 -4.648687
v 1.484020 4.052410 -4.660234
v 1.472372 4.052410 -4.648890
v 1.484081 4.052410 -4.660496
v 1.484020 4.025854 -4.660234
v 1.472372 4.025854 -4.648890
v 1.484081 4.025854 -4.660496
v 1.484020 4.025443 -4.660234
v 1.472372 4.025443 -4.648890
v 1.484081 4.025443 -4.660496
v 1.466875 4.025443 -4.664193
v 1.463799 4.025443 -4.650869
v 1.466935 4.052409 -4.664454
v 1.466935 4.025854 -4.664454
v 1.466935 4.025443 -4.664454
vn 0.000000 -1.000000 0.000400
vn 0.000000 -1.000000 0.000300
vn -0.663100 -0.648900 -0.373200
vn -0.549200 -0.776500 -0.308800
vn 0.225000 0.000000 -0.974400
vn 0.225000 0.000000 -0.974400
vn -0.530000 0.000000 -0.848000
vn -0.530000 0.000000 -0.848000
vn -0.158900 -0.706900 0.689200
vn -0.692400 -0.577300 0.432800
vn 0.159100 -0.707400 -0.688600
vn -0.432900 -0.577500 -0.692100
vn 0.159000 0.707100 -0.688900
vn -0.432800 0.577300 -0.692300
vn -0.871300 0.000000 -0.490700
vn -0.871500 0.000000 -0.490400
vn -0.848100 0.000000 0.529700
vn -0.871300 0.000000 -0.490700
vn -0.871500 0.000000 -0.490400
vn -0.848100 0.000000 0.529700
vn -0.663100 0.648900 -0.373100
vn -0.549200 0.776500 -0.309000
vn -0.692400 0.577200 0.432900
vn 0.000000 1.000000 0.000300
vn 0.000000 1.000000 0.000000
vn -0.224900 -0.000000 0.974400
vn -0.225000 -0.000000 0.974400
vn -0.159000 0.706900 0.689200
vt 0.000000 0.000000
vt 0.000000 0.000000
vt 0.000000 0.000000
vt 0.000000 0.000000
vt 0.000000 0.000000
vt 0.000000 0.000000
vt 0.000000 0.000000
vt 0.000000 0.000000
vt 0.000000 0.000000
vt 0.000000 0.000000
vt 0.000000 0.000000
vt 0.000000 0.000000
vt 0.000000 0.000000
vt 0.000000 0.000000
vt 0.000000 0.000000
vt 0.000000 0.000000
vt 0.000000 0.000000
vt 0.000000 0.000000
vt 0.000000 0.000000
vt 0.000000 0.000000
vt 0.000000 0.000000
vt 0.000000 0.000000
vt 0.000000 0.000000
vt 0.000000 0.000000
vt 0.000000 0.000000
vt 0.000000 0.000000
vt 0.000000 0.000000
vt 0.000000 0.000000
f 1/1/1 2/2/2 3/3/3
f 1/1/1 3/3/3 4/4/4
f 5/5/5 6/6/6 7/7/7
f 5/5/5 7/7/7 8/8/8
f 2/2/2 9/9/9 10/10/10
f 2/2/2 10/10/10 3/3/3
f 6/6/6 11/11/11 12/12/12
f 6/6/6 12/12/12 7/7/7
f 13/13/13 5/5/5 8/8/8
f 13/13/13 8/8/8 14/14/14
f 11/11/11 1/1/1 4/4/4
f 11/11/11 4/4/4 12/12/12
f 4/4/4 3/3/3 15/15/15
f 4/4/4 15/15/15 16/16/16
f 3/3/3 10/10/10 17/17/17
f 3/3/3 17/17/17 15/15/15
f 16/16/16 15/15/15 18/18/18
f 16/16/16 18/18/18 19/19/19
f 15/15/15 17/17/17 20/20/20
f 15/15/15 20/20/20 18/18/18
f 19/19/19 18/18/18 21/21/21
f 19/19/19 21/21/21 22/22/22
f 18/18/18 20/20/20 23/23/23
f 18/18/18 23/23/23 21/21/21
f 24/24/24 25/25/25 22/22/22
f 24/24/24 22/22/22 21/21/21
f 26/26/26 27/27/27 20/20/20
f 26/26/26 20/20/20 17/17/17
f 28/28/28 23/23/23 20/20/20
f 28/28/28 20/20/20 27/27/27
f 13/13/13 14/14/14 22/22/22
f 13/13/13 22/22/22 25/25/25
f 17/17/17 10/10/10 9/9/9
f 17/17/17 9/9/9 26/26/26
f 21/21/21 23/23/23 28/28/28
f 21/21/21 28/28/28 24/24/24
f 12/12/12 4/4/4 16/16/16
f 12/12/12 16/16/16 7/7/7
f 7/7/7 16/16/16 19/19/19
f 7/7/7 19/19/19 8/8/8
f 8/8/8 19/19/19 22/22/22
f 8/8/8 22/22/22 14/14/14
