v 1.364339 4.124125 -6.091255
v 1.364339 4.124125 -5.153966
v 1.364339 4.799037 -5.153966
v 1.364339 4.799037 -6.091255
v 1.364339 4.124125 -5.153966
v 4.121979 4.119308 -5.153966
v 4.121979 4.778759 -5.153966
v 1.364339 4.799037 -5.153966
vn -1.000000 0.000000 0.000000
vn -1.000000 0.000000 0.000000
vn -1.000000 0.000000 0.000000
vn -1.000000 0.000000 0.000000
vn -0.000000 0.000000 1.000000
vn -0.000000 0.000000 1.000000
vn -0.000000 0.000000 1.000000
vn -0.000000 0.000000 1.000000
vt -0.397253 -0.104851
vt 0.103261 -0.104851
vt 0.103261 0.292179
vt -0.397253 0.292178
vt 0.109130 -0.104851
vt 1.797880 -0.107684
vt 1.797880 0.280252
vt 0.109130 0.292179
f 1/1/1 2/2/2 3/3/3
f 1/1/1 3/3/3 4/4/4
f 5/5/5 6/6/6 7/7/7
f 5/5/5 7/7/7 8/8/8
