v -14.038824 -0.457160 -2.706753
v -14.038824 -1.166731 -2.706753
v -14.038824 -1.166731 -3.324570
v -14.038824 -0.457160 -3.324570
v -14.038824 -0.457160 -8.215431
v -13.850517 -0.457160 -8.215431
v -13.850517 -1.166731 -8.215431
v -14.038824 -1.166731 -8.215431
v -3.349505 -1.166731 -12.470328
v -3.349505 -0.457159 -12.470328
v -11.779312 -0.457160 -12.470327
v -11.779312 -1.166731 -12.470327
v 4.299127 -1.166731 -7.641861
v 4.292423 -1.166731 3.411326
v 4.292423 -0.457159 3.411326
v 4.299127 -0.457159 -7.641861
v -11.779312 -1.166731 -12.470327
v -11.779312 -0.457160 -12.470327
v -11.779312 -0.457160 -8.950933
v -11.779312 -1.166731 -8.950933
v 4.292423 -1.166731 3.411326
v 0.157886 -1.166731 3.411327
v 0.157886 -0.457160 3.411327
v 4.292423 -0.457159 3.411326
v 0.157886 -1.166731 3.411327
v -0.431953 -1.166731 4.023884
v -0.431953 -0.457160 4.023884
v 0.157886 -0.457160 3.411327
v -3.817566 -1.166731 3.374462
v -3.196762 -1.166731 4.023884
v -3.196762 -0.457160 4.023884
v -3.817566 -0.457160 3.374462
v -0.431953 -1.166731 4.023884
v -3.196762 -1.166731 4.023884
v -3.196762 -0.457160 4.023884
v -0.431953 -0.457160 4.023884
v -1.521598 -1.166731 -12.470328
v 0.673543 -1.166731 -12.470328
v 0.673543 -0.457158 -12.470328
v -1.521598 -0.457158 -12.470328
v -3.349505 -1.166731 -12.953833
v -1.521598 -1.166731 -12.953833
v -1.521598 -0.457158 -12.953833
v -3.349505 -0.457159 -12.953833
v -1.521598 -1.166731 -12.953833
v -1.521598 -1.166731 -12.470328
v -1.521598 -0.457158 -12.470328
v -1.521598 -0.457158 -12.953833
v -3.349505 -1.166731 -12.470328
v -3.349505 -1.166731 -12.953833
v -3.349505 -0.457159 -12.953833
v -3.349505 -0.457159 -12.470328
v -14.038824 -1.166731 -8.950933
v -11.779312 -1.166731 -8.950933
v -11.779312 -0.457160 -8.950933
v -14.038824 -0.457160 -8.950933
v -14.038824 -1.166731 -8.215431
v -14.038824 -1.166731 -8.950933
v -14.038824 -0.457160 -8.950933
v -14.038824 -0.457160 -8.215431
v -14.038824 -0.457160 -3.324570
v -14.038824 -1.166731 -3.324570
v -13.850517 -1.166731 -3.324570
v -13.850517 -0.457160 -3.324570
v -14.038824 -1.166731 -2.706753
v -14.038824 -0.457160 -2.706753
v -13.419622 -0.457160 -2.706753
v -13.419622 -1.166731 -2.706753
v -3.817566 -0.457160 -2.706753
v -3.817566 -1.166731 -2.706753
v -3.817566 -1.166731 3.374462
v -3.817566 -0.457160 3.374462
v -3.817566 -0.457160 -2.706753
v -3.817566 -1.166731 -2.706753
vn 1.000000 0.000000 0.000000
vn 1.000000 0.000000 0.000000
vn 1.000000 0.000000 0.000000
vn 1.000000 0.000000 0.000000
vn 0.000000 0.000000 -1.000000
vn 0.000000 0.000000 -1.000000
vn 0.000000 0.000000 -1.000000
vn 0.000000 0.000000 -1.000000
vn 0.000000 0.000000 1.000000
vn 0.000000 0.000000 1.000000
vn 0.000000 0.000000 1.000000
vn 0.000000 0.000000 1.000000
vn -1.000000 0.000000 -0.000600
vn -1.000000 0.000000 -0.000600
vn -1.000000 0.000000 -0.000600
vn -1.000000 0.000000 -0.000600
vn 1.000000 0.000000 0.000000
vn 1.000000 0.000000 0.000000
vn 1.000000 0.000000 0.000000
vn 1.000000 0.000000 0.000000
vn 0.000000 0.000000 -1.000000
vn 0.000000 0.000000 -1.000000
vn 0.000000 0.000000 -1.000000
vn 0.000000 0.000000 -1.000000
vn -0.720300 0.000000 -0.693600
vn -0.720300 0.000000 -0.693600
vn -0.720300 0.000000 -0.693600
vn -0.720300 0.000000 -0.693600
vn -0.722900 0.000000 0.691000
vn -0.722900 0.000000 0.691000
vn -0.722900 0.000000 0.691000
vn -0.722900 0.000000 0.691000
vn 0.000000 0.000000 -1.000000
vn 0.000000 0.000000 -1.000000
vn 0.000000 0.000000 -1.000000
vn 0.000000 0.000000 -1.000000
vn 0.000000 0.000000 1.000000
vn 0.000000 0.000000 1.000000
vn 0.000000 0.000000 1.000000
vn 0.000000 0.000000 1.000000
vn 0.000000 0.000000 1.000000
vn 0.000000 0.000000 1.000000
vn 0.000000 0.000000 1.000000
vn 0.000000 0.000000 1.000000
vn -1.000000 0.000000 0.000000
vn -1.000000 0.000000 0.000000
vn -1.000000 0.000000 0.000000
vn -1.000000 0.000000 0.000000
vn 1.000000 0.000000 0.000000
vn 1.000000 0.000000 0.000000
vn 1.000000 0.000000 0.000000
vn 1.000000 0.000000 0.000000
vn 0.000000 0.000000 1.000000
vn 0.000000 0.000000 1.000000
vn 0.000000 0.000000 1.000000
vn 0.000000 0.000000 1.000000
vn 1.000000 0.000000 0.000000
vn 1.000000 0.000000 0.000000
vn 1.000000 0.000000 0.000000
vn 1.000000 0.000000 0.000000
vn 0.000000 0.000000 1.000000
vn 0.000000 0.000000 1.000000
vn 0.000000 0.000000 1.000000
vn 0.000000 0.000000 1.000000
vn 0.000000 0.000000 -1.000000
vn 0.000000 0.000000 -1.000000
vn 0.000000 0.000000 -1.000000
vn 0.000000 0.000000 -1.000000
vn 0.000000 0.000000 -1.000000
vn 0.000000 0.000000 -1.000000
vn -1.000000 0.000000 0.000000
vn -1.000000 0.000000 0.000000
vn -1.000000 0.000000 0.000000
vn -1.000000 0.000000 0.000000
vt -7.802361 0.208335
vt -7.802361 -0.253681
vt -7.376384 -0.253682
vt -7.376382 0.208333
vt -5.830525 0.207775
vt -5.965690 0.207615
vt -5.965140 -0.260376
vt -5.829976 -0.260217
vt 4.199241 -0.254279
vt 4.199306 0.214020
vt -1.453171 0.212389
vt -1.452837 -0.255730
vt -6.996524 -0.253682
vt 1.593128 -0.254933
vt 1.593070 0.207067
vt -6.996340 0.208333
vt -1.452837 -0.255730
vt -1.453171 0.212389
vt -3.804646 0.210127
vt -3.804126 -0.257876
vt 1.593128 -0.254933
vt 4.813151 -0.254313
vt 4.813037 0.207705
vt 1.593070 0.207067
vt 4.813151 -0.254313
vt 5.502165 -0.254180
vt 5.502063 0.207850
vt 4.813037 0.207705
vt 8.346684 -0.253700
vt 7.659831 -0.253817
vt 7.659736 0.208218
vt 8.346591 0.208332
vt 5.502165 -0.254180
vt 7.659831 -0.253817
vt 7.659736 0.208218
vt 5.502063 0.207850
vt 6.093520 -0.254719
vt 7.515801 -0.255152
vt 7.515948 0.213154
vt 6.093647 0.213596
vt 4.510498 -0.254338
vt 5.778088 -0.254636
vt 5.778204 0.213679
vt 4.510592 0.213970
vt 5.778088 -0.254636
vt 6.093520 -0.254719
vt 6.093647 0.213596
vt 5.778204 0.213679
vt 4.199241 -0.254279
vt 4.510498 -0.254338
vt 4.510592 0.213970
vt 4.199306 0.214020
vt -5.312829 -0.259607
vt -3.804126 -0.257876
vt -3.804646 0.210127
vt -5.313375 0.208384
vt -5.829976 -0.260217
vt -5.312829 -0.259607
vt -5.313375 0.208384
vt -5.830525 0.207775
vt -7.376382 0.208333
vt -7.376384 -0.253682
vt -7.096203 -0.253683
vt -7.096202 0.208333
vt -7.802361 -0.253681
vt -7.802361 0.208335
vt -8.226665 0.208337
vt -8.226665 -0.253680
vt -8.226665 0.208337
vt -8.226665 -0.253680
vt 0.000000 0.000000
vt 8.346591 0.208332
vt 0.000000 0.000000
vt -8.226665 0.208337
f 1/1/1 2/2/2 3/3/3
f 1/1/1 3/3/3 4/4/4
f 5/5/5 6/6/6 7/7/7
f 5/5/5 7/7/7 8/8/8
f 9/9/9 10/10/10 11/11/11
f 9/9/9 11/11/11 12/12/12
f 13/13/13 14/14/14 15/15/15
f 13/13/13 15/15/15 16/16/16
f 17/17/17 18/18/18 19/19/19
f 17/17/17 19/19/19 20/20/20
f 21/21/21 22/22/22 23/23/23
f 21/21/21 23/23/23 24/24/24
f 25/25/25 26/26/26 27/27/27
f 25/25/25 27/27/27 28/28/28
f 29/29/29 30/30/30 31/31/31
f 29/29/29 31/31/31 32/32/32
f 33/33/33 34/34/34 35/35/35
f 33/33/33 35/35/35 36/36/36
f 37/37/37 38/38/38 39/39/39
f 37/37/37 39/39/39 40/40/40
f 41/41/41 42/42/42 43/43/43
f 41/41/41 43/43/43 44/44/44
f 45/45/45 46/46/46 47/47/47
f 45/45/45 47/47/47 48/48/48
f 49/49/49 50/50/50 51/51/51
f 49/49/49 51/51/51 52/52/52
f 53/53/53 54/54/54 55/55/55
f 53/53/53 55/55/55 56/56/56
f 57/57/57 58/58/58 59/59/59
f 57/57/57 59/59/59 60/60/60
f 61/61/61 62/62/62 63/63/63
f 61/61/61 63/63/63 64/64/64
f 65/65/65 66/66/66 67/67/67
f 65/65/65 67/67/67 68/68/68
f 68/68/68 67/67/67 69/69/69
f 68/68/68 69/69/69 70/70/70
f 71/71/71 72/72/72 73/73/73
f 71/71/71 73/73/73 74/74/74
