v -10.279749 2.983803 -6.927208
v -7.719980 2.983802 -6.927208
v -7.719980 2.983803 -8.167244
v -10.453801 2.983803 -8.167244
v -10.964951 2.983803 -5.046036
v -10.964951 2.983803 -6.423205
v -11.600458 2.983803 -6.423205
v -11.600458 2.983803 -5.046037
v -7.716875 2.983802 0.675401
v -7.719980 2.983802 -0.413346
v -9.596786 2.983802 0.197500
v -8.910959 2.983801 1.860519
v -10.319908 2.983802 1.860519
v -10.797268 2.983802 0.697145
v -7.719980 2.983803 -1.465519
v -5.467961 2.983803 -0.413346
v -5.467961 2.983803 -1.465519
v -3.733761 2.983803 0.797201
v -3.733761 2.983803 -1.337663
v -4.085581 2.983803 -1.337663
v -4.085581 2.983803 0.797201
v -0.712696 2.983803 2.786040
v -0.515691 2.983801 3.841908
v 0.514048 2.983801 2.786040
v -7.719980 2.983803 -4.513114
v -10.279749 2.983803 -4.513114
v -10.279749 2.983802 -3.354958
v -7.719980 2.983803 -3.354462
v -7.574387 2.983802 0.811984
v -5.467961 2.983803 0.811984
v -5.467961 2.983803 0.672541
v -0.713720 2.983803 -2.782772
v -0.712696 2.983803 -1.337663
v 0.514045 2.983803 -1.337453
v 0.514525 2.983803 -2.782772
v -7.719980 2.983803 -6.423205
v -5.467963 2.983802 -6.423205
v -5.463282 2.983802 -7.404541
v -4.337436 2.983803 0.672541
v -4.337436 2.983803 0.811984
v -4.337436 2.983803 -1.465519
v -4.337436 2.983803 -0.413346
v 3.154570 2.983803 -6.423205
v 4.121980 2.983803 -6.423205
v 4.121980 2.983803 -7.441573
v 3.154570 2.983803 -7.441573
v 0.638707 2.983804 -8.638355
v -0.569962 2.983803 -7.441573
v 0.584212 2.983803 -7.441573
v -3.112860 2.983803 0.797201
v -3.112860 2.983803 -1.337663
v -3.112860 2.983803 2.786040
v -3.733761 2.983803 2.786040
v -3.733761 2.983801 3.229350
v -3.112860 2.983802 3.841841
v -4.085581 2.983803 2.786040
v -4.085467 2.983801 3.229350
v -0.712696 2.983803 0.797201
v -10.282616 2.983803 -1.481658
v -11.274630 2.983802 -0.466229
v -4.258759 2.983803 -7.441573
v -5.458596 2.983803 -8.622725
v -0.715689 2.983803 -6.423205
v 0.539472 2.983803 -6.423205
v -10.279749 2.983803 -6.423205
v -10.279749 2.983803 -5.046036
v -7.719980 2.983803 -5.046035
v 0.514045 2.983802 0.797201
v -11.274630 2.983802 0.907621
v -5.467962 2.983803 -3.886478
v -13.266844 2.983803 -5.046037
v -13.255747 2.983799 -4.513112
v -11.600458 2.983803 -4.513112
v -4.337436 2.983803 -4.513114
v -4.337436 2.983803 -5.478024
v -5.467962 2.983803 -5.478024
v -5.467962 2.983803 -4.513114
v 1.190666 2.983803 -5.486976
v 1.208496 2.983803 -6.423205
v 0.515450 2.983803 -5.478024
v 3.154570 2.983803 -3.799211
v 4.121980 2.983803 -3.799211
v 4.121980 2.983803 -5.525642
v 3.154570 2.983803 -5.512753
v 1.275729 2.983803 -8.642256
v 1.241704 2.983803 -7.441573
v 1.189623 2.983803 -1.339993
v 1.189623 2.983803 0.797324
v -4.337436 2.983803 -3.886186
v -7.719980 2.983803 -9.165737
v -5.462854 2.983803 -9.165737
v -5.462854 2.983803 -12.290682
v -7.719980 2.983803 -12.290684
v -0.772789 2.983803 -6.423205
v -0.772789 2.983803 -5.478024
v -0.715689 2.983803 -5.478024
v -11.600458 2.983803 -6.927208
v -13.255716 2.983800 -6.927211
v -13.266844 2.983803 -6.423205
v -10.964951 2.983803 -4.513113
v -10.964951 2.983803 -6.927208
v -10.964951 2.983804 -8.167243
v -11.600458 2.983803 -3.354958
v -13.255749 2.983803 -3.354958
v -10.964951 2.983802 -3.354958
v 1.282153 2.983803 -12.290684
v 0.638707 2.983803 -12.290684
v -7.719980 2.983803 -8.645247
v -10.453844 2.983803 -8.645247
v -4.060490 2.983803 -5.478024
v -1.921380 2.983803 -5.478024
v -1.921380 2.983803 -6.423205
v -4.060490 2.983803 -6.423205
v -4.337436 2.983803 -6.423205
v -4.060490 2.928567 -5.220170
v -4.060490 2.729717 -5.220170
v -1.921380 2.729717 -5.220170
v -1.921380 2.928567 -5.220170
v -0.772789 2.983803 -7.441573
v -1.921380 2.983803 -7.441573
v -4.060490 2.983803 -7.747709
v -1.921380 2.983803 -7.747709
v -1.921380 2.729717 -7.747709
v -4.060490 2.729717 -7.747709
v -4.060490 2.983803 -5.220170
v -1.921380 2.983803 -5.220170
v -4.337436 2.928567 -5.220170
v -4.337436 2.729717 -5.220170
v -4.060490 2.983803 -7.441573
v -1.921380 2.983803 -7.747709
v -4.060490 2.983803 -7.747709
v -0.772789 2.983803 -7.747709
v -0.772789 2.729717 -7.747709
v -0.772789 2.983803 -7.747709
v -4.337436 2.983803 -5.220170
v -0.714449 2.934567 -3.799211
v -0.715689 2.934567 -5.478024
v -0.715689 2.729718 -5.478024
v -0.714449 2.729718 -3.799211
v -0.714449 2.983803 -3.799211
v -0.715689 2.983803 -5.478024
v -0.715689 2.934567 -5.478024
v -0.714449 2.934567 -3.799211
v 2.231179 2.983803 -6.423205
v 2.247871 2.983803 -7.441573
v 2.222000 2.983803 -3.799211
v 2.222218 2.983803 -5.499796
v 4.121980 2.983803 -8.641093
v 3.154570 2.983803 -8.641481
v 4.121980 2.983803 -1.350965
v 3.154570 2.983803 -1.347307
v 3.154570 2.983803 0.797678
v 4.121980 2.983804 0.797854
v 4.121980 2.983803 -12.290684
v 3.154570 2.983803 -12.290684
v -0.714449 2.983803 -3.799211
v 0.514868 2.983803 -3.799211
v 4.121980 2.983803 -2.782772
v 3.154570 2.983803 -2.782772
v -0.712696 2.934567 -1.337663
v -0.713720 2.934567 -2.782772
v -0.713720 2.729718 -2.782772
v -0.712696 2.729718 -1.337663
v -0.712696 2.983803 -1.337663
v -0.713720 2.983803 -2.782772
v -0.713720 2.934567 -2.782772
v -0.712696 2.934567 -1.337663
v 2.221693 2.983803 -1.343631
v 2.221872 2.983803 -2.782772
v -0.713720 2.934567 -2.782772
v 2.264973 2.983803 -8.641870
v 2.221693 2.983803 0.797500
v 2.268202 2.983803 -12.290684
v 1.190235 2.983803 -3.799211
v 1.189980 2.983803 -2.782772
v 1.189623 2.983803 0.966669
v 2.221693 2.983803 0.966845
v -11.043283 2.983803 -12.290682
v -11.043283 2.983803 -9.165737
v -10.453884 2.983803 -9.165737
v -10.454131 2.983803 -12.290682
v -5.462854 2.983803 -8.645247
v -11.600780 2.983804 -8.167243
v -11.600782 2.983803 -12.290682
v -11.600782 2.983804 -9.165737
v -10.785075 2.983803 -8.933910
v -4.060490 2.983803 -5.220170
v -4.060490 2.928567 -5.220170
v -1.921380 2.928567 -5.220170
v -1.921380 2.983803 -5.220170
v -4.337436 2.983803 -5.220170
v -4.337436 2.928567 -5.220170
vn 0.000000 1.000000 0.000000
vn 0.000000 1.000000 0.000000
vn 0.000000 1.000000 0.000000
vn 0.000000 1.000000 0.000000
vn 0.000000 1.000000 0.000000
vn 0.000000 1.000000 0.000000
vn 0.000000 1.000000 0.000000
vn 0.000000 1.000000 0.000000
vn 0.000000 1.000000 0.000000
vn 0.000000 1.000000 0.000000
vn 0.000000 1.000000 0.000000
vn 0.000000 1.000000 0.000000
vn 0.000000 1.000000 0.000000
vn 0.000000 1.000000 0.000000
vn 0.000000 1.000000 0.000000
vn 0.000000 1.000000 0.000000
vn 0.000000 1.000000 0.000000
vn 0.000000 1.000000 0.000000
vn 0.000000 1.000000 0.000000
vn 0.000000 1.000000 0.000000
vn 0.000000 1.000000 0.000000
vn 0.000000 1.000000 0.000000
vn 0.000000 1.000000 0.000000
vn 0.000000 1.000000 0.000000
vn 0.000000 1.000000 0.000000
vn 0.000000 1.000000 0.000000
vn 0.000000 1.000000 0.000000
vn 0.000000 1.000000 0.000000
vn 0.000000 1.000000 0.000000
vn 0.000000 1.000000 0.000000
vn 0.000000 1.000000 0.000000
vn 0.000000 1.000000 0.000000
vn 0.000000 1.000000 0.000000
vn 0.000000 1.000000 0.000000
vn 0.000000 1.000000 0.000000
vn 0.000000 1.000000 0.000000
vn 0.000000 1.000000 0.000000
vn 0.000000 1.000000 0.000000
vn 0.000000 1.000000 0.000000
vn 0.000000 1.000000 0.000000
vn 0.000000 1.000000 0.000000
vn 0.000000 1.000000 0.000000
vn 0.000000 1.000000 0.000000
vn 0.000000 1.000000 0.000000
vn 0.000000 1.000000 0.000000
vn 0.000000 1.000000 0.000000
vn 0.000000 1.000000 0.000000
vn 0.000000 1.000000 0.000000
vn 0.000000 1.000000 0.000000
vn 0.000000 1.000000 0.000000
vn 0.000000 1.000000 0.000000
vn 0.000000 1.000000 0.000000
vn 0.000000 1.000000 0.000000
vn 0.000000 1.000000 0.000000
vn 0.000000 1.000000 0.000000
vn 0.000000 1.000000 0.000000
vn 0.000000 1.000000 0.000000
vn 0.000000 1.000000 0.000000
vn 0.000000 1.000000 0.000000
vn 0.000000 1.000000 0.000000
vn 0.000000 1.000000 0.000000
vn 0.000000 1.000000 0.000000
vn 0.000000 1.000000 0.000000
vn 0.000000 1.000000 0.000000
vn 0.000000 1.000000 0.000000
vn 0.000000 1.000000 0.000000
vn 0.000000 1.000000 0.000000
vn 0.000000 1.000000 0.000000
vn 0.000000 1.000000 0.000000
vn 0.000000 1.000000 0.000000
vn 0.000000 1.000000 0.000000
vn 0.000000 1.000000 0.000000
vn 0.000000 1.000000 0.000000
vn 0.000000 1.000000 0.000000
vn 0.000000 1.000000 0.000000
vn 0.000000 1.000000 0.000000
vn 0.000000 1.000000 0.000000
vn 0.000000 1.000000 0.000000
vn 0.000000 1.000000 0.000000
vn 0.000000 1.000000 0.000000
vn 0.000000 1.000000 0.000000
vn 0.000000 1.000000 0.000000
vn 0.000000 1.000000 0.000000
vn 0.000000 1.000000 0.000000
vn 0.000000 1.000000 0.000000
vn 0.000000 1.000000 0.000000
vn 0.000000 1.000000 0.000000
vn 0.000000 1.000000 0.000000
vn 0.000000 1.000000 0.000000
vn 0.000000 1.000000 0.000000
vn 0.000000 1.000000 0.000000
vn 0.000000 1.000000 0.000000
vn 0.000000 1.000000 0.000000
vn 0.000000 1.000000 0.000000
vn 0.000000 1.000000 0.000000
vn 0.000000 1.000000 0.000000
vn 0.000000 1.000000 0.000000
vn 0.000000 1.000000 0.000000
vn 0.000000 1.000000 0.000000
vn 0.000000 1.000000 0.000000
vn 0.000000 1.000000 0.000000
vn 0.000000 1.000000 0.000000
vn 0.000000 1.000000 0.000000
vn 0.000000 1.000000 0.000000
vn 0.000000 1.000000 0.000000
vn 0.000000 1.000000 0.000000
vn 0.000000 1.000000 0.000000
vn 0.000000 1.000000 0.000000
vn 0.000000 1.000000 0.000000
vn 0.000000 1.000000 0.000000
vn 0.000000 1.000000 0.000000
vn 0.000000 1.000000 0.000000
vn 0.000000 1.000000 0.000000
vn 0.000000 1.000000 0.000000
vn 0.000000 0.000000 1.000000
vn 0.000000 0.000000 1.000000
vn 0.000000 0.000000 1.000000
vn 0.000000 0.000000 1.000000
vn 0.000000 1.000000 0.000000
vn 0.000000 1.000000 0.000000
vn 0.000000 0.000000 -1.000000
vn 0.000000 0.000000 -1.000000
vn 0.000000 0.000000 -1.000000
vn 0.000000 0.000000 -1.000000
vn 0.000000 1.000000 0.000000
vn 0.000000 1.000000 0.000000
vn 0.000000 0.000000 1.000000
vn 0.000000 0.000000 1.000000
vn 0.000000 1.000000 0.000000
vn 0.000000 1.000000 0.000000
vn 0.000000 1.000000 0.000000
vn 0.000000 0.000000 -1.000000
vn 0.000000 0.000000 -1.000000
vn 0.000000 1.000000 0.000000
vn 0.000000 1.000000 0.000000
vn -1.000000 0.000000 0.000700
vn -1.000000 0.000000 0.000700
vn -1.000000 0.000000 0.000700
vn -1.000000 0.000000 0.000700
vn -1.000000 0.000000 0.000700
vn -1.000000 0.000000 0.000700
vn -1.000000 0.000000 0.000700
vn -1.000000 0.000000 0.000700
vn 0.000000 1.000000 0.000000
vn 0.000000 1.000000 0.000000
vn 0.000000 1.000000 0.000000
vn 0.000000 1.000000 0.000000
vn 0.000000 1.000000 0.000000
vn 0.000000 1.000000 0.000000
vn 0.000000 1.000000 0.000000
vn 0.000000 1.000000 0.000000
vn 0.000000 1.000000 0.000000
vn 0.000000 1.000000 0.000000
vn 0.000000 1.000000 0.000000
vn 0.000000 1.000000 0.000000
vn 0.000000 1.000000 0.000000
vn 0.000000 1.000000 0.000000
vn 0.000000 1.000000 0.000000
vn 0.000000 1.000000 0.000000
vn -1.000000 0.000000 0.000700
vn -1.000000 0.000000 0.000700
vn -1.000000 0.000000 0.000700
vn -1.000000 0.000000 0.000700
vn -1.000000 0.000000 0.000700
vn -1.000000 0.000000 0.000700
vn -1.000000 0.000000 0.000700
vn -1.000000 0.000000 0.000700
vn 0.000000 1.000000 0.000000
vn 0.000000 1.000000 0.000000
vn -1.000000 0.000000 0.000700
vn 0.000000 1.000000 0.000000
vn 0.000000 1.000000 0.000000
vn 0.000000 1.000000 0.000000
vn 0.000000 1.000000 0.000000
vn 0.000000 1.000000 0.000000
vn 0.000000 1.000000 0.000000
vn 0.000000 1.000000 0.000000
vn 0.000000 1.000000 0.000000
vn 0.000000 1.000000 0.000000
vn 0.000000 1.000000 0.000000
vn 0.000000 1.000000 0.000000
vn 0.000000 1.000000 0.000000
vn 0.000000 1.000000 0.000000
vn 0.000000 1.000000 0.000000
vn 0.000000 1.000000 0.000000
vn 0.000000 1.000000 0.000000
vn 0.000000 0.000000 1.000000
vn 0.000000 0.000000 1.000000
vn 0.000000 0.000000 1.000000
vn 0.000000 0.000000 1.000000
vn 0.000000 0.000000 1.000000
vn 0.000000 0.000000 1.000000
vt 2.443422 5.489108
vt 2.443420 3.570476
vt 3.372867 3.570475
vt 3.372869 5.619566
vt 1.033420 6.002692
vt 2.065654 6.002690
vt 2.065654 6.479023
vt 1.033420 6.479024
vt -3.254991 3.568154
vt -2.438939 3.570481
vt -2.896787 4.977210
vt -4.143276 4.463160
vt -4.143275 5.519214
vt -3.271287 5.877011
vt -1.650300 3.570480
vt -2.438941 1.882516
vt -1.650301 1.882516
vt -3.346287 0.582676
vt -1.746135 0.582674
vt -1.746135 0.846375
vt -3.346287 0.846376
vt -4.836990 -1.681712
vt -5.628399 -1.829372
vt -4.836991 -2.601198
vt 0.633974 3.570478
vt 0.633976 5.489110
vt -0.234101 5.489110
vt -0.234473 3.570479
vt -3.357365 3.461354
vt -3.357366 1.882517
vt -3.252848 1.882517
vt -0.662979 -1.680946
vt -1.746136 -1.681715
vt -1.746295 -2.601197
vt -0.662980 -2.601559
vt 2.065651 3.570477
vt 2.065650 1.882514
vt 2.801195 1.879004
vt -3.252849 1.035151
vt -3.357367 1.035151
vt -1.650302 1.035149
vt -2.438941 1.035150
vt 2.065644 -4.580363
vt 2.065643 -5.305470
vt 2.828944 -5.305470
vt 2.828945 -4.580364
vt 3.725975 -2.694641
vt 2.828947 -1.788701
vt 2.828947 -2.653795
vt -3.346288 0.117290
vt -1.746135 0.117288
vt -4.836988 0.117291
vt -4.836988 0.582677
vt -5.169264 0.582677
vt -5.628348 0.117292
vt -4.836988 0.846378
vt -5.169264 0.846294
vt -3.346290 -1.681713
vt -1.638201 5.491261
vt -2.399298 6.234809
vt 2.828950 0.976174
vt 3.714264 1.875493
vt 2.065647 -1.679475
vt 2.065646 -2.620261
vt 2.065653 5.489109
vt 1.033420 5.489110
vt 1.033416 3.570477
vt -3.346290 -2.601196
vt -3.429046 6.234810
vt 0.164289 1.882515
vt 1.033421 7.728037
vt 0.633976 7.719719
vt 0.633975 6.479025
vt 0.633972 1.035147
vt 1.357206 1.035146
vt 1.357207 1.882514
vt 0.633973 1.882515
vt 1.363911 -3.108351
vt 2.065645 -3.121715
vt 1.357203 -2.602253
vt 0.098873 -4.580361
vt 0.098873 -5.305468
vt 1.392890 -5.305469
vt 1.383231 -4.580363
vt 3.728899 -3.172110
vt 2.828946 -3.146607
vt -1.744391 -3.107568
vt -3.346381 -3.107566
vt 0.164069 1.035148
vt 4.121272 3.570474
vt 4.121269 1.878682
vt 6.463521 1.878680
vt 6.463523 3.570472
vt 2.065647 -1.636676
vt 1.357204 -1.636675
vt 1.357204 -1.679474
vt 2.443423 6.479023
vt 2.443425 7.719695
vt 2.065655 7.728036
vt 0.633976 6.002692
vt 2.443423 6.002690
vt 3.372869 6.002690
vt -0.234100 6.479026
vt -0.234099 7.719721
vt -0.234101 6.002692
vt 6.463517 -3.176929
vt 6.463518 -2.694643
vt 3.731147 3.570475
vt 3.731149 5.619597
vt 1.357206 0.827566
vt 1.357204 -0.775768
vt 2.065647 -0.775769
vt 2.065649 0.827566
vt 2.065649 1.035146
vt 1.277327 0.827567
vt 1.094638 0.827567
vt 1.094637 -0.775768
vt 1.277326 -0.775768
vt 2.828948 -1.636676
vt 2.828948 -0.775769
vt 2.987163 0.827565
vt 2.987162 -0.775770
vt 2.781598 -0.775770
vt 2.781599 0.827565
vt 1.163934 0.827567
vt 1.163933 -0.775768
vt 1.277327 1.035147
vt 1.094638 1.035147
vt 2.828950 0.827565
vt 3.058409 -0.775770
vt 3.058410 0.827565
vt 2.987161 -1.636677
vt 2.781598 -1.636677
vt 3.058408 -1.636677
vt 1.163934 1.035147
vt -0.222114 -2.124404
vt -0.222115 -3.382732
vt -0.392709 -3.376432
vt -0.392707 -2.124404
vt 0.098876 -1.680402
vt 1.357204 -1.680402
vt 1.357204 -1.826194
vt 0.098876 -1.827122
vt 2.065645 -3.888251
vt 2.828946 -3.900764
vt 0.098874 -3.881369
vt 1.373519 -3.881533
vt 3.728026 -5.305471
vt 3.728317 -4.580365
vt -1.736171 -5.305466
vt -1.738911 -4.580360
vt -3.346648 -4.580359
vt -3.346781 -5.305465
vt 6.463516 -5.305472
vt 6.463516 -4.580367
vt 0.098876 -1.680402
vt 0.098875 -2.601817
vt -0.662983 -5.305467
vt -0.662982 -4.580360
vt -0.223425 -0.279392
vt -0.222657 -1.362549
vt -0.393251 -1.362549
vt -0.394019 -0.279392
vt -1.746136 -1.681715
vt -0.662979 -1.680946
vt -0.662979 -1.680946
vt -1.746136 -1.681715
vt -1.741666 -3.881138
vt -0.662981 -3.881274
vt -0.662979 -1.827666
vt 3.728609 -3.913582
vt -3.346515 -3.881137
vt 6.463516 -3.916004
vt 0.098874 -3.108027
vt -0.662981 -3.107834
vt -3.473312 -3.107566
vt -3.473444 -3.881137
vt 6.463524 6.061399
vt 4.121273 6.061401
vt 4.121273 5.619627
vt 6.463523 5.619810
vt 3.731146 1.878683
vt 3.372869 6.479265
vt 6.463524 6.479263
vt 4.121273 6.479265
vt 3.947511 5.867867
vt 1.037941 0.827567
vt 1.058226 0.827567
vt 1.058224 -0.775768
vt 1.037940 -0.775768
vt 1.037942 1.035147
vt 1.058226 1.035147
f 1/1/1 2/2/2 3/3/3
f 1/1/1 3/3/3 4/4/4
f 5/5/5 6/6/6 7/7/7
f 5/5/5 7/7/7 8/8/8
f 9/9/9 10/10/10 11/11/11
f 9/9/9 11/11/11 12/12/12
f 13/13/13 12/12/12 11/11/11
f 13/13/13 11/11/11 14/14/14
f 15/15/15 10/10/10 16/16/16
f 15/15/15 16/16/16 17/17/17
f 18/18/18 19/19/19 20/20/20
f 18/18/18 20/20/20 21/21/21
f 22/22/22 23/23/23 24/24/24
f 25/25/25 26/26/26 27/27/27
f 25/25/25 27/27/27 28/28/28
f 9/9/9 29/29/29 30/30/30
f 9/9/9 30/30/30 31/31/31
f 32/32/32 33/33/33 34/34/34
f 32/32/32 34/34/34 35/35/35
f 36/36/36 37/37/37 38/38/38
f 36/36/36 38/38/38 2/2/2
f 39/39/39 31/31/31 30/30/30
f 39/39/39 30/30/30 40/40/40
f 41/41/41 17/17/17 16/16/16
f 41/41/41 16/16/16 42/42/42
f 43/43/43 44/44/44 45/45/45
f 43/43/43 45/45/45 46/46/46
f 47/47/47 48/48/48 49/49/49
f 50/50/50 51/51/51 19/19/19
f 50/50/50 19/19/19 18/18/18
f 52/52/52 53/53/53 54/54/54
f 52/52/52 54/54/54 55/55/55
f 54/54/54 53/53/53 56/56/56
f 54/54/54 56/56/56 57/57/57
f 58/58/58 33/33/33 51/51/51
f 58/58/58 51/51/51 50/50/50
f 22/22/22 52/52/52 55/55/55
f 22/22/22 55/55/55 23/23/23
f 14/14/14 11/11/11 59/59/59
f 14/14/14 59/59/59 60/60/60
f 61/61/61 62/62/62 38/38/38
f 48/48/48 63/63/63 64/64/64
f 48/48/48 64/64/64 49/49/49
f 36/36/36 65/65/65 66/66/66
f 36/36/36 66/66/66 67/67/67
f 10/10/10 15/15/15 59/59/59
f 10/10/10 59/59/59 11/11/11
f 42/42/42 16/16/16 31/31/31
f 42/42/42 31/31/31 39/39/39
f 10/10/10 9/9/9 31/31/31
f 10/10/10 31/31/31 16/16/16
f 68/68/68 58/58/58 22/22/22
f 68/68/68 22/22/22 24/24/24
f 13/13/13 14/14/14 60/60/60
f 13/13/13 60/60/60 69/69/69
f 34/34/34 33/33/33 58/58/58
f 34/34/34 58/58/58 68/68/68
f 53/53/53 18/18/18 21/21/21
f 53/53/53 21/21/21 56/56/56
f 52/52/52 50/50/50 18/18/18
f 52/52/52 18/18/18 53/53/53
f 22/22/22 58/58/58 50/50/50
f 22/22/22 50/50/50 52/52/52
f 28/28/28 15/15/15 17/17/17
f 28/28/28 17/17/17 70/70/70
f 71/71/71 72/72/72 73/73/73
f 71/71/71 73/73/73 8/8/8
f 74/74/74 75/75/75 76/76/76
f 74/74/74 76/76/76 77/77/77
f 78/78/78 79/79/79 64/64/64
f 78/78/78 64/64/64 80/80/80
f 81/81/81 82/82/82 83/83/83
f 81/81/81 83/83/83 84/84/84
f 85/85/85 47/47/47 49/49/49
f 85/85/85 49/49/49 86/86/86
f 27/27/27 59/59/59 15/15/15
f 27/27/27 15/15/15 28/28/28
f 87/87/87 34/34/34 68/68/68
f 87/87/87 68/68/68 88/88/88
f 76/76/76 67/67/67 25/25/25
f 76/76/76 25/25/25 77/77/77
f 89/89/89 74/74/74 77/77/77
f 89/89/89 77/77/77 70/70/70
f 17/17/17 41/41/41 89/89/89
f 17/17/17 89/89/89 70/70/70
f 90/90/90 91/91/91 92/92/92
f 90/90/90 92/92/92 93/93/93
f 94/94/94 95/95/95 96/96/96
f 94/94/94 96/96/96 63/63/63
f 77/77/77 25/25/25 28/28/28
f 77/77/77 28/28/28 70/70/70
f 7/7/7 97/97/97 98/98/98
f 7/7/7 98/98/98 99/99/99
f 8/8/8 7/7/7 99/99/99
f 8/8/8 99/99/99 71/71/71
f 5/5/5 100/100/100 26/26/26
f 5/5/5 26/26/26 66/66/66
f 6/6/6 65/65/65 1/1/1
f 6/6/6 1/1/1 101/101/101
f 101/101/101 1/1/1 4/4/4
f 101/101/101 4/4/4 102/102/102
f 103/103/103 73/73/73 72/72/72
f 103/103/103 72/72/72 104/104/104
f 100/100/100 73/73/73 103/103/103
f 100/100/100 103/103/103 105/105/105
f 65/65/65 36/36/36 2/2/2
f 65/65/65 2/2/2 1/1/1
f 85/85/85 106/106/106 107/107/107
f 85/85/85 107/107/107 47/47/47
f 67/67/67 66/66/66 26/26/26
f 67/67/67 26/26/26 25/25/25
f 63/63/63 96/96/96 80/80/80
f 63/63/63 80/80/80 64/64/64
f 38/38/38 62/62/62 3/3/3
f 38/38/38 3/3/3 2/2/2
f 108/108/108 109/109/109 4/4/4
f 108/108/108 4/4/4 3/3/3
f 110/110/110 111/111/111 112/112/112
f 110/110/110 112/112/112 113/113/113
f 37/37/37 36/36/36 67/67/67
f 37/37/37 67/67/67 76/76/76
f 114/114/114 37/37/37 76/76/76
f 114/114/114 76/76/76 75/75/75
f 61/61/61 38/38/38 37/37/37
f 61/61/61 37/37/37 114/114/114
f 115/115/115 116/116/116 117/117/117
f 115/115/115 117/117/117 118/118/118
f 63/63/63 48/48/48 119/119/119
f 63/63/63 119/119/119 94/94/94
f 112/112/112 111/111/111 95/95/95
f 112/112/112 95/95/95 94/94/94
f 94/94/94 119/119/119 120/120/120
f 94/94/94 120/120/120 112/112/112
f 121/121/121 122/122/122 123/123/123
f 121/121/121 123/123/123 124/124/124
f 110/110/110 125/125/125 126/126/126
f 110/110/110 126/126/126 111/111/111
f 127/127/127 128/128/128 116/116/116
f 127/127/127 116/116/116 115/115/115
f 129/129/129 120/120/120 130/130/130
f 129/129/129 130/130/130 131/131/131
f 75/75/75 110/110/110 113/113/113
f 75/75/75 113/113/113 114/114/114
f 129/129/129 113/113/113 112/112/112
f 129/129/129 112/112/112 120/120/120
f 122/122/122 132/132/132 133/133/133
f 122/122/122 133/133/133 123/123/123
f 120/120/120 119/119/119 134/134/134
f 120/120/120 134/134/134 130/130/130
f 75/75/75 135/135/135 125/125/125
f 75/75/75 125/125/125 110/110/110
f 61/61/61 114/114/114 113/113/113
f 61/61/61 113/113/113 129/129/129
f 136/136/136 137/137/137 138/138/138
f 136/136/136 138/138/138 139/139/139
f 140/140/140 141/141/141 142/142/142
f 140/140/140 142/142/142 143/143/143
f 144/144/144 43/43/43 46/46/46
f 144/144/144 46/46/46 145/145/145
f 83/83/83 44/44/44 43/43/43
f 83/83/83 43/43/43 84/84/84
f 146/146/146 81/81/81 84/84/84
f 146/146/146 84/84/84 147/147/147
f 148/148/148 149/149/149 46/46/46
f 148/148/148 46/46/46 45/45/45
f 150/150/150 151/151/151 152/152/152
f 150/150/150 152/152/152 153/153/153
f 148/148/148 154/154/154 155/155/155
f 148/148/148 155/155/155 149/149/149
f 156/156/156 32/32/32 35/35/35
f 156/156/156 35/35/35 157/157/157
f 151/151/151 150/150/150 158/158/158
f 151/151/151 158/158/158 159/159/159
f 160/160/160 161/161/161 162/162/162
f 160/160/160 162/162/162 163/163/163
f 164/164/164 165/165/165 166/166/166
f 164/164/164 166/166/166 167/167/167
f 168/168/168 151/151/151 159/159/159
f 168/168/168 159/159/159 169/169/169
f 161/161/161 136/136/136 139/139/139
f 161/161/161 139/139/139 162/162/162
f 165/165/165 140/140/140 143/143/143
f 165/165/165 143/143/143 170/170/170
f 169/169/169 159/159/159 81/81/81
f 169/169/169 81/81/81 146/146/146
f 96/96/96 156/156/156 157/157/157
f 96/96/96 157/157/157 80/80/80
f 147/147/147 144/144/144 79/79/79
f 147/147/147 79/79/79 78/78/78
f 171/171/171 85/85/85 86/86/86
f 171/171/171 86/86/86 145/145/145
f 168/168/168 87/87/87 88/88/88
f 168/168/168 88/88/88 172/172/172
f 171/171/171 173/173/173 106/106/106
f 171/171/171 106/106/106 85/85/85
f 64/64/64 79/79/79 86/86/86
f 64/64/64 86/86/86 49/49/49
f 157/157/157 174/174/174 78/78/78
f 157/157/157 78/78/78 80/80/80
f 34/34/34 87/87/87 175/175/175
f 34/34/34 175/175/175 35/35/35
f 35/35/35 175/175/175 174/174/174
f 35/35/35 174/174/174 157/157/157
f 79/79/79 144/144/144 145/145/145
f 79/79/79 145/145/145 86/86/86
f 174/174/174 146/146/146 147/147/147
f 174/174/174 147/147/147 78/78/78
f 87/87/87 168/168/168 169/169/169
f 87/87/87 169/169/169 175/175/175
f 175/175/175 169/169/169 146/146/146
f 175/175/175 146/146/146 174/174/174
f 84/84/84 43/43/43 144/144/144
f 84/84/84 144/144/144 147/147/147
f 149/149/149 171/171/171 145/145/145
f 149/149/149 145/145/145 46/46/46
f 151/151/151 168/168/168 172/172/172
f 151/151/151 172/172/172 152/152/152
f 149/149/149 155/155/155 173/173/173
f 149/149/149 173/173/173 171/171/171
f 172/172/172 88/88/88 176/176/176
f 172/172/172 176/176/176 177/177/177
f 178/178/178 179/179/179 180/180/180
f 178/178/178 180/180/180 181/181/181
f 108/108/108 182/182/182 91/91/91
f 108/108/108 91/91/91 90/90/90
f 93/93/93 181/181/181 180/180/180
f 93/93/93 180/180/180 90/90/90
f 90/90/90 180/180/180 109/109/109
f 90/90/90 109/109/109 108/108/108
f 3/3/3 62/62/62 182/182/182
f 3/3/3 182/182/182 108/108/108
f 66/66/66 65/65/65 6/6/6
f 66/66/66 6/6/6 5/5/5
f 8/8/8 73/73/73 100/100/100
f 8/8/8 100/100/100 5/5/5
f 7/7/7 6/6/6 101/101/101
f 7/7/7 101/101/101 97/97/97
f 97/97/97 101/101/101 102/102/102
f 97/97/97 102/102/102 183/183/183
f 26/26/26 100/100/100 105/105/105
f 26/26/26 105/105/105 27/27/27
f 184/184/184 185/185/185 179/179/179
f 184/184/184 179/179/179 178/178/178
f 180/180/180 179/179/179 186/186/186
f 180/180/180 186/186/186 109/109/109
f 187/187/187 188/188/188 189/189/189
f 187/187/187 189/189/189 190/190/190
f 191/191/191 192/192/192 188/188/188
f 191/191/191 188/188/188 187/187/187
