v -10.966525 4.052806 -4.250028
v -10.956856 4.052806 -4.240359
v -10.944413 4.052806 -4.252802
v -10.960303 4.052806 -4.256250
v -10.966672 4.025855 -4.250175
v -10.966672 4.052411 -4.250175
v -10.960450 4.052410 -4.256397
v -10.960450 4.025855 -4.256397
v -10.956666 4.052806 -4.240170
v -10.944223 4.052806 -4.252612
v -10.966672 4.052806 -4.250175
v -10.960450 4.052806 -4.256397
v -10.966672 4.025444 -4.250175
v -10.960450 4.025444 -4.256397
v -10.944413 4.052411 -4.252802
v -10.960303 4.052411 -4.256250
v -10.944223 4.052411 -4.252612
v -10.944413 4.025855 -4.252802
v -10.960303 4.025855 -4.256250
v -10.944223 4.025855 -4.252612
v -10.944413 4.025444 -4.252802
v -10.960303 4.025444 -4.256250
v -10.944223 4.025444 -4.252612
v -10.956856 4.025444 -4.240359
v -10.966525 4.025444 -4.250028
v -10.956666 4.052411 -4.240170
v -10.956666 4.025855 -4.240170
v -10.956666 4.025444 -4.240170
vn 0.000000 1.000000 -0.000200
vn 0.000000 1.000000 0.000100
vn 0.364600 0.648800 -0.667800
vn 0.302000 0.776500 -0.552900
vn -0.707100 -0.000000 -0.707100
vn -0.707000 0.000000 -0.707200
vn 0.000700 0.000000 -1.000000
vn 0.000700 0.000000 -1.000000
vn 0.499900 0.707100 0.500100
vn 0.816500 0.577300 0.000200
vn -0.499700 0.707000 -0.500400
vn 0.000600 0.577000 -0.816700
vn -0.500000 -0.707100 -0.500000
vn 0.000600 -0.577200 -0.816600
vn 0.479200 0.000000 -0.877700
vn 0.479600 0.000000 -0.877500
vn 1.000000 0.000000 0.000200
vn 0.479100 0.000000 -0.877700
vn 0.479600 0.000000 -0.877400
vn 1.000000 0.000000 0.000100
vn 0.364500 -0.648800 -0.667900
vn 0.302100 -0.776600 -0.552800
vn 0.816500 -0.577300 0.000100
vn 0.000000 -1.000000 0.000100
vn 0.000000 -1.000000 0.000000
vn 0.707100 -0.000000 0.707100
vn 0.707100 -0.000000 0.707100
vn 0.499900 -0.707100 0.500100
vt 0.000000 0.000000
vt 0.000000 0.000000
vt 0.000000 0.000000
vt 0.000000 0.000000
vt 0.000000 0.000000
vt 0.000000 0.000000
vt 0.000000 0.000000
vt 0.000000 0.000000
vt 0.000000 0.000000
vt 0.000000 0.000000
vt 0.000000 0.000000
vt 0.000000 0.000000
vt 0.000000 0.000000
vt 0.000000 0.000000
vt 0.000000 0.000000
vt 0.000000 0.000000
vt 0.000000 0.000000
vt 0.000000 0.000000
vt 0.000000 0.000000
vt 0.000000 0.000000
vt 0.000000 0.000000
vt 0.000000 0.000000
vt 0.000000 0.000000
vt 0.000000 0.000000
vt 0.000000 0.000000
vt 0.000000 0.000000
vt 0.000000 0.000000
vt 0.000000 0.000000
f 1/1/1 2/2/2 3/3/3
f 1/1/1 3/3/3 4/4/4
f 5/5/5 6/6/6 7/7/7
f 5/5/5 7/7/7 8/8/8
f 2/2/2 9/9/9 10/10/10
f 2/2/2 10/10/10 3/3/3
f 6/6/6 11/11/11 12/12/12
f 6/6/6 12/12/12 7/7/7
f 13/13/13 5/5/5 8/8/8
f 13/13/13 8/8/8 14/14/14
f 11/11/11 1/1/1 4/4/4
f 11/11/11 4/4/4 12/12/12
f 4/4/4 3/3/3 15/15/15
f 4/4/4 15/15/15 16/16/16
f 3/3/3 10/10/10 17/17/17
f 3/3/3 17/17/17 15/15/15
f 16/16/16 15/15/15 18/18/18
f 16/16/16 18/18/18 19/19/19
f 15/15/15 17/17/17 20/20/20
f 15/15/15 20/20/20 18/18/18
f 19/19/19 18/18/18 21/21/21
f 19/19/19 21/21/21 22/22/22
f 18/18/18 20/20/20 23/23/23
f 18/18/18 23/23/23 21/21/21
f 24/24/24 25/25/25 22/22/22
f 24/24/24 22/22/22 21/21/21
f 26/26/26 27/27/27 20/20/20
f 26/26/26 20/20/20 17/17/17
f 28/28/28 23/23/23 20/20/20
f 28/28/28 20/20/20 27/27/27
f 13/13/13 14/14/14 22/22/22
f 13/13/13 22/22/22 25/25/25
f 17/17/17 10/10/10 9/9/9
f 17/17/17 9/9/9 26/26/26
f 21/21/21 23/23/23 28/28/28
f 21/21/21 28/28/28 24/24/24
f 12/12/12 4/4/4 16/16/16
f 12/12/12 16/16/16 7/7/7
f 7/7/7 16/16/16 19/19/19
f 7/7/7 19/19/19 8/8/8
f 8/8/8 19/19/19 22/22/22
f 8/8/8 22/22/22 14/14/14
