v -5.957916 0.729921 -5.494705
v -5.964335 0.729921 -5.482631
v -5.948798 0.729921 -5.474370
v -5.950147 0.729921 -5.490574
v -5.957818 0.702969 -5.494888
v -5.957818 0.729525 -5.494888
v -5.950049 0.729525 -5.490757
v -5.950049 0.702969 -5.490757
v -5.964461 0.729921 -5.482394
v -5.948924 0.729921 -5.474133
v -5.957818 0.729921 -5.494888
v -5.950049 0.729921 -5.490757
v -5.957818 0.702558 -5.494888
v -5.950049 0.702558 -5.490757
v -5.948798 0.729525 -5.474370
v -5.950147 0.729525 -5.490574
v -5.948924 0.729525 -5.474133
v -5.948798 0.702969 -5.474370
v -5.950147 0.702969 -5.490574
v -5.948924 0.702969 -5.474133
v -5.948798 0.702558 -5.474370
v -5.950147 0.702558 -5.490574
v -5.948924 0.702558 -5.474133
v -5.964335 0.702558 -5.482631
v -5.957916 0.702558 -5.494705
v -5.964461 0.729524 -5.482394
v -5.964461 0.702969 -5.482394
v -5.964461 0.702558 -5.482394
vn 0.000000 1.000000 0.000000
vn 0.000000 1.000000 0.000000
vn 0.745400 0.648800 0.153100
vn 0.617100 0.776500 0.127400
vn 0.469400 0.000000 -0.883000
vn 0.469400 0.000000 -0.882900
vn 0.956400 0.000000 -0.292100
vn 0.956300 0.000000 -0.292300
vn -0.331900 0.707200 0.624300
vn 0.238900 0.577300 0.780800
vn 0.331900 0.707200 -0.624200
vn 0.780900 0.577500 -0.238100
vn 0.331900 -0.707200 -0.624200
vn 0.780900 -0.577300 -0.238500
vn 0.979500 0.000000 0.201300
vn 0.979400 0.000000 0.201700
vn 0.292500 0.000000 0.956200
vn 0.979500 0.000000 0.201400
vn 0.979500 0.000000 0.201500
vn 0.292400 0.000000 0.956300
vn 0.745300 -0.648900 0.153200
vn 0.617100 -0.776500 0.127100
vn 0.238800 -0.577300 0.780800
vn 0.000000 -1.000000 0.000000
vn 0.000000 -1.000000 0.000000
vn -0.469400 0.000000 0.882900
vn -0.469400 0.000000 0.882900
vn -0.331900 -0.707200 0.624200
vt 0.000000 0.000000
vt 0.000000 0.000000
vt 0.000000 0.000000
vt 0.000000 0.000000
vt 0.000000 0.000000
vt 0.000000 0.000000
vt 0.000000 0.000000
vt 0.000000 0.000000
vt 0.000000 0.000000
vt 0.000000 0.000000
vt 0.000000 0.000000
vt 0.000000 0.000000
vt 0.000000 0.000000
vt 0.000000 0.000000
vt 0.000000 0.000000
vt 0.000000 0.000000
vt 0.000000 0.000000
vt 0.000000 0.000000
vt 0.000000 0.000000
vt 0.000000 0.000000
vt 0.000000 0.000000
vt 0.000000 0.000000
vt 0.000000 0.000000
vt 0.000000 0.000000
vt 0.000000 0.000000
vt 0.000000 0.000000
vt 0.000000 0.000000
vt 0.000000 0.000000
f 1/1/1 2/2/2 3/3/3
f 1/1/1 3/3/3 4/4/4
f 5/5/5 6/6/6 7/7/7
f 5/5/5 7/7/7 8/8/8
f 2/2/2 9/9/9 10/10/10
f 2/2/2 10/10/10 3/3/3
f 6/6/6 11/11/11 12/12/12
f 6/6/6 12/12/12 7/7/7
f 13/13/13 5/5/5 8/8/8
f 13/13/13 8/8/8 14/14/14
f 11/11/11 1/1/1 4/4/4
f 11/11/11 4/4/4 12/12/12
f 4/4/4 3/3/3 15/15/15
f 4/4/4 15/15/15 16/16/16
f 3/3/3 10/10/10 17/17/17
f 3/3/3 17/17/17 15/15/15
f 16/16/16 15/15/15 18/18/18
f 16/16/16 18/18/18 19/19/19
f 15/15/15 17/17/17 20/20/20
f 15/15/15 20/20/20 18/18/18
f 19/19/19 18/18/18 21/21/21
f 19/19/19 21/21/21 22/22/22
f 18/18/18 20/20/20 23/23/23
f 18/18/18 23/23/23 21/21/21
f 24/24/24 25/25/25 22/22/22
f 24/24/24 22/22/22 21/21/21
f 26/26/26 27/27/27 20/20/20
f 26/26/26 20/20/20 17/17/17
f 28/28/28 23/23/23 20/20/20
f 28/28/28 20/20/20 27/27/27
f 13/13/13 14/14/14 22/22/22
f 13/13/13 22/22/22 25/25/25
f 17/17/17 10/10/10 9/9/9
f 17/17/17 9/9/9 26/26/26
f 21/21/21 23/23/23 28/28/28
f 21/21/21 28/28/28 24/24/24
f 12/12/12 4/4/4 16/16/16
f 12/12/12 16/16/16 7/7/7
f 7/7/7 16/16/16 19/19/19
f 7/7/7 19/19/19 8/8/8
f 8/8/8 19/19/19 22/22/22
f 8/8/8 22/22/22 14/14/14
