v 3.163509 4.382110 -3.734652
v 3.163509 4.384131 -3.729772
v 3.137785 4.384131 -3.729773
v 3.137785 4.382110 -3.734652
v 3.163509 4.377230 -3.736674
v 3.137785 4.377230 -3.736673
v 3.163509 4.372351 -3.734652
v 3.137785 4.372351 -3.734652
v 3.163509 4.377230 -3.722871
v 3.163509 4.372351 -3.724893
v 3.137785 4.372351 -3.724893
v 3.137785 4.377230 -3.722871
v 3.163509 4.382110 -3.724892
v 3.137785 4.382110 -3.724893
v 3.131896 4.380532 -3.724893
v 3.130885 4.382282 -3.729773
v 3.134335 4.376306 -3.722872
v 3.136775 4.372079 -3.724893
v 3.134335 4.376306 -3.736674
v 3.136775 4.372079 -3.734653
v 3.131896 4.380532 -3.734653
v 3.127583 4.376220 -3.724893
v 3.125833 4.377230 -3.729773
v 3.131810 4.373780 -3.722872
v 3.136035 4.371340 -3.724893
v 3.131810 4.373780 -3.736674
v 3.136035 4.371340 -3.734653
v 3.127583 4.376220 -3.734653
v 3.126006 4.370329 -3.724894
v 3.123984 4.370329 -3.729774
v 3.130885 4.370329 -3.722872
v 3.135766 4.370329 -3.724894
v 3.130885 4.370329 -3.736674
v 3.135766 4.370329 -3.734653
v 3.126006 4.370329 -3.734653
v 3.123984 4.153640 -3.729774
v 3.126006 4.153640 -3.724894
v 3.130885 4.153640 -3.722872
v 3.137786 4.153641 -3.729773
v 3.137786 4.370329 -3.729773
v 3.135766 4.153640 -3.734653
v 3.130885 4.153640 -3.736674
v 3.126006 4.153640 -3.734653
v 3.163509 4.141860 -3.734652
v 3.137785 4.141860 -3.734652
v 3.137785 4.139838 -3.729773
v 3.163509 4.139838 -3.729772
v 3.163509 4.146739 -3.736674
v 3.137785 4.146739 -3.736673
v 3.163509 4.151619 -3.734652
v 3.137785 4.151619 -3.734652
v 3.163509 4.146739 -3.722871
v 3.137785 4.146739 -3.722871
v 3.137785 4.151619 -3.724893
v 3.163509 4.151619 -3.724893
v 3.163509 4.141860 -3.724892
v 3.137785 4.141860 -3.724893
v 3.130885 4.141687 -3.729773
v 3.131896 4.143438 -3.724893
v 3.134335 4.147664 -3.722872
v 3.136775 4.151890 -3.724893
v 3.136775 4.151890 -3.734653
v 3.134335 4.147664 -3.736674
v 3.131896 4.143438 -3.734653
v 3.125833 4.146739 -3.729773
v 3.127583 4.147750 -3.724893
v 3.131810 4.150190 -3.722872
v 3.136035 4.152630 -3.724893
v 3.136035 4.152630 -3.734653
v 3.131810 4.150190 -3.736674
v 3.127583 4.147750 -3.734653
v 3.135766 4.153640 -3.724894
v 3.163509 4.370329 -3.729772
v 3.163509 4.153640 -3.729773
vn 0.000000 -0.707100 0.707100
vn 0.000000 -1.000000 0.000000
vn 0.126600 -0.991900 0.000000
vn 0.095000 -0.718100 0.689400
vn -0.000000 0.000000 1.000000
vn 0.008400 -0.031800 0.999500
vn 0.000000 0.707100 0.707100
vn -0.091300 0.686700 0.721200
vn 0.000000 0.000000 -1.000000
vn 0.000000 0.707100 -0.707100
vn -0.091100 0.686700 -0.721200
vn 0.008600 -0.031700 -0.999500
vn 0.000000 -0.707100 -0.707100
vn 0.095100 -0.718100 -0.689400
vn 0.368100 -0.637500 -0.676800
vn 0.500000 -0.866000 0.000000
vn 0.031900 -0.055000 -0.998000
vn -0.336200 0.582300 -0.740200
vn 0.031600 -0.055100 0.998000
vn -0.336500 0.582200 0.740200
vn 0.368100 -0.637600 0.676800
vn 0.637600 -0.368000 -0.676700
vn 0.866000 -0.500000 0.000000
vn 0.055000 -0.031600 -0.998000
vn -0.582200 0.336100 -0.740300
vn 0.055000 -0.031800 0.998000
vn -0.582400 0.335800 0.740300
vn 0.637600 -0.368100 0.676700
vn 0.718100 -0.095000 -0.689400
vn 0.991900 -0.126500 0.000000
vn 0.031800 -0.008400 -0.999500
vn -0.686900 0.090900 -0.721000
vn 0.031800 -0.008500 0.999500
vn -0.686800 0.090700 0.721100
vn 0.718000 -0.095000 0.689500
vn 0.991900 0.126600 0.000000
vn 0.718100 0.095000 -0.689400
vn 0.031800 0.008400 -0.999500
vn -0.707200 -0.707000 0.000000
vn -0.707200 0.707000 0.000000
vn -0.686800 -0.090700 0.721100
vn 0.031800 0.008600 0.999500
vn 0.718000 0.095000 0.689500
vn 0.000000 0.707100 0.707100
vn 0.095000 0.718100 0.689400
vn 0.126600 0.991900 0.000000
vn 0.000000 1.000000 -0.000000
vn -0.000000 0.000000 1.000000
vn 0.008400 0.031800 0.999500
vn 0.000000 -0.707000 0.707100
vn -0.091200 -0.686800 0.721100
vn 0.000000 0.000000 -1.000000
vn 0.008500 0.031700 -0.999500
vn -0.091100 -0.686800 -0.721100
vn 0.000000 -0.707100 -0.707100
vn 0.000000 0.707100 -0.707100
vn 0.095100 0.718100 -0.689400
vn 0.500000 0.866000 0.000000
vn 0.368100 0.637500 -0.676700
vn 0.031800 0.055000 -0.998000
vn -0.336100 -0.582300 -0.740200
vn -0.336400 -0.582200 0.740200
vn 0.031600 0.055100 0.998000
vn 0.368100 0.637600 0.676700
vn 0.866000 0.500000 0.000000
vn 0.637600 0.368100 -0.676700
vn 0.055000 0.031600 -0.998000
vn -0.582200 -0.336100 -0.740300
vn -0.582500 -0.335800 0.740200
vn 0.054900 0.031800 0.998000
vn 0.637600 0.368100 0.676700
vn -0.686900 -0.090900 -0.721000
vn 0.000000 1.000000 -0.000000
vn 0.000000 -1.000000 0.000000
vt 0.000000 0.000000
vt 0.000000 0.000000
vt 0.000000 0.000000
vt 0.000000 0.000000
vt 0.000000 0.000000
vt 0.000000 0.000000
vt 0.000000 0.000000
vt 0.000000 0.000000
vt 0.000000 0.000000
vt 0.000000 0.000000
vt 0.000000 0.000000
vt 0.000000 0.000000
vt 0.000000 0.000000
vt 0.000000 0.000000
vt 0.000000 0.000000
vt 0.000000 0.000000
vt 0.000000 0.000000
vt 0.000000 0.000000
vt 0.000000 0.000000
vt 0.000000 0.000000
vt 0.000000 0.000000
vt 0.000000 0.000000
vt 0.000000 0.000000
vt 0.000000 0.000000
vt 0.000000 0.000000
vt 0.000000 0.000000
vt 0.000000 0.000000
vt 0.000000 0.000000
vt 0.000000 0.000000
vt 0.000000 0.000000
vt 0.000000 0.000000
vt 0.000000 0.000000
vt 0.000000 0.000000
vt 0.000000 0.000000
vt 0.000000 0.000000
vt 0.000000 0.000000
vt 0.000000 0.000000
vt 0.000000 0.000000
vt 0.000000 0.000000
vt 0.000000 0.000000
vt 0.000000 0.000000
vt 0.000000 0.000000
vt 0.000000 0.000000
vt 0.000000 0.000000
vt 0.000000 0.000000
vt 0.000000 0.000000
vt 0.000000 0.000000
vt 0.000000 0.000000
vt 0.000000 0.000000
vt 0.000000 0.000000
vt 0.000000 0.000000
vt 0.000000 0.000000
vt 0.000000 0.000000
vt 0.000000 0.000000
vt 0.000000 0.000000
vt 0.000000 0.000000
vt 0.000000 0.000000
vt 0.000000 0.000000
vt 0.000000 0.000000
vt 0.000000 0.000000
vt 0.000000 0.000000
vt 0.000000 0.000000
vt 0.000000 0.000000
vt 0.000000 0.000000
vt 0.000000 0.000000
vt 0.000000 0.000000
vt 0.000000 0.000000
vt 0.000000 0.000000
vt 0.000000 0.000000
vt 0.000000 0.000000
vt 0.000000 0.000000
vt 0.000000 0.000000
vt 0.000000 0.000000
vt 0.000000 0.000000
f 1/1/1 2/2/2 3/3/3
f 1/1/1 3/3/3 4/4/4
f 5/5/5 1/1/1 4/4/4
f 5/5/5 4/4/4 6/6/6
f 7/7/7 5/5/5 6/6/6
f 7/7/7 6/6/6 8/8/8
f 9/9/9 10/10/10 11/11/11
f 9/9/9 11/11/11 12/12/12
f 13/13/13 9/9/9 12/12/12
f 13/13/13 12/12/12 14/14/14
f 2/2/2 13/13/13 14/14/14
f 2/2/2 14/14/14 3/3/3
f 3/3/3 14/14/14 15/15/15
f 3/3/3 15/15/15 16/16/16
f 14/14/14 12/12/12 17/17/17
f 14/14/14 17/17/17 15/15/15
f 12/12/12 11/11/11 18/18/18
f 12/12/12 18/18/18 17/17/17
f 8/8/8 6/6/6 19/19/19
f 8/8/8 19/19/19 20/20/20
f 6/6/6 4/4/4 21/21/21
f 6/6/6 21/21/21 19/19/19
f 4/4/4 3/3/3 16/16/16
f 4/4/4 16/16/16 21/21/21
f 16/16/16 15/15/15 22/22/22
f 16/16/16 22/22/22 23/23/23
f 15/15/15 17/17/17 24/24/24
f 15/15/15 24/24/24 22/22/22
f 17/17/17 18/18/18 25/25/25
f 17/17/17 25/25/25 24/24/24
f 20/20/20 19/19/19 26/26/26
f 20/20/20 26/26/26 27/27/27
f 19/19/19 21/21/21 28/28/28
f 19/19/19 28/28/28 26/26/26
f 21/21/21 16/16/16 23/23/23
f 21/21/21 23/23/23 28/28/28
f 23/23/23 22/22/22 29/29/29
f 23/23/23 29/29/29 30/30/30
f 22/22/22 24/24/24 31/31/31
f 22/22/22 31/31/31 29/29/29
f 24/24/24 25/25/25 32/32/32
f 24/24/24 32/32/32 31/31/31
f 27/27/27 26/26/26 33/33/33
f 27/27/27 33/33/33 34/34/34
f 26/26/26 28/28/28 35/35/35
f 26/26/26 35/35/35 33/33/33
f 28/28/28 23/23/23 30/30/30
f 28/28/28 30/30/30 35/35/35
f 36/36/36 30/30/30 29/29/29
f 36/36/36 29/29/29 37/37/37
f 37/37/37 29/29/29 31/31/31
f 37/37/37 31/31/31 38/38/38
f 39/39/39 40/40/40 34/34/34
f 39/39/39 34/34/34 41/41/41
f 41/41/41 34/34/34 33/33/33
f 41/41/41 33/33/33 42/42/42
f 42/42/42 33/33/33 35/35/35
f 42/42/42 35/35/35 43/43/43
f 44/44/44 45/45/45 46/46/46
f 44/44/44 46/46/46 47/47/47
f 48/48/48 49/49/49 45/45/45
f 48/48/48 45/45/45 44/44/44
f 50/50/50 51/51/51 49/49/49
f 50/50/50 49/49/49 48/48/48
f 52/52/52 53/53/53 54/54/54
f 52/52/52 54/54/54 55/55/55
f 56/56/56 57/57/57 53/53/53
f 56/56/56 53/53/53 52/52/52
f 47/47/47 46/46/46 57/57/57
f 47/47/47 57/57/57 56/56/56
f 46/46/46 58/58/58 59/59/59
f 46/46/46 59/59/59 57/57/57
f 57/57/57 59/59/59 60/60/60
f 57/57/57 60/60/60 53/53/53
f 53/53/53 60/60/60 61/61/61
f 53/53/53 61/61/61 54/54/54
f 51/51/51 62/62/62 63/63/63
f 51/51/51 63/63/63 49/49/49
f 49/49/49 63/63/63 64/64/64
f 49/49/49 64/64/64 45/45/45
f 45/45/45 64/64/64 58/58/58
f 45/45/45 58/58/58 46/46/46
f 58/58/58 65/65/65 66/66/66
f 58/58/58 66/66/66 59/59/59
f 59/59/59 66/66/66 67/67/67
f 59/59/59 67/67/67 60/60/60
f 60/60/60 67/67/67 68/68/68
f 60/60/60 68/68/68 61/61/61
f 62/62/62 69/69/69 70/70/70
f 62/62/62 70/70/70 63/63/63
f 63/63/63 70/70/70 71/71/71
f 63/63/63 71/71/71 64/64/64
f 64/64/64 71/71/71 65/65/65
f 64/64/64 65/65/65 58/58/58
f 65/65/65 36/36/36 37/37/37
f 65/65/65 37/37/37 66/66/66
f 66/66/66 37/37/37 38/38/38
f 66/66/66 38/38/38 67/67/67
f 67/67/67 38/38/38 72/72/72
f 67/67/67 72/72/72 68/68/68
f 69/69/69 41/41/41 42/42/42
f 69/69/69 42/42/42 70/70/70
f 70/70/70 42/42/42 43/43/43
f 70/70/70 43/43/43 71/71/71
f 71/71/71 43/43/43 36/36/36
f 71/71/71 36/36/36 65/65/65
f 43/43/43 35/35/35 30/30/30
f 43/43/43 30/30/30 36/36/36
f 25/25/25 40/40/40 32/32/32
f 40/40/40 27/27/27 34/34/34
f 38/38/38 31/31/31 32/32/32
f 38/38/38 32/32/32 72/72/72
f 72/72/72 32/32/32 40/40/40
f 72/72/72 40/40/40 39/39/39
f 68/68/68 72/72/72 39/39/39
f 39/39/39 41/41/41 69/69/69
f 73/73/73 7/7/7 8/8/8
f 73/73/73 8/8/8 40/40/40
f 10/10/10 73/73/73 40/40/40
f 10/10/10 40/40/40 11/11/11
f 74/74/74 39/39/39 51/51/51
f 74/74/74 51/51/51 50/50/50
f 55/55/55 54/54/54 39/39/39
f 55/55/55 39/39/39 74/74/74
f 11/11/11 40/40/40 18/18/18
f 40/40/40 8/8/8 20/20/20
f 18/18/18 40/40/40 25/25/25
f 40/40/40 20/20/20 27/27/27
f 54/54/54 61/61/61 39/39/39
f 39/39/39 62/62/62 51/51/51
f 61/61/61 68/68/68 39/39/39
f 39/39/39 69/69/69 62/62/62
