v 4.010826 -0.339082 -12.085717
v 4.010826 -0.339082 -12.486103
v 3.071625 -0.339082 -12.486103
v 3.071625 -0.339082 -12.085717
v 0.630052 -0.846979 -12.417373
v 0.630052 -0.753102 -12.397219
v 0.630052 -0.753102 -12.982456
v 0.630052 -0.846979 -12.982456
v 3.071625 -0.339082 -8.855847
v 4.121899 -0.339082 -7.773612
v 0.770535 -0.339082 -8.848595
v 0.770535 -0.339082 -12.085717
v 4.826624 -0.753102 -12.982456
v 4.826624 -0.753102 -7.576162
v 4.902961 -0.753102 -7.576162
v 4.902961 -0.753102 -13.038616
v 0.630052 -0.339082 -8.847193
v 0.630052 -0.339082 -12.085717
v 3.071625 -0.420937 -12.486103
v 3.071625 -0.339082 -12.486103
v 4.010826 -0.339082 -12.486103
v 4.010826 -0.420937 -12.486103
v 0.770535 -0.339082 -12.486103
v 4.321355 -0.339082 -7.773612
v 4.321355 -0.339082 -12.085717
v 4.321355 -0.339082 -12.085717
v 4.321355 -0.339082 -7.773612
v 4.321355 -0.420937 -7.773612
v 4.321355 -0.420937 -12.085717
v 0.770535 -0.339082 -12.486103
v 0.770535 -0.420937 -12.486103
v 4.257029 -0.753102 -7.576162
v 4.272092 -0.846979 -7.576162
v 4.826624 -0.846979 -7.576162
v 4.826624 -0.753102 -7.576162
v 0.630052 -0.753102 -13.038616
v 4.902961 -0.753102 -13.038616
v 4.902961 -0.846979 -13.038616
v 0.630052 -0.846979 -13.038616
v 4.902961 -0.846979 -7.576162
v 4.902961 -0.753102 -7.576162
v 4.257028 -0.753102 -12.397219
v 4.826624 -0.753102 -12.982456
v 0.630052 -0.753102 -12.982456
v 0.630052 -0.753102 -12.397219
v 4.902961 -0.753102 -13.038616
v 4.902961 -0.753102 -7.576162
v 4.902961 -0.846979 -7.576162
v 4.902961 -0.846979 -13.038616
v 4.257028 -0.753102 -12.397219
v 4.257029 -0.753102 -7.576162
v 0.630052 -0.753102 -13.038616
v 0.630052 -0.846979 -13.038616
v 4.902961 -0.753102 -13.038616
v 0.630052 -0.753102 -13.038616
v 0.770535 -0.339082 -8.645071
v 3.071625 -0.339082 -8.652324
vn 0.000000 1.000000 0.000000
vn 0.000000 1.000000 0.000000
vn 0.000000 1.000000 0.000000
vn 0.000000 1.000000 0.000000
vn -1.000000 -0.000000 0.000000
vn -1.000000 -0.000000 0.000000
vn -1.000000 -0.000000 0.000000
vn -1.000000 -0.000000 0.000000
vn 0.000000 1.000000 0.000000
vn 0.000000 1.000000 0.000000
vn 0.000000 1.000000 0.000000
vn 0.000000 1.000000 0.000000
vn 0.000000 1.000000 0.000000
vn 0.000000 1.000000 0.000000
vn 0.000000 1.000000 0.000000
vn 0.000000 1.000000 0.000000
vn 0.000000 1.000000 0.000000
vn 0.000000 1.000000 0.000000
vn 0.000000 0.000000 -1.000000
vn 0.000000 0.000000 -1.000000
vn 0.000000 0.000000 -1.000000
vn 0.000000 0.000000 -1.000000
vn 0.000000 1.000000 0.000000
vn 0.000000 1.000000 0.000000
vn 0.000000 1.000000 0.000000
vn 1.000000 0.000000 0.000000
vn 1.000000 0.000000 0.000000
vn 1.000000 0.000000 0.000000
vn 1.000000 0.000000 0.000000
vn 0.000000 0.000000 -1.000000
vn 0.000000 0.000000 -1.000000
vn 0.000000 0.000000 1.000000
vn 0.000000 0.000000 1.000000
vn 0.000000 0.000000 1.000000
vn 0.000000 0.000000 1.000000
vn 0.000000 0.000000 -1.000000
vn 0.000000 0.000000 -1.000000
vn 0.000000 0.000000 -1.000000
vn 0.000000 0.000000 -1.000000
vn 0.000000 0.000000 1.000000
vn 0.000000 0.000000 1.000000
vn 0.000000 1.000000 0.000000
vn 0.000000 1.000000 0.000000
vn 0.000000 1.000000 0.000000
vn 0.000000 1.000000 0.000000
vn 1.000000 0.000000 0.000000
vn 1.000000 0.000000 0.000000
vn 1.000000 0.000000 0.000000
vn 1.000000 0.000000 0.000000
vn 0.000000 1.000000 0.000000
vn 0.000000 1.000000 0.000000
vn -1.000000 -0.000000 0.000000
vn -1.000000 -0.000000 0.000000
vn 0.000000 1.000000 0.000000
vn 0.000000 1.000000 0.000000
vn 0.000000 1.000000 0.000000
vn 0.000000 1.000000 0.000000
vt -2.478145 1.047955
vt -2.478142 0.621962
vt -1.478870 0.621963
vt -1.478872 1.047958
vt 3.603882 0.529971
vt 3.536564 0.477752
vt 3.923733 0.180535
vt 3.980050 0.204001
vt -1.478881 4.484413
vt -2.596328 5.635871
vt 0.969386 4.492135
vt 0.969393 1.047967
vt 2.146671 1.761494
vt 2.146671 -5.079975
vt 2.243274 -5.079975
vt 2.243274 1.832564
vt 1.118855 4.493627
vt 1.118860 1.047967
vt -1.478872 1.047958
vt -1.478872 1.135042
vt -2.478144 1.135044
vt -2.478145 1.047955
vt 0.969395 0.621972
vt -2.808538 5.635872
vt -2.808542 1.047955
vt -2.808542 1.047955
vt -2.808538 5.635872
vt -2.895623 5.635872
vt -2.895633 1.047954
vt 0.969393 1.135042
vt 0.969393 1.047967
vt -3.647082 0.513902
vt -3.767989 0.529969
vt -3.962566 -0.149881
vt -3.877400 -0.127651
vt 2.234308 4.171392
vt 2.234303 -1.235822
vt 2.385916 -1.235822
vt 2.385912 4.171392
vt -3.915426 -0.178710
vt -3.875597 -0.161199
vt 1.422638 -0.418414
vt 2.163234 -1.139217
vt 2.163238 4.171392
vt 1.422642 4.171392
vt 2.340503 -5.079975
vt 2.340504 1.832564
vt 2.243274 1.832564
vt 2.243274 -5.079975
vt 1.425868 1.020898
vt 1.425870 -5.079975
vt 3.932257 0.166721
vt 3.968095 0.173502
vt 2.234303 -1.235822
vt 2.234308 4.171392
vt 0.969386 4.492135
vt -1.478881 4.484413
f 1/1/1 2/2/2 3/3/3
f 1/1/1 3/3/3 4/4/4
f 5/5/5 6/6/6 7/7/7
f 5/5/5 7/7/7 8/8/8
f 4/4/4 9/9/9 10/10/10
f 4/4/4 10/10/10 1/1/1
f 11/11/11 9/9/9 4/4/4
f 11/11/11 4/4/4 12/12/12
f 13/13/13 14/14/14 15/15/15
f 13/13/13 15/15/15 16/16/16
f 17/17/17 11/11/11 12/12/12
f 17/17/17 12/12/12 18/18/18
f 19/19/19 20/20/20 21/21/21
f 19/19/19 21/21/21 22/22/22
f 4/4/4 3/3/3 23/23/23
f 4/4/4 23/23/23 12/12/12
f 10/10/10 24/24/24 25/25/25
f 10/10/10 25/25/25 1/1/1
f 26/26/26 27/27/27 28/28/28
f 26/26/26 28/28/28 29/29/29
f 30/30/30 20/20/20 19/19/19
f 30/30/30 19/19/19 31/31/31
f 32/32/32 33/33/33 34/34/34
f 32/32/32 34/34/34 35/35/35
f 36/36/36 37/37/37 38/38/38
f 36/36/36 38/38/38 39/39/39
f 35/35/35 34/34/34 40/40/40
f 35/35/35 40/40/40 41/41/41
f 42/42/42 43/43/43 44/44/44
f 42/42/42 44/44/44 45/45/45
f 46/46/46 47/47/47 48/48/48
f 46/46/46 48/48/48 49/49/49
f 50/50/50 51/51/51 14/14/14
f 50/50/50 14/14/14 13/13/13
f 8/8/8 7/7/7 52/52/52
f 8/8/8 52/52/52 53/53/53
f 43/43/43 54/54/54 55/55/55
f 43/43/43 55/55/55 44/44/44
f 9/9/9 11/11/11 56/56/56
f 9/9/9 56/56/56 57/57/57
