v -13.850522 -1.166731 -3.324571
v -13.850522 -1.166731 -2.891214
v -28.669693 -1.166731 -2.891214
v -28.669693 -1.166731 -3.324571
v -13.850522 -1.166731 -8.785006
v -13.850522 -1.166731 -8.215431
v -28.669693 -1.166731 -8.215431
v -28.669693 -1.166731 -8.785006
v -6.852777 -1.166731 -3.767533
v -6.852775 -1.166731 -8.215431
v -7.755557 -1.166731 -2.891213
v -6.852777 -1.166731 -8.785007
vn 0.000000 -1.000000 0.000000
vn 0.000000 -1.000000 0.000000
vn 0.000000 -1.000000 0.000000
vn 0.000000 -1.000000 0.000000
vn 0.000000 -1.000000 0.000000
vn 0.000000 -1.000000 0.000000
vn 0.000000 -1.000000 0.000000
vn 0.000000 -1.000000 0.000000
vn 0.000000 -1.000000 0.000000
vn 0.000000 -1.000000 0.000000
vn 0.000000 -1.000000 0.000000
vn 0.000000 -1.000000 0.000000
vt 1.362012 -0.471081
vt 1.362012 -0.635544
vt -4.261998 -0.635544
vt -4.261998 -0.471081
vt 1.362012 1.601204
vt 1.362012 1.385045
vt -4.261998 1.385045
vt -4.261998 1.601204
vt 4.017719 -0.302972
vt 4.017720 1.385045
vt 3.675107 -0.635544
vt 4.017719 1.601204
f 1/1/1 2/2/2 3/3/3
f 1/1/1 3/3/3 4/4/4
f 5/5/5 6/6/6 7/7/7
f 5/5/5 7/7/7 8/8/8
f 6/6/6 1/1/1 4/4/4
f 6/6/6 4/4/4 7/7/7
f 9/9/9 1/1/1 6/6/6
f 9/9/9 6/6/6 10/10/10
f 11/11/11 2/2/2 1/1/1
f 11/11/11 1/1/1 9/9/9
f 10/10/10 6/6/6 5/5/5
f 10/10/10 5/5/5 12/12/12
