v 2.936718 1.283565 -0.555918
v 3.078897 1.283565 -0.555918
v 3.078897 1.283565 -0.546179
v 2.936718 1.283565 -0.546179
v 4.104285 -0.238282 -1.955326
v 4.104285 -0.339082 -1.955326
v 4.104285 -0.339082 -0.581019
v 4.104285 -0.238282 -0.581019
v 4.121903 -0.238282 -1.955326
v 4.104285 -0.238282 -1.955326
v 4.104285 -0.238282 -0.581019
v 4.121903 -0.238282 -0.581019
v 2.944623 -0.238282 -0.563415
v 2.944623 -0.339082 -0.563415
v 3.076773 -0.339082 -0.563415
v 3.076773 -0.238282 -0.563415
v 2.944623 -0.238282 -0.545797
v 2.944623 -0.238282 -0.563415
v 3.076773 -0.238282 -0.563415
v 3.076773 -0.238282 -0.545797
v -0.578300 -0.238282 -3.017009
v -0.564975 -0.238282 -3.027861
v -0.565752 -0.238282 -4.609946
v -0.578104 -0.238282 -4.620798
v -0.564975 -0.238282 -3.027861
v -0.564975 -0.339082 -3.027861
v -0.565752 -0.339082 -4.609946
v -0.565752 -0.238282 -4.609946
v -0.413712 -0.339081 -5.276585
v -0.413712 -0.238282 -5.276585
v -0.413712 -0.238282 -5.534486
v -0.413712 -0.339081 -5.534486
v -0.413712 -0.238282 -5.276585
v -0.428467 -0.238282 -5.265733
v -0.428467 -0.238282 -5.534486
v -0.413712 -0.238282 -5.534486
v -0.413712 -0.238282 -7.441573
v -0.413712 -0.339081 -7.441573
v -0.413712 -0.339081 -7.595697
v -0.413712 -0.238282 -7.595697
v -0.428467 -0.238282 -7.441573
v -0.413712 -0.238282 -7.441573
v -0.413712 -0.238282 -7.595697
v -0.428467 -0.238282 -7.601999
v -0.413712 -0.238282 -7.595697
v -0.413712 -0.339081 -7.595697
v 0.646862 -0.339081 -8.637976
v 0.646862 -0.238282 -8.637976
v 0.646862 -0.238282 -8.637976
v 0.632107 -0.238282 -8.658474
v 0.646862 -0.238282 -8.637976
v 0.646862 -0.339081 -8.637976
v 0.858067 -0.339081 -8.637976
v 0.858067 -0.238282 -8.637976
v 0.858067 -0.238282 -8.637976
v 0.858067 -0.238282 -8.658474
v 2.755171 -0.238282 -8.637976
v 2.755171 -0.339081 -8.637976
v 2.927966 -0.339081 -8.637976
v 2.927966 -0.238282 -8.637976
v 2.755171 -0.238282 -8.658474
v 2.755171 -0.238282 -8.637976
v 2.927966 -0.238282 -8.637976
v 2.938465 -0.238282 -8.658474
v 2.927966 -0.238282 -8.637976
v 2.927966 -0.339081 -8.637976
v 4.104285 -0.339082 -7.433307
v 4.104285 -0.238282 -7.433307
v 4.104285 -0.238282 -7.433307
v 4.121903 -0.238282 -7.444759
v 4.104285 -0.238282 -7.433307
v 4.104285 -0.339082 -7.433307
v 4.104285 -0.339082 -4.456416
v 4.104285 -0.238282 -4.456416
v 4.104285 -0.238282 -4.456416
v 4.121903 -0.238282 -4.456416
vn 0.000000 -1.000000 0.000000
vn 0.000000 -1.000000 0.000000
vn 0.000000 -1.000000 0.000000
vn 0.000000 -1.000000 0.000000
vn -1.000000 0.000000 0.000000
vn -1.000000 0.000000 0.000000
vn -1.000000 0.000000 0.000000
vn -1.000000 0.000000 0.000000
vn 0.000000 1.000000 0.000000
vn 0.000000 1.000000 0.000000
vn 0.000000 1.000000 0.000000
vn 0.000000 1.000000 0.000000
vn 0.000000 0.000000 1.000000
vn 0.000000 0.000000 1.000000
vn 0.000000 0.000000 1.000000
vn 0.000000 0.000000 1.000000
vn 0.000000 -1.000000 0.000000
vn 0.000000 -1.000000 0.000000
vn 0.000000 -1.000000 0.000000
vn 0.000000 -1.000000 0.000000
vn 0.000000 1.000000 0.000000
vn 0.000000 1.000000 0.000000
vn 0.000000 1.000000 0.000000
vn 0.000000 1.000000 0.000000
vn 1.000000 0.000000 -0.000500
vn 1.000000 0.000000 -0.000500
vn 1.000000 0.000000 -0.000500
vn 1.000000 0.000000 -0.000500
vn -1.000000 0.000000 0.000000
vn -1.000000 0.000000 0.000000
vn -1.000000 0.000000 0.000000
vn -1.000000 0.000000 0.000000
vn 0.000000 -1.000000 0.000000
vn 0.000000 -1.000000 0.000000
vn 0.000000 -1.000000 0.000000
vn 0.000000 -1.000000 0.000000
vn 1.000000 0.000000 0.000000
vn 1.000000 0.000000 0.000000
vn 1.000000 0.000000 0.000000
vn 1.000000 0.000000 0.000000
vn 0.000000 1.000000 0.000000
vn 0.000000 1.000000 0.000000
vn 0.000000 1.000000 0.000000
vn 0.000000 1.000000 0.000000
vn 0.700900 0.000000 0.713200
vn 0.700900 0.000000 0.713200
vn 0.700900 0.000000 0.713200
vn 0.700900 0.000000 0.713200
vn 0.000000 1.000000 0.000000
vn 0.000000 1.000000 0.000000
vn 0.000000 0.000000 1.000000
vn 0.000000 0.000000 1.000000
vn 0.000000 0.000000 1.000000
vn 0.000000 0.000000 1.000000
vn 0.000000 1.000000 0.000000
vn 0.000000 1.000000 0.000000
vn 0.000000 0.000000 1.000000
vn 0.000000 0.000000 1.000000
vn 0.000000 0.000000 1.000000
vn 0.000000 0.000000 1.000000
vn 0.000000 1.000000 0.000000
vn 0.000000 1.000000 0.000000
vn 0.000000 1.000000 0.000000
vn 0.000000 1.000000 0.000000
vn -0.715500 0.000000 0.698600
vn -0.715500 0.000000 0.698600
vn -0.715500 0.000000 0.698600
vn -0.715500 0.000000 0.698600
vn 0.000000 1.000000 0.000000
vn 0.000000 1.000000 0.000000
vn -1.000000 0.000000 0.000000
vn -1.000000 0.000000 0.000000
vn -1.000000 0.000000 0.000000
vn -1.000000 0.000000 0.000000
vn 0.000000 1.000000 0.000000
vn 0.000000 1.000000 0.000000
vt -4.381240 1.700966
vt -4.502153 1.700966
vt -4.502153 1.700966
vt -4.381240 1.700966
vt 0.000000 0.000000
vt 0.000000 0.000000
vt 0.000000 0.000000
vt 0.000000 0.000000
vt 0.000000 0.000000
vt 0.000000 0.000000
vt 0.000000 0.000000
vt 0.000000 0.000000
vt 0.000000 0.000000
vt 0.000000 0.000000
vt 0.000000 0.000000
vt 0.000000 0.000000
vt 0.000000 0.000000
vt 0.000000 0.000000
vt 0.000000 0.000000
vt 0.000000 0.000000
vt 0.000000 0.000000
vt 0.000000 0.000000
vt 0.000000 0.000000
vt 0.000000 0.000000
vt 0.000000 0.000000
vt 0.000000 0.000000
vt 0.000000 0.000000
vt 0.000000 0.000000
vt 0.000000 0.000000
vt 0.000000 0.000000
vt 0.000000 0.000000
vt 0.000000 0.000000
vt 0.000000 0.000000
vt 0.000000 0.000000
vt 0.000000 0.000000
vt 0.000000 0.000000
vt 0.000000 0.000000
vt 0.000000 0.000000
vt 0.000000 0.000000
vt 0.000000 0.000000
vt 0.000000 0.000000
vt 0.000000 0.000000
vt 0.000000 0.000000
vt 0.000000 0.000000
vt 0.000000 0.000000
vt 0.000000 0.000000
vt 0.000000 0.000000
vt 0.000000 0.000000
vt 0.000000 0.000000
vt 0.000000 0.000000
vt 0.000000 0.000000
vt 0.000000 0.000000
vt 0.000000 0.000000
vt 0.000000 0.000000
vt 0.000000 0.000000
vt 0.000000 0.000000
vt 0.000000 0.000000
vt 0.000000 0.000000
vt 0.000000 0.000000
vt 0.000000 0.000000
vt 0.000000 0.000000
vt 0.000000 0.000000
vt 0.000000 0.000000
vt 0.000000 0.000000
vt 0.000000 0.000000
vt 0.000000 0.000000
vt 0.000000 0.000000
vt 0.000000 0.000000
vt 0.000000 0.000000
vt 0.000000 0.000000
vt 0.000000 0.000000
vt 0.000000 0.000000
vt 0.000000 0.000000
vt 0.000000 0.000000
vt 0.000000 0.000000
vt 0.000000 0.000000
f 1/1/1 2/2/2 3/3/3
f 1/1/1 3/3/3 4/4/4
f 5/5/5 6/6/6 7/7/7
f 5/5/5 7/7/7 8/8/8
f 9/9/9 10/10/10 11/11/11
f 9/9/9 11/11/11 12/12/12
f 13/13/13 14/14/14 15/15/15
f 13/13/13 15/15/15 16/16/16
f 17/17/17 18/18/18 19/19/19
f 17/17/17 19/19/19 20/20/20
f 21/21/21 22/22/22 23/23/23
f 21/21/21 23/23/23 24/24/24
f 25/25/25 26/26/26 27/27/27
f 25/25/25 27/27/27 28/28/28
f 29/29/29 30/30/30 31/31/31
f 29/29/29 31/31/31 32/32/32
f 33/33/33 34/34/34 35/35/35
f 33/33/33 35/35/35 36/36/36
f 37/37/37 38/38/38 39/39/39
f 37/37/37 39/39/39 40/40/40
f 41/41/41 42/42/42 43/43/43
f 41/41/41 43/43/43 44/44/44
f 45/45/45 46/46/46 47/47/47
f 45/45/45 47/47/47 48/48/48
f 44/44/44 43/43/43 49/49/49
f 44/44/44 49/49/49 50/50/50
f 51/51/51 52/52/52 53/53/53
f 51/51/51 53/53/53 54/54/54
f 50/50/50 49/49/49 55/55/55
f 50/50/50 55/55/55 56/56/56
f 57/57/57 58/58/58 59/59/59
f 57/57/57 59/59/59 60/60/60
f 61/61/61 62/62/62 63/63/63
f 61/61/61 63/63/63 64/64/64
f 65/65/65 66/66/66 67/67/67
f 65/65/65 67/67/67 68/68/68
f 64/64/64 63/63/63 69/69/69
f 64/64/64 69/69/69 70/70/70
f 71/71/71 72/72/72 73/73/73
f 71/71/71 73/73/73 74/74/74
f 70/70/70 69/69/69 75/75/75
f 70/70/70 75/75/75 76/76/76
