v -5.985607 1.665620 0.806915
v -5.982790 1.665620 0.809730
v -5.978806 1.665620 0.809729
v -5.980800 1.667248 0.804921
v -5.975991 1.665620 0.806911
v -5.975992 1.665620 0.802928
v -5.985609 1.665620 0.802931
v -5.982793 1.665620 0.800114
v -5.980800 1.574262 0.804921
v -5.985607 1.575890 0.806915
v -5.985609 1.575890 0.802931
v -5.982793 1.575890 0.800114
v -5.982793 1.576625 0.800114
v -5.985609 1.576625 0.802931
v -5.978806 1.665052 0.809729
v -5.982790 1.665052 0.809730
v -5.978810 1.665052 0.800112
v -5.978810 1.665620 0.800112
v -5.975992 1.665052 0.802928
v -5.985607 1.665052 0.806915
v -5.985609 1.665052 0.802931
v -5.978806 1.575890 0.809729
v -5.982790 1.575890 0.809730
v -5.975992 1.575890 0.802928
v -5.975991 1.575890 0.806911
v -5.978810 1.575890 0.800112
v -5.982793 1.665052 0.800114
v -5.975991 1.576625 0.806911
v -5.975992 1.576625 0.802928
v -5.975991 1.665052 0.806911
v -5.978806 1.576625 0.809729
v -5.982790 1.576625 0.809730
v -5.978810 1.576625 0.800112
v -5.985607 1.576625 0.806915
v -5.985607 -0.005106 0.806914
v -5.982790 -0.005106 0.809730
v -5.978806 -0.005106 0.809728
v -5.980799 -0.003478 0.804921
v -5.975990 -0.005106 0.806911
v -5.975992 -0.005106 0.802927
v -5.985609 -0.005106 0.802931
v -5.982793 -0.005106 0.800113
v -5.980799 -0.096464 0.804921
v -5.985607 -0.094836 0.806914
v -5.985609 -0.094836 0.802931
v -5.982793 -0.094836 0.800113
v -5.982793 -0.094101 0.800113
v -5.985609 -0.094101 0.802931
v -5.978806 -0.005674 0.809728
v -5.982790 -0.005674 0.809730
v -5.978809 -0.005674 0.800112
v -5.978809 -0.005106 0.800112
v -5.975992 -0.005674 0.802927
v -5.985607 -0.005674 0.806914
v -5.985609 -0.005674 0.802931
v -5.978806 -0.094836 0.809728
v -5.982790 -0.094836 0.809730
v -5.975992 -0.094836 0.802927
v -5.975990 -0.094836 0.806911
v -5.978809 -0.094836 0.800112
v -5.982793 -0.005674 0.800113
v -5.975990 -0.094101 0.806911
v -5.975992 -0.094101 0.802927
v -5.975990 -0.005674 0.806911
v -5.978806 -0.094101 0.809728
v -5.982790 -0.094101 0.809730
v -5.978809 -0.094101 0.800112
v -5.985607 -0.094101 0.806914
v -5.136353 0.730082 0.833523
v -5.136353 0.730082 0.819849
v -5.118757 0.730082 0.819849
v -5.127554 0.730082 0.833523
v -5.136353 0.703130 0.833731
v -5.136353 0.729685 0.833731
v -5.127554 0.729685 0.833731
v -5.127554 0.703130 0.833731
v -5.136353 0.730082 0.819580
v -5.118757 0.730082 0.819580
v -5.136353 0.730082 0.833731
v -5.127554 0.730082 0.833731
v -5.136353 0.702719 0.833731
v -5.127554 0.702719 0.833731
v -5.118757 0.729686 0.819849
v -5.127554 0.729686 0.833523
v -5.118757 0.729686 0.819580
v -5.118757 0.703130 0.819849
v -5.127554 0.703130 0.833523
v -5.118757 0.703130 0.819580
v -5.118757 0.702719 0.819849
v -5.127554 0.702719 0.833523
v -5.118757 0.702719 0.819580
v -5.136353 0.702719 0.819849
v -5.136353 0.702719 0.833523
v -5.136353 0.729685 0.819580
v -5.136353 0.703130 0.819580
v -5.136353 0.702719 0.819580
v -5.985607 0.794894 0.806914
v -5.982790 0.794894 0.809730
v -5.978806 0.794894 0.809728
v -5.980799 0.796522 0.804921
v -5.975990 0.794894 0.806911
v -5.975992 0.794894 0.802927
v -5.985609 0.794894 0.802931
v -5.982793 0.794894 0.800113
v -5.980799 0.703537 0.804921
v -5.985607 0.705164 0.806914
v -5.985609 0.705164 0.802931
v -5.982793 0.705164 0.800113
v -5.982793 0.705899 0.800113
v -5.985609 0.705899 0.802931
v -5.978806 0.794326 0.809728
v -5.982790 0.794326 0.809730
v -5.978809 0.794326 0.800112
v -5.978809 0.794894 0.800112
v -5.975992 0.794326 0.802927
v -5.985607 0.794326 0.806914
v -5.985609 0.794326 0.802931
v -5.978806 0.705164 0.809728
v -5.982790 0.705164 0.809730
v -5.975992 0.705164 0.802927
v -5.975990 0.705164 0.806911
v -5.978809 0.705164 0.800112
v -5.982793 0.794326 0.800113
v -5.975990 0.705899 0.806911
v -5.975992 0.705899 0.802927
v -5.975990 0.794326 0.806911
v -5.978806 0.705899 0.809728
v -5.982790 0.705899 0.809730
v -5.978809 0.705899 0.800112
v -5.985607 0.705899 0.806914
vn -0.767200 0.556900 0.318100
vn -0.324400 0.529200 0.784000
vn 0.318100 0.556800 0.767200
vn 0.000000 1.000000 0.000000
vn 0.784000 0.529200 0.324400
vn 0.767200 0.556900 -0.318100
vn -0.784000 0.529200 -0.324400
vn -0.318100 0.556900 -0.767300
vn 0.000000 -1.000000 0.000000
vn -0.767200 -0.556900 0.318100
vn -0.784000 -0.529200 -0.324400
vn -0.318100 -0.556900 -0.767200
vn -0.383000 0.000000 -0.923700
vn -0.924000 0.000000 -0.382400
vn 0.383000 0.000000 0.923700
vn -0.382300 0.000000 0.924000
vn 0.382300 0.000000 -0.924000
vn 0.324400 0.529200 -0.784000
vn 0.923700 0.000000 -0.383000
vn -0.923700 0.000000 0.383000
vn -0.924000 0.000000 -0.382400
vn 0.318100 -0.556900 0.767200
vn -0.324400 -0.529200 0.784000
vn 0.767200 -0.556900 -0.318100
vn 0.784000 -0.529200 0.324400
vn 0.324400 -0.529200 -0.784000
vn -0.383000 0.000000 -0.923700
vn 0.924000 0.000000 0.382300
vn 0.923700 0.000000 -0.383000
vn 0.924000 0.000000 0.382300
vn 0.383000 0.000000 0.923700
vn -0.382300 0.000000 0.924000
vn 0.382300 0.000000 -0.924000
vn -0.923700 0.000000 0.383000
vn -0.767200 0.556900 0.318100
vn -0.324400 0.529200 0.784000
vn 0.318100 0.556900 0.767200
vn 0.000000 1.000000 0.000000
vn 0.784000 0.529200 0.324400
vn 0.767200 0.556900 -0.318100
vn -0.784000 0.529200 -0.324400
vn -0.318100 0.556900 -0.767200
vn 0.000000 -1.000000 0.000000
vn -0.767200 -0.556900 0.318100
vn -0.784000 -0.529200 -0.324400
vn -0.318100 -0.556900 -0.767200
vn -0.383000 0.000000 -0.923700
vn -0.924000 0.000000 -0.382300
vn 0.383000 0.000000 0.923700
vn -0.382300 0.000000 0.924000
vn 0.382300 0.000000 -0.924000
vn 0.324400 0.529200 -0.784000
vn 0.923700 0.000000 -0.383000
vn -0.923700 0.000000 0.383000
vn -0.924000 0.000000 -0.382300
vn 0.318100 -0.556900 0.767200
vn -0.324400 -0.529200 0.784000
vn 0.767200 -0.556900 -0.318100
vn 0.784000 -0.529200 0.324400
vn 0.324400 -0.529200 -0.784000
vn -0.383000 0.000000 -0.923700
vn 0.924000 0.000000 0.382300
vn 0.923700 0.000000 -0.383000
vn 0.924000 0.000000 0.382300
vn 0.383000 0.000000 0.923700
vn -0.382300 0.000000 0.924000
vn 0.382300 0.000000 -0.924000
vn -0.923700 0.000000 0.383000
vn 0.000000 -1.000000 0.000000
vn 0.000000 -1.000000 0.000000
vn -0.730100 -0.648800 -0.214600
vn -0.604600 -0.776400 -0.177700
vn -0.000000 0.000000 -1.000000
vn -0.000000 0.000000 -1.000000
vn -0.707100 0.000000 -0.707100
vn -0.707100 0.000000 -0.707100
vn 0.000000 -0.707100 0.707100
vn -0.577300 -0.577300 0.577300
vn 0.000000 -0.707100 -0.707100
vn -0.577300 -0.577300 -0.577300
vn 0.000000 0.707100 -0.707100
vn -0.577300 0.577300 -0.577300
vn -0.959400 0.000000 -0.282000
vn -0.959400 0.000000 -0.282000
vn -0.707100 0.000000 0.707100
vn -0.959400 0.000000 -0.282000
vn -0.959400 0.000000 -0.282000
vn -0.707100 0.000000 0.707100
vn -0.730100 0.648800 -0.214500
vn -0.604600 0.776400 -0.177700
vn -0.577300 0.577300 0.577300
vn 0.000000 1.000000 0.000000
vn 0.000000 1.000000 0.000000
vn 0.000000 -0.000000 1.000000
vn 0.000000 -0.000000 1.000000
vn 0.000000 0.707100 0.707100
vn -0.767200 0.556900 0.318100
vn -0.324400 0.529200 0.784000
vn 0.318100 0.556900 0.767200
vn 0.000000 1.000000 0.000000
vn 0.784000 0.529200 0.324400
vn 0.767200 0.556900 -0.318100
vn -0.784000 0.529200 -0.324400
vn -0.318100 0.556900 -0.767200
vn 0.000000 -1.000000 0.000000
vn -0.767200 -0.556900 0.318100
vn -0.784000 -0.529200 -0.324400
vn -0.318100 -0.556900 -0.767200
vn -0.383000 0.000000 -0.923700
vn -0.924000 0.000000 -0.382300
vn 0.383000 0.000000 0.923700
vn -0.382300 0.000000 0.924000
vn 0.382300 0.000000 -0.924000
vn 0.324400 0.529200 -0.784000
vn 0.923700 0.000000 -0.383000
vn -0.923700 0.000000 0.383000
vn -0.924000 0.000000 -0.382300
vn 0.318100 -0.556900 0.767200
vn -0.324400 -0.529200 0.784000
vn 0.767200 -0.556900 -0.318100
vn 0.784000 -0.529200 0.324400
vn 0.324400 -0.529200 -0.784000
vn -0.383000 0.000000 -0.923700
vn 0.924000 0.000000 0.382300
vn 0.923700 0.000000 -0.383000
vn 0.924000 0.000000 0.382300
vn 0.383000 0.000000 0.923700
vn -0.382300 0.000000 0.924000
vn 0.382300 0.000000 -0.924000
vn -0.923700 0.000000 0.383000
vt 0.000000 0.000000
vt 0.000000 0.000000
vt 0.000000 0.000000
vt 0.000000 0.000000
vt 0.000000 0.000000
vt 0.000000 0.000000
vt 0.000000 0.000000
vt 0.000000 0.000000
vt 0.000000 0.000000
vt 0.000000 0.000000
vt 0.000000 0.000000
vt 0.000000 0.000000
vt 0.000000 0.000000
vt 0.000000 0.000000
vt 0.000000 0.000000
vt 0.000000 0.000000
vt 0.000000 0.000000
vt 0.000000 0.000000
vt 0.000000 0.000000
vt 0.000000 0.000000
vt 0.000000 0.000000
vt 0.000000 0.000000
vt 0.000000 0.000000
vt 0.000000 0.000000
vt 0.000000 0.000000
vt 0.000000 0.000000
vt 0.000000 0.000000
vt 0.000000 0.000000
vt 0.000000 0.000000
vt 0.000000 0.000000
vt 0.000000 0.000000
vt 0.000000 0.000000
vt 0.000000 0.000000
vt 0.000000 0.000000
vt 0.000000 0.000000
vt 0.000000 0.000000
vt 0.000000 0.000000
vt 0.000000 0.000000
vt 0.000000 0.000000
vt 0.000000 0.000000
vt 0.000000 0.000000
vt 0.000000 0.000000
vt 0.000000 0.000000
vt 0.000000 0.000000
vt 0.000000 0.000000
vt 0.000000 0.000000
vt 0.000000 0.000000
vt 0.000000 0.000000
vt 0.000000 0.000000
vt 0.000000 0.000000
vt 0.000000 0.000000
vt 0.000000 0.000000
vt 0.000000 0.000000
vt 0.000000 0.000000
vt 0.000000 0.000000
vt 0.000000 0.000000
vt 0.000000 0.000000
vt 0.000000 0.000000
vt 0.000000 0.000000
vt 0.000000 0.000000
vt 0.000000 0.000000
vt 0.000000 0.000000
vt 0.000000 0.000000
vt 0.000000 0.000000
vt 0.000000 0.000000
vt 0.000000 0.000000
vt 0.000000 0.000000
vt 0.000000 0.000000
vt 0.000000 0.000000
vt 0.000000 0.000000
vt 0.000000 0.000000
vt 0.000000 0.000000
vt 0.000000 0.000000
vt 0.000000 0.000000
vt 0.000000 0.000000
vt 0.000000 0.000000
vt 0.000000 0.000000
vt 0.000000 0.000000
vt 0.000000 0.000000
vt 0.000000 0.000000
vt 0.000000 0.000000
vt 0.000000 0.000000
vt 0.000000 0.000000
vt 0.000000 0.000000
vt 0.000000 0.000000
vt 0.000000 0.000000
vt 0.000000 0.000000
vt 0.000000 0.000000
vt 0.000000 0.000000
vt 0.000000 0.000000
vt 0.000000 0.000000
vt 0.000000 0.000000
vt 0.000000 0.000000
vt 0.000000 0.000000
vt 0.000000 0.000000
vt 0.000000 0.000000
vt 0.000000 0.000000
vt 0.000000 0.000000
vt 0.000000 0.000000
vt 0.000000 0.000000
vt 0.000000 0.000000
vt 0.000000 0.000000
vt 0.000000 0.000000
vt 0.000000 0.000000
vt 0.000000 0.000000
vt 0.000000 0.000000
vt 0.000000 0.000000
vt 0.000000 0.000000
vt 0.000000 0.000000
vt 0.000000 0.000000
vt 0.000000 0.000000
vt 0.000000 0.000000
vt 0.000000 0.000000
vt 0.000000 0.000000
vt 0.000000 0.000000
vt 0.000000 0.000000
vt 0.000000 0.000000
vt 0.000000 0.000000
vt 0.000000 0.000000
vt 0.000000 0.000000
vt 0.000000 0.000000
vt 0.000000 0.000000
vt 0.000000 0.000000
vt 0.000000 0.000000
vt 0.000000 0.000000
vt 0.000000 0.000000
vt 0.000000 0.000000
vt 0.000000 0.000000
vt 0.000000 0.000000
vt 0.000000 0.000000
f 1/1/1 2/2/2 3/3/3
f 1/1/1 3/3/3 4/4/4
f 5/5/5 6/6/6 4/4/4
f 5/5/5 4/4/4 3/3/3
f 7/7/7 1/1/1 4/4/4
f 7/7/7 4/4/4 8/8/8
f 9/9/9 10/10/10 11/11/11
f 9/9/9 11/11/11 12/12/12
f 13/13/13 12/12/12 11/11/11
f 13/13/13 11/11/11 14/14/14
f 15/15/15 3/3/3 2/2/2
f 15/15/15 2/2/2 16/16/16
f 17/17/17 18/18/18 6/6/6
f 17/17/17 6/6/6 19/19/19
f 20/20/20 1/1/1 7/7/7
f 20/20/20 7/7/7 21/21/21
f 10/10/10 9/9/9 22/22/22
f 10/10/10 22/22/22 23/23/23
f 9/9/9 24/24/24 25/25/25
f 9/9/9 25/25/25 22/22/22
f 9/9/9 12/12/12 26/26/26
f 9/9/9 26/26/26 24/24/24
f 17/17/17 27/27/27 8/8/8
f 17/17/17 8/8/8 18/18/18
f 28/28/28 25/25/25 24/24/24
f 28/28/28 24/24/24 29/29/29
f 15/15/15 30/30/30 5/5/5
f 15/15/15 5/5/5 3/3/3
f 16/16/16 2/2/2 1/1/1
f 16/16/16 1/1/1 20/20/20
f 8/8/8 27/27/27 21/21/21
f 8/8/8 21/21/21 7/7/7
f 31/31/31 15/15/15 16/16/16
f 31/31/31 16/16/16 32/32/32
f 33/33/33 17/17/17 19/19/19
f 33/33/33 19/19/19 29/29/29
f 34/34/34 20/20/20 21/21/21
f 34/34/34 21/21/21 14/14/14
f 33/33/33 13/13/13 27/27/27
f 33/33/33 27/27/27 17/17/17
f 5/5/5 30/30/30 19/19/19
f 5/5/5 19/19/19 6/6/6
f 31/31/31 28/28/28 30/30/30
f 31/31/31 30/30/30 15/15/15
f 32/32/32 16/16/16 20/20/20
f 32/32/32 20/20/20 34/34/34
f 27/27/27 13/13/13 14/14/14
f 27/27/27 14/14/14 21/21/21
f 30/30/30 28/28/28 29/29/29
f 30/30/30 29/29/29 19/19/19
f 22/22/22 31/31/31 32/32/32
f 22/22/22 32/32/32 23/23/23
f 26/26/26 33/33/33 29/29/29
f 26/26/26 29/29/29 24/24/24
f 10/10/10 34/34/34 14/14/14
f 10/10/10 14/14/14 11/11/11
f 26/26/26 12/12/12 13/13/13
f 26/26/26 13/13/13 33/33/33
f 22/22/22 25/25/25 28/28/28
f 22/22/22 28/28/28 31/31/31
f 23/23/23 32/32/32 34/34/34
f 23/23/23 34/34/34 10/10/10
f 18/18/18 8/8/8 4/4/4
f 18/18/18 4/4/4 6/6/6
f 35/35/35 36/36/36 37/37/37
f 35/35/35 37/37/37 38/38/38
f 39/39/39 40/40/40 38/38/38
f 39/39/39 38/38/38 37/37/37
f 41/41/41 35/35/35 38/38/38
f 41/41/41 38/38/38 42/42/42
f 43/43/43 44/44/44 45/45/45
f 43/43/43 45/45/45 46/46/46
f 47/47/47 46/46/46 45/45/45
f 47/47/47 45/45/45 48/48/48
f 49/49/49 37/37/37 36/36/36
f 49/49/49 36/36/36 50/50/50
f 51/51/51 52/52/52 40/40/40
f 51/51/51 40/40/40 53/53/53
f 54/54/54 35/35/35 41/41/41
f 54/54/54 41/41/41 55/55/55
f 44/44/44 43/43/43 56/56/56
f 44/44/44 56/56/56 57/57/57
f 43/43/43 58/58/58 59/59/59
f 43/43/43 59/59/59 56/56/56
f 43/43/43 46/46/46 60/60/60
f 43/43/43 60/60/60 58/58/58
f 51/51/51 61/61/61 42/42/42
f 51/51/51 42/42/42 52/52/52
f 62/62/62 59/59/59 58/58/58
f 62/62/62 58/58/58 63/63/63
f 49/49/49 64/64/64 39/39/39
f 49/49/49 39/39/39 37/37/37
f 50/50/50 36/36/36 35/35/35
f 50/50/50 35/35/35 54/54/54
f 42/42/42 61/61/61 55/55/55
f 42/42/42 55/55/55 41/41/41
f 65/65/65 49/49/49 50/50/50
f 65/65/65 50/50/50 66/66/66
f 67/67/67 51/51/51 53/53/53
f 67/67/67 53/53/53 63/63/63
f 68/68/68 54/54/54 55/55/55
f 68/68/68 55/55/55 48/48/48
f 67/67/67 47/47/47 61/61/61
f 67/67/67 61/61/61 51/51/51
f 39/39/39 64/64/64 53/53/53
f 39/39/39 53/53/53 40/40/40
f 65/65/65 62/62/62 64/64/64
f 65/65/65 64/64/64 49/49/49
f 66/66/66 50/50/50 54/54/54
f 66/66/66 54/54/54 68/68/68
f 61/61/61 47/47/47 48/48/48
f 61/61/61 48/48/48 55/55/55
f 64/64/64 62/62/62 63/63/63
f 64/64/64 63/63/63 53/53/53
f 56/56/56 65/65/65 66/66/66
f 56/56/56 66/66/66 57/57/57
f 60/60/60 67/67/67 63/63/63
f 60/60/60 63/63/63 58/58/58
f 44/44/44 68/68/68 48/48/48
f 44/44/44 48/48/48 45/45/45
f 60/60/60 46/46/46 47/47/47
f 60/60/60 47/47/47 67/67/67
f 56/56/56 59/59/59 62/62/62
f 56/56/56 62/62/62 65/65/65
f 57/57/57 66/66/66 68/68/68
f 57/57/57 68/68/68 44/44/44
f 52/52/52 42/42/42 38/38/38
f 52/52/52 38/38/38 40/40/40
f 69/69/69 70/70/70 71/71/71
f 69/69/69 71/71/71 72/72/72
f 73/73/73 74/74/74 75/75/75
f 73/73/73 75/75/75 76/76/76
f 70/70/70 77/77/77 78/78/78
f 70/70/70 78/78/78 71/71/71
f 74/74/74 79/79/79 80/80/80
f 74/74/74 80/80/80 75/75/75
f 81/81/81 73/73/73 76/76/76
f 81/81/81 76/76/76 82/82/82
f 79/79/79 69/69/69 72/72/72
f 79/79/79 72/72/72 80/80/80
f 72/72/72 71/71/71 83/83/83
f 72/72/72 83/83/83 84/84/84
f 71/71/71 78/78/78 85/85/85
f 71/71/71 85/85/85 83/83/83
f 84/84/84 83/83/83 86/86/86
f 84/84/84 86/86/86 87/87/87
f 83/83/83 85/85/85 88/88/88
f 83/83/83 88/88/88 86/86/86
f 87/87/87 86/86/86 89/89/89
f 87/87/87 89/89/89 90/90/90
f 86/86/86 88/88/88 91/91/91
f 86/86/86 91/91/91 89/89/89
f 92/92/92 93/93/93 90/90/90
f 92/92/92 90/90/90 89/89/89
f 94/94/94 95/95/95 88/88/88
f 94/94/94 88/88/88 85/85/85
f 96/96/96 91/91/91 88/88/88
f 96/96/96 88/88/88 95/95/95
f 81/81/81 82/82/82 90/90/90
f 81/81/81 90/90/90 93/93/93
f 85/85/85 78/78/78 77/77/77
f 85/85/85 77/77/77 94/94/94
f 89/89/89 91/91/91 96/96/96
f 89/89/89 96/96/96 92/92/92
f 80/80/80 72/72/72 84/84/84
f 80/80/80 84/84/84 75/75/75
f 75/75/75 84/84/84 87/87/87
f 75/75/75 87/87/87 76/76/76
f 76/76/76 87/87/87 90/90/90
f 76/76/76 90/90/90 82/82/82
f 97/97/97 98/98/98 99/99/99
f 97/97/97 99/99/99 100/100/100
f 101/101/101 102/102/102 100/100/100
f 101/101/101 100/100/100 99/99/99
f 103/103/103 97/97/97 100/100/100
f 103/103/103 100/100/100 104/104/104
f 105/105/105 106/106/106 107/107/107
f 105/105/105 107/107/107 108/108/108
f 109/109/109 108/108/108 107/107/107
f 109/109/109 107/107/107 110/110/110
f 111/111/111 99/99/99 98/98/98
f 111/111/111 98/98/98 112/112/112
f 113/113/113 114/114/114 102/102/102
f 113/113/113 102/102/102 115/115/115
f 116/116/116 97/97/97 103/103/103
f 116/116/116 103/103/103 117/117/117
f 106/106/106 105/105/105 118/118/118
f 106/106/106 118/118/118 119/119/119
f 105/105/105 120/120/120 121/121/121
f 105/105/105 121/121/121 118/118/118
f 105/105/105 108/108/108 122/122/122
f 105/105/105 122/122/122 120/120/120
f 113/113/113 123/123/123 104/104/104
f 113/113/113 104/104/104 114/114/114
f 124/124/124 121/121/121 120/120/120
f 124/124/124 120/120/120 125/125/125
f 111/111/111 126/126/126 101/101/101
f 111/111/111 101/101/101 99/99/99
f 112/112/112 98/98/98 97/97/97
f 112/112/112 97/97/97 116/116/116
f 104/104/104 123/123/123 117/117/117
f 104/104/104 117/117/117 103/103/103
f 127/127/127 111/111/111 112/112/112
f 127/127/127 112/112/112 128/128/128
f 129/129/129 113/113/113 115/115/115
f 129/129/129 115/115/115 125/125/125
f 130/130/130 116/116/116 117/117/117
f 130/130/130 117/117/117 110/110/110
f 129/129/129 109/109/109 123/123/123
f 129/129/129 123/123/123 113/113/113
f 101/101/101 126/126/126 115/115/115
f 101/101/101 115/115/115 102/102/102
f 127/127/127 124/124/124 126/126/126
f 127/127/127 126/126/126 111/111/111
f 128/128/128 112/112/112 116/116/116
f 128/128/128 116/116/116 130/130/130
f 123/123/123 109/109/109 110/110/110
f 123/123/123 110/110/110 117/117/117
f 126/126/126 124/124/124 125/125/125
f 126/126/126 125/125/125 115/115/115
f 118/118/118 127/127/127 128/128/128
f 118/118/118 128/128/128 119/119/119
f 122/122/122 129/129/129 125/125/125
f 122/122/122 125/125/125 120/120/120
f 106/106/106 130/130/130 110/110/110
f 106/106/106 110/110/110 107/107/107
f 122/122/122 108/108/108 109/109/109
f 122/122/122 109/109/109 129/129/129
f 118/118/118 121/121/121 124/124/124
f 118/118/118 124/124/124 127/127/127
f 119/119/119 128/128/128 130/130/130
f 119/119/119 130/130/130 106/106/106
f 114/114/114 104/104/104 100/100/100
f 114/114/114 100/100/100 102/102/102
