v -0.570085 1.283565 -4.644072
v -0.570085 1.283565 -3.017008
v -0.570085 1.791332 -3.017008
v -0.570085 1.791332 -4.644072
v -0.570085 0.640316 -5.265733
v -0.570085 -0.339083 -5.265733
v -0.570085 -0.339083 -4.644071
v -0.570085 0.640316 -4.644072
v -0.570085 1.283565 -5.265733
v -0.570085 1.283565 -4.644072
v 0.475035 1.283565 -0.555918
v -0.570085 1.283565 -1.471997
v -0.570085 0.640317 -1.471997
v 0.475035 0.640316 -0.555918
v -0.570085 -0.339083 -3.017008
v -0.570085 0.640316 -3.017008
v 2.255667 1.283565 -0.555918
v 2.255667 1.613149 -0.555918
v 1.217191 1.613149 -0.555918
v 1.217191 1.283565 -0.555918
v 1.217191 0.640316 -0.555918
v 0.475035 1.283565 -0.555918
v 0.475035 0.640316 -0.555918
v -0.570085 0.640316 -3.017008
v -0.570085 0.640317 -1.471997
v -0.570085 1.283565 -1.471997
v -0.570085 1.283565 -3.017008
v 2.255667 0.640316 -0.555918
vn -1.000000 0.000000 0.000000
vn -1.000000 0.000000 0.000000
vn -1.000000 0.000000 0.000000
vn -1.000000 0.000000 0.000000
vn -1.000000 0.000000 0.000000
vn -1.000000 0.000000 0.000000
vn -1.000000 0.000000 0.000000
vn -1.000000 0.000000 0.000000
vn -1.000000 0.000000 0.000000
vn -1.000000 0.000000 0.000000
vn -0.659200 0.000000 0.752000
vn -0.659200 0.000000 0.752000
vn -0.659200 0.000000 0.752000
vn -0.659200 0.000000 0.752000
vn -1.000000 0.000000 0.000000
vn -1.000000 0.000000 0.000000
vn 0.000000 0.000000 1.000000
vn 0.000000 0.000000 1.000000
vn 0.000000 0.000000 1.000000
vn 0.000000 0.000000 1.000000
vn 0.000000 0.000000 1.000000
vn 0.000000 0.000000 1.000000
vn 0.000000 0.000000 1.000000
vn -1.000000 0.000000 0.000000
vn -1.000000 0.000000 0.000000
vn -1.000000 0.000000 0.000000
vn -1.000000 0.000000 0.000000
vn 0.000000 0.000000 1.000000
vt 0.594508 1.499611
vt -0.189894 1.499611
vt -0.189894 1.799963
vt 0.594508 1.799963
vt 0.894508 1.119121
vt 0.894508 0.539792
vt 0.598055 0.539792
vt 0.598055 1.119121
vt 0.894508 1.499611
vt 0.598055 1.499611
vt -1.596931 1.499611
vt -0.910332 1.499611
vt -0.910332 1.119121
vt -1.596931 1.119121
vt -0.189894 0.539792
vt -0.189894 1.119121
vt -2.397853 1.499611
vt -2.397853 1.694565
vt -1.900048 1.694565
vt -1.900048 1.499611
vt -1.900048 1.119121
vt -1.596931 1.499611
vt -1.596931 1.119121
vt -0.192896 1.119121
vt -0.910332 1.119121
vt -0.910332 1.499611
vt -0.192896 1.499611
vt -2.397853 1.119121
f 1/1/1 2/2/2 3/3/3
f 1/1/1 3/3/3 4/4/4
f 5/5/5 6/6/6 7/7/7
f 5/5/5 7/7/7 8/8/8
f 9/9/9 5/5/5 8/8/8
f 9/9/9 8/8/8 10/10/10
f 11/11/11 12/12/12 13/13/13
f 11/11/11 13/13/13 14/14/14
f 7/7/7 15/15/15 16/16/16
f 7/7/7 16/16/16 8/8/8
f 17/17/17 18/18/18 19/19/19
f 17/17/17 19/19/19 20/20/20
f 21/21/21 20/20/20 22/22/22
f 21/21/21 22/22/22 23/23/23
f 24/24/24 25/25/25 26/26/26
f 24/24/24 26/26/26 27/27/27
f 8/8/8 24/24/24 27/27/27
f 8/8/8 27/27/27 10/10/10
f 28/28/28 17/17/17 20/20/20
f 28/28/28 20/20/20 21/21/21
