v 0.523997 4.024644 -5.672550
v 0.524414 4.053596 -5.672550
v 0.517072 4.060268 -5.672551
v 0.517059 4.017127 -5.672550
v 0.517059 4.000275 -5.672550
v 0.548382 4.000275 -5.672550
v 0.548382 4.017127 -5.672550
v 0.541497 4.053596 -5.672550
v 0.548382 4.060286 -5.672550
v 0.541497 4.024623 -5.672550
v 0.548382 4.078872 -5.672550
v 0.517072 4.078872 -5.672550
v 0.523997 4.024644 -5.673167
v 0.541497 4.024623 -5.673167
v 0.541497 4.024623 -5.688546
v 0.523996 4.024644 -5.688546
v 0.524414 4.053596 -5.673167
v 0.524414 4.053596 -5.688546
v 0.541497 4.053596 -5.673167
v 0.541497 4.053596 -5.688546
vn 0.301500 0.296800 0.906100
vn 0.301800 -0.306200 0.902800
vn 0.000000 0.000000 1.000000
vn 0.000000 0.000000 1.000000
vn 0.000000 0.000000 1.000000
vn 0.000000 0.000000 1.000000
vn 0.000000 0.000000 1.000000
vn -0.301500 -0.301500 0.904500
vn 0.000000 0.000000 1.000000
vn -0.301100 0.301500 0.904700
vn 0.000000 0.000000 1.000000
vn 0.000000 0.000000 1.000000
vn 0.712600 0.701600 0.000000
vn -0.706700 0.707500 0.000000
vn -0.577000 0.577700 0.577300
vn 0.582200 0.573100 0.576600
vn 0.702000 -0.712200 0.000000
vn 0.572800 -0.581100 0.578100
vn -0.707100 -0.707100 0.000000
vn -0.577300 -0.577300 0.577300
vt 0.000000 0.000000
vt 0.000000 0.000000
vt 0.000000 0.000000
vt 0.000000 0.000000
vt 0.000000 0.000000
vt 0.000000 0.000000
vt 0.000000 0.000000
vt 0.000000 0.000000
vt 0.000000 0.000000
vt 0.000000 0.000000
vt 0.000000 0.000000
vt 0.000000 0.000000
vt 0.000000 0.000000
vt 0.000000 0.000000
vt 0.000000 0.000000
vt 0.000000 0.000000
vt 0.000000 0.000000
vt 0.000000 0.000000
vt 0.000000 0.000000
vt 0.000000 0.000000
f 1/1/1 2/2/2 3/3/3
f 1/1/1 3/3/3 4/4/4
f 4/4/4 5/5/5 6/6/6
f 4/4/4 6/6/6 7/7/7
f 2/2/2 8/8/8 9/9/9
f 2/2/2 9/9/9 3/3/3
f 8/8/8 10/10/10 7/7/7
f 8/8/8 7/7/7 9/9/9
f 4/4/4 7/7/7 10/10/10
f 4/4/4 10/10/10 1/1/1
f 3/3/3 9/9/9 11/11/11
f 3/3/3 11/11/11 12/12/12
f 13/13/13 14/14/14 15/15/15
f 13/13/13 15/15/15 16/16/16
f 17/17/17 13/13/13 16/16/16
f 17/17/17 16/16/16 18/18/18
f 14/14/14 19/19/19 20/20/20
f 14/14/14 20/20/20 15/15/15
f 17/17/17 18/18/18 20/20/20
f 17/17/17 20/20/20 19/19/19
f 15/15/15 20/20/20 18/18/18
f 15/15/15 18/18/18 16/16/16
f 1/1/1 10/10/10 14/14/14
f 1/1/1 14/14/14 13/13/13
f 2/2/2 1/1/1 13/13/13
f 2/2/2 13/13/13 17/17/17
f 10/10/10 8/8/8 19/19/19
f 10/10/10 19/19/19 14/14/14
f 2/2/2 17/17/17 19/19/19
f 2/2/2 19/19/19 8/8/8
