v -0.515691 6.289820 -2.662416
v -0.515692 6.289820 -0.581725
v -8.996960 6.289820 -0.581725
v -8.996960 6.289820 -2.668808
v -0.515692 6.289820 -7.915410
v -0.515692 6.289820 -3.644559
v -8.996960 6.289820 -3.655447
v -8.996960 6.289820 -7.939771
v 0.399590 6.289820 -2.661605
v 0.399590 6.289820 -0.581725
v 0.261232 6.289820 -0.581725
v 0.261232 6.289820 -2.661806
v 0.399590 6.289820 -7.912317
v 0.399590 6.289820 -3.643176
v 0.261232 6.289820 -3.643518
v 0.261232 6.289820 -7.913083
v -0.515691 6.289820 -2.662416
v -0.515692 6.289820 -3.644559
v -0.515692 6.019322 -3.644559
v -0.515691 6.019322 -2.662416
v 0.261232 6.289820 -2.661806
v -0.515691 6.289820 -2.662416
v -0.515691 6.019322 -2.662416
v 0.261232 6.019322 -2.661806
v -0.515692 6.289820 -3.644559
v 0.261232 6.289820 -3.643518
v 0.261232 6.019322 -3.643518
v -0.515692 6.019322 -3.644559
v 0.261232 6.289820 -3.643518
v 0.261232 6.289820 -2.661806
v 0.261232 6.019322 -2.661806
v 0.261232 6.019322 -3.643518
vn 0.000000 -1.000000 -0.000000
vn 0.000000 -1.000000 -0.000000
vn 0.000000 -1.000000 -0.000000
vn 0.000000 -1.000000 -0.000000
vn 0.000000 -1.000000 -0.000000
vn 0.000000 -1.000000 -0.000000
vn 0.000000 -1.000000 -0.000000
vn 0.000000 -1.000000 -0.000000
vn 0.000000 -1.000000 -0.000000
vn 0.000000 -1.000000 -0.000000
vn 0.000000 -1.000000 -0.000000
vn 0.000000 -1.000000 -0.000000
vn 0.000000 -1.000000 -0.000000
vn 0.000000 -1.000000 -0.000000
vn 0.000000 -1.000000 -0.000000
vn 0.000000 -1.000000 -0.000000
vn -1.000000 0.000000 0.000000
vn -1.000000 0.000000 0.000000
vn -1.000000 0.000000 0.000000
vn -1.000000 0.000000 0.000000
vn -0.000800 0.000000 1.000000
vn -0.000800 0.000000 1.000000
vn -0.000800 0.000000 1.000000
vn -0.000800 0.000000 1.000000
vn 0.001300 0.000000 -1.000000
vn 0.001300 0.000000 -1.000000
vn 0.001300 0.000000 -1.000000
vn 0.001300 0.000000 -1.000000
vn 1.000000 0.000000 0.000000
vn 1.000000 0.000000 0.000000
vn 1.000000 0.000000 0.000000
vn 1.000000 0.000000 0.000000
vt 0.000000 0.000000
vt 0.000000 0.000000
vt 0.000000 0.000000
vt 0.000000 0.000000
vt 0.000000 0.000000
vt 0.000000 0.000000
vt 0.000000 0.000000
vt 0.000000 0.000000
vt 0.000000 0.000000
vt 0.000000 0.000000
vt 0.000000 0.000000
vt 0.000000 0.000000
vt 0.000000 0.000000
vt 0.000000 0.000000
vt 0.000000 0.000000
vt 0.000000 0.000000
vt 0.000000 0.000000
vt 0.000000 0.000000
vt 0.000000 0.000000
vt 0.000000 0.000000
vt 0.000000 0.000000
vt 0.000000 0.000000
vt 0.000000 0.000000
vt 0.000000 0.000000
vt 0.000000 0.000000
vt 0.000000 0.000000
vt 0.000000 0.000000
vt 0.000000 0.000000
vt 0.000000 0.000000
vt 0.000000 0.000000
vt 0.000000 0.000000
vt 0.000000 0.000000
f 1/1/1 2/2/2 3/3/3
f 1/1/1 3/3/3 4/4/4
f 5/5/5 6/6/6 7/7/7
f 5/5/5 7/7/7 8/8/8
f 6/6/6 1/1/1 4/4/4
f 6/6/6 4/4/4 7/7/7
f 9/9/9 10/10/10 11/11/11
f 9/9/9 11/11/11 12/12/12
f 13/13/13 14/14/14 15/15/15
f 13/13/13 15/15/15 16/16/16
f 14/14/14 9/9/9 12/12/12
f 14/14/14 12/12/12 15/15/15
f 12/12/12 11/11/11 2/2/2
f 12/12/12 2/2/2 1/1/1
f 16/16/16 15/15/15 6/6/6
f 16/16/16 6/6/6 5/5/5
f 17/17/17 18/18/18 19/19/19
f 17/17/17 19/19/19 20/20/20
f 21/21/21 22/22/22 23/23/23
f 21/21/21 23/23/23 24/24/24
f 25/25/25 26/26/26 27/27/27
f 25/25/25 27/27/27 28/28/28
f 29/29/29 30/30/30 31/31/31
f 29/29/29 31/31/31 32/32/32
