v -6.852776 -0.339082 -5.685103
v -6.852776 -0.339082 -6.810902
v -7.794534 -0.339082 -6.810902
v -7.794534 -0.339082 -5.685103
v -6.718419 -0.339082 -5.685103
v -6.718419 -0.339082 -6.810902
v -7.794534 -0.339082 -6.810902
v -6.852776 -0.339082 -6.810902
v -6.852776 -0.339082 -6.963404
v -7.794534 -0.339082 -6.963404
v -7.794534 -0.677564 -6.810902
v -7.794534 -0.677564 -6.963404
v -7.794534 -0.841072 -6.963404
v -7.794534 -0.841072 -6.810902
v -7.794534 -0.677564 -5.464607
v -7.794534 -0.677564 -5.685103
v -7.794534 -0.841072 -5.685103
v -7.794534 -0.841072 -5.464607
v -6.852776 -0.677564 -5.244111
v -7.794534 -0.677564 -5.244111
v -7.794534 -0.841072 -5.244111
v -6.852776 -0.841072 -5.244111
v -6.852776 -0.841072 -5.244111
v -7.794534 -0.841072 -5.244111
v -7.794534 -0.841072 -5.023614
v -6.852776 -0.841072 -5.023614
v -7.794534 -0.841072 -5.685103
v -7.794534 -0.841072 -6.810902
v -7.794534 -1.004581 -6.810902
v -7.794534 -1.004581 -5.685103
v -7.794534 -0.841072 -6.963404
v -7.794534 -1.004581 -6.963404
v -7.794534 -0.841072 -5.464607
v -7.794534 -1.004581 -5.464607
v -7.794534 -1.004581 -5.685103
v -7.794534 -1.004581 -6.810902
v -7.794534 -1.168090 -6.810902
v -7.794534 -1.168090 -5.685103
v -7.794534 -1.004581 -6.963404
v -7.794534 -1.168090 -6.963404
v -7.794534 -1.004581 -5.464607
v -7.794534 -1.168090 -5.464607
v -7.794534 -0.841072 -5.244111
v -7.794534 -0.677564 -5.244111
v -7.794534 -1.168090 -5.244111
v -7.794534 -1.004581 -5.244111
v -7.794534 -1.168090 -5.023614
v -7.794534 -1.004581 -5.023614
v -7.794534 -0.387430 -5.685103
v -7.794534 -0.387430 -6.810902
v -7.794534 -0.514055 -6.810902
v -7.794534 -0.514055 -5.685103
v -7.794534 -0.339082 -6.810902
v -7.794534 -0.339082 -6.963404
v -7.794534 -0.387430 -6.963404
v -7.794534 -0.514055 -5.464607
v -7.794534 -0.677564 -5.685103
v -7.794534 -0.677564 -5.464607
v -7.794534 -0.514055 -6.963404
v -7.794534 -0.677564 -6.963404
v -7.794534 -0.677564 -6.810902
v -6.852776 -1.004581 -5.023614
v -7.794534 -1.004581 -5.023614
v -7.794534 -1.004581 -4.803118
v -6.852776 -1.004581 -4.803118
v -6.852776 -1.004581 -4.803118
v -7.794534 -1.004581 -4.803118
v -7.794534 -1.168090 -4.803118
v -6.852776 -1.168090 -4.803118
v -6.852776 -0.387430 -5.685103
v -7.794534 -0.387430 -5.685103
v -7.794534 -0.514055 -5.685103
v -6.852776 -0.514055 -5.685103
v -6.852776 -0.514055 -5.685103
v -7.794534 -0.514055 -5.685103
v -7.794534 -0.514055 -5.464607
v -6.852776 -0.514055 -5.464607
v -6.852776 -0.514055 -5.464607
v -7.794534 -0.514055 -5.464607
v -7.794534 -0.677564 -5.464607
v -6.852776 -0.677564 -5.464607
v -6.852776 -0.677564 -5.464607
v -7.794534 -0.677564 -5.464607
v -7.794534 -0.677564 -5.244111
v -6.852776 -0.677564 -5.244111
v -6.852776 -0.841072 -5.023614
v -7.794534 -0.841072 -5.023614
v -7.794534 -1.004581 -5.023614
v -6.852776 -1.004581 -5.023614
v -7.794534 -1.004581 -5.244111
v -7.794534 -0.841072 -5.244111
v -7.794534 -1.004581 -5.023614
v -7.794534 -0.841072 -5.023614
v -7.794534 -1.168090 -4.803118
v -7.794534 -1.004581 -4.803118
v -7.794534 -0.339082 -5.685103
v -6.852776 -0.339082 -5.685103
v -7.794534 -0.339082 -5.685103
v -7.794534 -0.387430 -5.685103
v -6.852776 -0.387430 -5.685103
vn 0.000000 1.000000 0.000000
vn 0.000000 1.000000 0.000000
vn 0.000000 1.000000 0.000000
vn 0.000000 1.000000 0.000000
vn 0.000000 1.000000 0.000000
vn 0.000000 1.000000 0.000000
vn 0.000000 1.000000 0.000000
vn 0.000000 1.000000 0.000000
vn 0.000000 1.000000 0.000000
vn 0.000000 1.000000 0.000000
vn -1.000000 0.000000 0.000000
vn -1.000000 0.000000 0.000000
vn -1.000000 0.000000 0.000000
vn -1.000000 0.000000 0.000000
vn -1.000000 0.000000 0.000000
vn -1.000000 0.000000 0.000000
vn -1.000000 0.000000 0.000000
vn -1.000000 0.000000 0.000000
vn 0.000000 0.000000 1.000000
vn 0.000000 0.000000 1.000000
vn 0.000000 0.000000 1.000000
vn 0.000000 0.000000 1.000000
vn 0.000000 1.000000 0.000000
vn 0.000000 1.000000 0.000000
vn 0.000000 1.000000 0.000000
vn 0.000000 1.000000 0.000000
vn -1.000000 0.000000 0.000000
vn -1.000000 0.000000 0.000000
vn -1.000000 0.000000 0.000000
vn -1.000000 0.000000 0.000000
vn -1.000000 0.000000 0.000000
vn -1.000000 0.000000 0.000000
vn -1.000000 0.000000 0.000000
vn -1.000000 0.000000 0.000000
vn -1.000000 0.000000 0.000000
vn -1.000000 0.000000 0.000000
vn -1.000000 0.000000 0.000000
vn -1.000000 0.000000 0.000000
vn -1.000000 0.000000 0.000000
vn -1.000000 0.000000 0.000000
vn -1.000000 0.000000 0.000000
vn -1.000000 0.000000 0.000000
vn -1.000000 0.000000 0.000000
vn -1.000000 0.000000 0.000000
vn -1.000000 0.000000 0.000000
vn -1.000000 0.000000 0.000000
vn -1.000000 0.000000 0.000000
vn -1.000000 0.000000 0.000000
vn -1.000000 0.000000 0.000000
vn -1.000000 0.000000 0.000000
vn -1.000000 0.000000 0.000000
vn -1.000000 0.000000 0.000000
vn -1.000000 0.000000 0.000000
vn -1.000000 0.000000 0.000000
vn -1.000000 0.000000 0.000000
vn -1.000000 0.000000 0.000000
vn -1.000000 0.000000 0.000000
vn -1.000000 0.000000 0.000000
vn -1.000000 0.000000 0.000000
vn -1.000000 0.000000 0.000000
vn -1.000000 0.000000 0.000000
vn 0.000000 1.000000 0.000000
vn 0.000000 1.000000 0.000000
vn 0.000000 1.000000 0.000000
vn 0.000000 1.000000 0.000000
vn 0.000000 0.000000 1.000000
vn 0.000000 0.000000 1.000000
vn 0.000000 0.000000 1.000000
vn 0.000000 0.000000 1.000000
vn 0.000000 0.000000 1.000000
vn 0.000000 0.000000 1.000000
vn 0.000000 0.000000 1.000000
vn 0.000000 0.000000 1.000000
vn 0.000000 1.000000 0.000000
vn 0.000000 1.000000 0.000000
vn 0.000000 1.000000 0.000000
vn 0.000000 1.000000 0.000000
vn 0.000000 0.000000 1.000000
vn 0.000000 0.000000 1.000000
vn 0.000000 0.000000 1.000000
vn 0.000000 0.000000 1.000000
vn 0.000000 1.000000 0.000000
vn 0.000000 1.000000 0.000000
vn 0.000000 1.000000 0.000000
vn 0.000000 1.000000 0.000000
vn 0.000000 0.000000 1.000000
vn 0.000000 0.000000 1.000000
vn 0.000000 0.000000 1.000000
vn 0.000000 0.000000 1.000000
vn -1.000000 0.000000 0.000000
vn -1.000000 0.000000 0.000000
vn -1.000000 0.000000 0.000000
vn -1.000000 0.000000 0.000000
vn -1.000000 0.000000 0.000000
vn -1.000000 0.000000 0.000000
vn -1.000000 0.000000 0.000000
vn 0.000000 0.000000 1.000000
vn 0.000000 0.000000 1.000000
vn 0.000000 0.000000 1.000000
vn 0.000000 0.000000 1.000000
vt 0.260008 0.448233
vt 0.260007 -0.114666
vt 0.730886 -0.114667
vt 0.730887 0.448232
vt 0.192830 0.448233
vt 0.192829 -0.114666
vt -0.269114 -0.114666
vt -0.739993 -0.114665
vt -0.739993 -0.190916
vt -0.269114 -0.190917
vt 0.278333 -0.453669
vt 0.278333 -0.529920
vt 0.156210 -0.529920
vt 0.156211 -0.453669
vt 0.278334 0.219478
vt 0.278334 0.109230
vt 0.156211 0.109230
vt 0.156211 0.219478
vt 0.541562 0.211323
vt 0.541564 0.807234
vt 0.449039 0.807233
vt 0.449037 0.211323
vt 0.442355 0.211323
vt 0.442357 0.807233
vt 0.302836 0.807233
vt 0.302832 0.211323
vt 0.111665 0.109230
vt 0.111664 -0.453669
vt -0.010458 -0.453669
vt -0.010458 0.109230
vt 0.111664 -0.529920
vt -0.010458 -0.529920
vt 0.111665 0.219478
vt -0.010457 0.219478
vt -0.056118 0.109230
vt -0.056118 -0.453669
vt -0.178241 -0.453669
vt -0.178240 0.109230
vt -0.056118 -0.529920
vt -0.178241 -0.529920
vt -0.056117 0.219478
vt -0.178240 0.219478
vt 0.156212 0.329726
vt 0.278334 0.329726
vt -0.178240 0.329726
vt -0.056117 0.329726
vt -0.178240 0.439974
vt -0.056117 0.439974
vt 0.510902 0.109230
vt 0.510901 -0.453670
vt 0.445559 -0.453669
vt 0.445560 0.109230
vt 0.576244 -0.453670
vt 0.576244 -0.529921
vt 0.510901 -0.529921
vt 0.445560 0.219478
vt 0.323437 0.109230
vt 0.323437 0.219478
vt 0.445559 -0.529921
vt 0.323436 -0.529920
vt 0.323436 -0.453669
vt 0.107850 0.211324
vt 0.107856 0.807233
vt -0.031664 0.807234
vt -0.031673 0.211325
vt 0.044056 0.211325
vt 0.044065 0.807234
vt -0.048458 0.807235
vt -0.048470 0.211327
vt 0.951375 0.211324
vt 0.951375 0.807234
vt 0.879722 0.807234
vt 0.879722 0.211324
vt 0.919813 0.211324
vt 0.919814 0.807234
vt 0.780292 0.807234
vt 0.780291 0.211324
vt 0.740200 0.211324
vt 0.740200 0.807234
vt 0.647675 0.807234
vt 0.647675 0.211324
vt 0.608697 0.211324
vt 0.608697 0.807234
vt 0.469176 0.807234
vt 0.469175 0.211323
vt 0.276104 0.211323
vt 0.276109 0.807233
vt 0.183585 0.807233
vt 0.183579 0.211324
vt -0.010457 0.329726
vt 0.111665 0.329726
vt -0.010457 0.439974
vt 0.111666 0.439974
vt -0.178239 0.550222
vt -0.056117 0.550222
vt 0.576245 0.109230
vt 0.260008 0.460325
vt 0.730887 0.460325
vt 0.730887 0.499443
vt 0.260008 0.499444
f 1/1/1 2/2/2 3/3/3
f 1/1/1 3/3/3 4/4/4
f 5/5/5 6/6/6 2/2/2
f 5/5/5 2/2/2 1/1/1
f 7/7/7 8/8/8 9/9/9
f 7/7/7 9/9/9 10/10/10
f 11/11/11 12/12/12 13/13/13
f 11/11/11 13/13/13 14/14/14
f 15/15/15 16/16/16 17/17/17
f 15/15/15 17/17/17 18/18/18
f 19/19/19 20/20/20 21/21/21
f 19/19/19 21/21/21 22/22/22
f 23/23/23 24/24/24 25/25/25
f 23/23/23 25/25/25 26/26/26
f 16/16/16 11/11/11 14/14/14
f 16/16/16 14/14/14 17/17/17
f 27/27/27 28/28/28 29/29/29
f 27/27/27 29/29/29 30/30/30
f 28/28/28 31/31/31 32/32/32
f 28/28/28 32/32/32 29/29/29
f 33/33/33 27/27/27 30/30/30
f 33/33/33 30/30/30 34/34/34
f 35/35/35 36/36/36 37/37/37
f 35/35/35 37/37/37 38/38/38
f 36/36/36 39/39/39 40/40/40
f 36/36/36 40/40/40 37/37/37
f 41/41/41 35/35/35 38/38/38
f 41/41/41 38/38/38 42/42/42
f 18/18/18 43/43/43 44/44/44
f 18/18/18 44/44/44 15/15/15
f 41/41/41 42/42/42 45/45/45
f 41/41/41 45/45/45 46/46/46
f 46/46/46 45/45/45 47/47/47
f 46/46/46 47/47/47 48/48/48
f 49/49/49 50/50/50 51/51/51
f 49/49/49 51/51/51 52/52/52
f 50/50/50 53/53/53 54/54/54
f 50/50/50 54/54/54 55/55/55
f 56/56/56 52/52/52 57/57/57
f 56/56/56 57/57/57 58/58/58
f 51/51/51 59/59/59 60/60/60
f 51/51/51 60/60/60 61/61/61
f 52/52/52 51/51/51 61/61/61
f 52/52/52 61/61/61 57/57/57
f 62/62/62 63/63/63 64/64/64
f 62/62/62 64/64/64 65/65/65
f 66/66/66 67/67/67 68/68/68
f 66/66/66 68/68/68 69/69/69
f 70/70/70 71/71/71 72/72/72
f 70/70/70 72/72/72 73/73/73
f 74/74/74 75/75/75 76/76/76
f 74/74/74 76/76/76 77/77/77
f 78/78/78 79/79/79 80/80/80
f 78/78/78 80/80/80 81/81/81
f 82/82/82 83/83/83 84/84/84
f 82/82/82 84/84/84 85/85/85
f 86/86/86 87/87/87 88/88/88
f 86/86/86 88/88/88 89/89/89
f 33/33/33 34/34/34 90/90/90
f 33/33/33 90/90/90 91/91/91
f 91/91/91 90/90/90 92/92/92
f 91/91/91 92/92/92 93/93/93
f 48/48/48 47/47/47 94/94/94
f 48/48/48 94/94/94 95/95/95
f 96/96/96 53/53/53 50/50/50
f 96/96/96 50/50/50 49/49/49
f 51/51/51 50/50/50 55/55/55
f 51/51/51 55/55/55 59/59/59
f 97/97/97 98/98/98 99/99/99
f 97/97/97 99/99/99 100/100/100
