v -11.600458 3.025667 -6.926167
v -11.600458 2.983803 -6.926167
v -13.255716 2.983803 -6.926167
v -13.255716 3.025667 -6.926167
v -11.600458 2.983803 -7.014041
v -11.600458 3.025667 -7.014041
v -13.255716 3.025667 -7.014041
v -13.255716 2.983803 -7.014041
v -11.600458 3.025667 -7.014041
v -11.600458 3.025667 -6.926167
v -13.255716 3.025667 -6.926167
v -13.255716 3.025667 -7.014041
v -13.255716 2.983800 -7.014042
v -11.600458 2.983803 -7.014042
v -11.600780 2.983804 -8.033729
v -13.258877 2.983803 -8.033730
vn 0.000000 0.000000 -1.000000
vn 0.000000 0.000000 -1.000000
vn 0.000000 0.000000 -1.000000
vn 0.000000 0.000000 -1.000000
vn 0.000000 0.000000 1.000000
vn 0.000000 0.000000 1.000000
vn 0.000000 0.000000 1.000000
vn 0.000000 0.000000 1.000000
vn 0.000000 -1.000000 0.000000
vn 0.000000 -1.000000 0.000000
vn 0.000000 -1.000000 0.000000
vn 0.000000 -1.000000 0.000000
vn -0.000000 1.000000 0.000000
vn -0.000000 1.000000 0.000000
vn -0.000000 1.000000 0.000000
vn -0.000000 1.000000 0.000000
vt 1.109811 -0.737836
vt 1.109811 -0.811129
vt -1.788058 -0.811129
vt -1.788058 -0.737836
vt 1.109811 2.690281
vt 1.109811 2.763574
vt -1.788058 2.763574
vt -1.788058 2.690281
vt 1.109811 -0.758191
vt 1.109811 -0.912032
vt -1.788058 -0.912033
vt -1.788058 -0.758191
vt 1.713352 -0.758189
vt 4.611220 -0.758189
vt 4.610657 1.026981
vt 1.707819 1.026981
f 1/1/1 2/2/2 3/3/3
f 1/1/1 3/3/3 4/4/4
f 5/5/5 6/6/6 7/7/7
f 5/5/5 7/7/7 8/8/8
f 9/9/9 10/10/10 11/11/11
f 9/9/9 11/11/11 12/12/12
f 13/13/13 14/14/14 15/15/15
f 13/13/13 15/15/15 16/16/16
