v -6.306614 0.729920 -9.240338
v -6.305660 0.729920 -9.226697
v -6.323215 0.729920 -9.225470
v -6.315392 0.729920 -9.239724
v -6.306629 0.702969 -9.240545
v -6.306629 0.729524 -9.240545
v -6.315406 0.729524 -9.239931
v -6.315406 0.702969 -9.239931
v -6.305642 0.729920 -9.226429
v -6.323195 0.729920 -9.225202
v -6.306629 0.729920 -9.240545
v -6.315406 0.729920 -9.239931
v -6.306629 0.702558 -9.240545
v -6.315406 0.702558 -9.239931
v -6.323215 0.729525 -9.225470
v -6.315392 0.729525 -9.239724
v -6.323195 0.729525 -9.225202
v -6.323215 0.702969 -9.225470
v -6.315392 0.702969 -9.239724
v -6.323195 0.702969 -9.225202
v -6.323215 0.702558 -9.225470
v -6.315392 0.702558 -9.239724
v -6.323195 0.702558 -9.225202
v -6.305660 0.702558 -9.226697
v -6.306614 0.702558 -9.240338
v -6.305642 0.729524 -9.226429
v -6.305642 0.702969 -9.226429
v -6.305642 0.702558 -9.226429
vn 0.000000 -1.000000 0.000000
vn 0.000000 -1.000000 0.000000
vn 0.743500 -0.648700 0.162700
vn 0.615600 -0.776300 0.135300
vn 0.069800 0.000000 0.997600
vn 0.069800 0.000000 0.997600
vn 0.754400 0.000000 0.656300
vn 0.754400 0.000000 0.656300
vn -0.049300 -0.707200 -0.705300
vn 0.535200 -0.577400 -0.616500
vn 0.049300 -0.706900 0.705600
vn 0.616000 -0.577400 0.535900
vn 0.049300 0.706900 0.705600
vn 0.616000 0.577400 0.535800
vn 0.976900 0.000000 0.213800
vn 0.976700 0.000000 0.214800
vn 0.655600 0.000000 -0.755100
vn 0.976900 0.000000 0.213800
vn 0.976700 0.000000 0.214700
vn 0.655600 0.000000 -0.755100
vn 0.743400 0.648700 0.162700
vn 0.615600 0.776300 0.135300
vn 0.535300 0.577400 -0.616400
vn 0.000000 1.000000 0.000100
vn 0.000000 1.000000 0.000000
vn -0.069800 0.000000 -0.997600
vn -0.069700 0.000000 -0.997600
vn -0.049300 0.707300 -0.705200
vt 0.000000 0.000000
vt 0.000000 0.000000
vt 0.000000 0.000000
vt 0.000000 0.000000
vt 0.000000 0.000000
vt 0.000000 0.000000
vt 0.000000 0.000000
vt 0.000000 0.000000
vt 0.000000 0.000000
vt 0.000000 0.000000
vt 0.000000 0.000000
vt 0.000000 0.000000
vt 0.000000 0.000000
vt 0.000000 0.000000
vt 0.000000 0.000000
vt 0.000000 0.000000
vt 0.000000 0.000000
vt 0.000000 0.000000
vt 0.000000 0.000000
vt 0.000000 0.000000
vt 0.000000 0.000000
vt 0.000000 0.000000
vt 0.000000 0.000000
vt 0.000000 0.000000
vt 0.000000 0.000000
vt 0.000000 0.000000
vt 0.000000 0.000000
vt 0.000000 0.000000
f 1/1/1 2/2/2 3/3/3
f 1/1/1 3/3/3 4/4/4
f 5/5/5 6/6/6 7/7/7
f 5/5/5 7/7/7 8/8/8
f 2/2/2 9/9/9 10/10/10
f 2/2/2 10/10/10 3/3/3
f 6/6/6 11/11/11 12/12/12
f 6/6/6 12/12/12 7/7/7
f 13/13/13 5/5/5 8/8/8
f 13/13/13 8/8/8 14/14/14
f 11/11/11 1/1/1 4/4/4
f 11/11/11 4/4/4 12/12/12
f 4/4/4 3/3/3 15/15/15
f 4/4/4 15/15/15 16/16/16
f 3/3/3 10/10/10 17/17/17
f 3/3/3 17/17/17 15/15/15
f 16/16/16 15/15/15 18/18/18
f 16/16/16 18/18/18 19/19/19
f 15/15/15 17/17/17 20/20/20
f 15/15/15 20/20/20 18/18/18
f 19/19/19 18/18/18 21/21/21
f 19/19/19 21/21/21 22/22/22
f 18/18/18 20/20/20 23/23/23
f 18/18/18 23/23/23 21/21/21
f 24/24/24 25/25/25 22/22/22
f 24/24/24 22/22/22 21/21/21
f 26/26/26 27/27/27 20/20/20
f 26/26/26 20/20/20 17/17/17
f 28/28/28 23/23/23 20/20/20
f 28/28/28 20/20/20 27/27/27
f 13/13/13 14/14/14 22/22/22
f 13/13/13 22/22/22 25/25/25
f 17/17/17 10/10/10 9/9/9
f 17/17/17 9/9/9 26/26/26
f 21/21/21 23/23/23 28/28/28
f 21/21/21 28/28/28 24/24/24
f 12/12/12 4/4/4 16/16/16
f 12/12/12 16/16/16 7/7/7
f 7/7/7 16/16/16 19/19/19
f 7/7/7 19/19/19 8/8/8
f 8/8/8 19/19/19 22/22/22
f 8/8/8 22/22/22 14/14/14
