v -3.378189 6.214506 -12.948197
v -3.378189 6.214506 -12.016068
v -3.370250 6.214506 -12.016068
v -3.370250 7.253534 -12.016068
v -3.384147 7.253534 -12.010821
v -3.378189 7.253534 -12.016068
v -3.378189 7.253534 -12.948197
v -1.489329 6.214507 -12.948197
v -1.497268 7.253535 -12.956136
v -1.489329 7.253535 -12.956136
v -1.489329 7.253535 -12.956136
v -1.489329 7.253535 -12.024008
v -1.489329 6.214507 -12.024008
v -1.597593 9.417022 -12.896461
v -1.597593 7.529143 -12.896461
v -3.266557 7.529143 -12.896461
v -3.266557 9.417022 -12.896461
v -1.597593 9.417022 -12.127806
v -1.597593 7.529143 -12.127805
v -1.597593 7.529143 -12.896461
v -1.597593 9.417022 -12.896461
v -3.266557 9.417022 -12.896461
v -3.266557 7.529143 -12.896461
v -3.266557 7.529143 -12.127804
v -3.266557 9.417022 -12.127805
v -3.266557 9.417022 -12.127805
v -3.266557 7.529143 -12.127804
v -1.597593 7.529143 -12.127805
v -1.597593 9.417022 -12.127806
v -1.497268 6.214507 -12.016069
v -1.497268 7.253535 -12.016069
v -3.370250 7.253534 -12.016068
v -3.370250 6.214506 -12.016068
v -1.495849 7.483035 -12.956135
v -3.371670 7.483034 -12.956135
v -3.371670 9.417022 -12.956135
v -1.495849 9.417022 -12.956135
v -1.487910 7.483035 -12.024010
v -1.487910 7.483035 -12.948196
v -1.487910 9.417022 -12.948196
v -1.487910 9.417022 -12.016071
v -1.487910 9.417022 -12.016071
v -1.495849 9.417022 -12.016071
v -1.410222 9.495439 -12.994741
v -1.425270 9.495734 -12.991209
v -1.424446 9.495734 -12.987673
v -1.417331 9.495734 -12.983264
v -1.487910 7.483035 -12.024010
v -1.495849 9.417022 -12.016071
v -3.371670 9.417022 -12.016069
v -3.371670 7.483034 -12.016069
v -1.487910 7.483035 -12.016071
v -1.481980 7.483175 -12.010795
v -3.379608 7.483034 -12.024009
v -3.379608 9.417022 -12.024009
v -3.379608 9.417022 -12.956135
v -3.386698 9.416431 -12.959659
v -3.371670 9.417022 -12.956135
v -3.371670 7.483034 -12.956135
v -3.379608 7.483034 -12.956135
v -3.379608 7.483034 -12.956135
v -3.370250 7.253534 -12.956136
v -3.378189 7.253534 -12.948197
v -3.384146 7.253534 -12.961383
v -3.504257 9.501423 -13.018078
v -3.497148 9.495790 -13.014545
v -3.504257 9.501423 -13.018078
v -3.450187 9.495734 -11.980996
v -3.450187 9.495734 -11.988935
v -3.450187 9.495734 -11.980996
v -3.450187 9.495734 -11.980996
v -1.417331 9.495734 -11.980998
v -1.425270 9.495734 -11.980998
v -1.417331 9.495734 -11.980998
v -1.417331 9.495734 -11.980998
v -3.504257 9.501423 -13.018078
v -3.504257 9.575957 -13.018078
v -3.504257 9.575957 -13.010139
v -3.497148 9.495790 -13.014545
v -3.450187 9.495734 -11.980996
v -3.450187 9.495734 -11.988935
v -3.450131 9.419029 -11.988935
v -3.450187 9.419087 -11.980996
v -1.417331 9.495734 -11.980998
v -1.417331 9.419087 -11.980998
v -1.425270 9.419087 -11.980998
v -1.425270 9.495734 -11.980998
v -1.489329 7.253535 -12.956136
v -1.497268 7.253535 -12.956136
v -1.489329 7.253535 -12.956136
v -3.370250 7.253534 -12.016068
v -3.378189 7.253534 -12.016068
v -3.384147 7.253534 -12.010821
v -1.489329 7.253535 -12.024008
v -1.497268 7.253535 -12.016069
v -1.483372 7.253535 -12.010822
v -1.487910 7.483035 -12.024010
v -1.481980 7.483175 -12.010795
v -1.487910 7.483035 -12.016071
v -3.379608 7.483034 -12.024009
v -3.371670 7.483034 -12.016069
v -3.385539 7.483174 -12.010794
v -1.495849 7.483035 -12.956135
v -1.487910 7.483035 -12.948196
v -1.481980 7.483175 -12.961411
v -3.379608 7.483034 -12.956135
v -3.371670 7.483034 -12.956135
v -3.379608 7.483034 -12.956135
v -1.487910 9.417022 -12.016071
v -1.495849 9.417022 -12.016071
v -1.487910 9.417022 -12.016071
v -3.371670 9.417022 -12.956135
v -3.386698 9.416431 -12.959659
v -3.379608 9.417022 -12.956135
v -1.487910 9.417022 -12.948196
v -1.495849 9.417022 -12.956135
v -1.480820 9.416431 -12.959659
v -3.371670 9.417022 -12.016069
v -3.386698 9.416431 -12.012547
v -3.379608 9.417022 -12.024009
v -3.370250 7.253534 -12.956136
v -3.370250 6.214506 -12.956136
v -3.378189 6.214506 -12.948197
v -3.378189 7.253534 -12.948197
v -1.497268 6.214507 -12.016069
v -1.489329 6.214507 -12.024008
v -1.489329 7.253535 -12.024008
v -1.497268 7.253535 -12.016069
v -3.370250 7.253534 -12.016068
v -3.370250 6.214506 -12.016068
v -3.378189 6.214506 -12.016068
v -3.378189 7.253534 -12.016068
v -1.489329 6.214507 -12.948197
v -1.497268 7.253535 -12.956136
v -1.489329 7.253535 -12.956136
v -1.489329 6.214507 -12.956136
v -1.487910 9.417022 -12.016071
v -1.487910 7.483035 -12.016071
v -1.487910 7.483035 -12.024010
v -1.495849 9.417022 -12.016071
v -3.379608 7.483034 -12.956135
v -3.379608 9.417022 -12.956135
v -1.487910 9.417022 -12.948196
v -1.487910 7.483035 -12.948196
v -1.495849 7.483035 -12.956135
v -1.495849 9.417022 -12.956135
v -3.371670 9.417022 -12.016069
v -3.379608 9.417022 -12.024009
v -3.379608 7.483034 -12.024009
v -3.371670 7.483034 -12.016069
v -1.489329 6.214507 -12.948197
v -1.489329 6.214507 -12.956136
v -3.370250 6.214506 -12.956136
v -3.370250 7.253534 -12.956136
v -1.497268 7.253535 -12.956136
v -3.586412 7.371311 -11.832087
v -3.580484 7.365864 -11.837367
v -3.586412 7.371311 -11.832087
v -3.528513 7.260940 -11.883663
v -3.520575 7.260913 -11.883690
v -3.528513 7.260940 -11.883663
v -3.586412 7.371311 -11.832087
v -3.586412 7.480007 -11.832087
v -3.578473 7.480033 -11.832112
v -3.580484 7.365864 -11.837367
v -3.528513 7.260940 -11.883663
v -3.528513 7.368284 -11.883663
v -3.520575 7.368284 -11.883663
v -3.520575 7.260913 -11.883690
vn -1.000000 -0.000000 0.008500
vn -1.000000 -0.000000 0.008500
vn -1.000000 -0.000000 0.008500
vn -1.000000 -0.000000 0.008500
vn -1.000000 -0.000000 0.008500
vn -1.000000 -0.000000 0.008500
vn -1.000000 -0.000000 0.008500
vn 1.000000 -0.000000 -0.004300
vn 1.000000 -0.000000 -0.004300
vn 1.000000 -0.000000 -0.004300
vn 1.000000 -0.000000 -0.004300
vn 1.000000 -0.000000 -0.004300
vn 1.000000 -0.000000 -0.004300
vn 0.000000 0.000000 -1.000000
vn 0.000000 0.000000 -1.000000
vn 0.000000 0.000000 -1.000000
vn 0.000000 0.000000 -1.000000
vn 1.000000 0.000000 0.000000
vn 1.000000 0.000000 0.000000
vn 1.000000 0.000000 0.000000
vn 1.000000 0.000000 0.000000
vn -1.000000 -0.000000 0.000000
vn -1.000000 -0.000000 0.000000
vn -1.000000 -0.000000 0.000000
vn -1.000000 -0.000000 0.000000
vn 0.000000 0.000000 1.000000
vn 0.000000 0.000000 1.000000
vn 0.000000 0.000000 1.000000
vn 0.000000 0.000000 1.000000
vn 0.000000 0.000000 1.000000
vn 0.000000 0.000000 1.000000
vn 0.000000 0.000000 1.000000
vn 0.000000 0.000000 1.000000
vn 0.000000 0.000000 -1.000000
vn 0.000000 0.000000 -1.000000
vn 0.000000 0.000000 -1.000000
vn 0.000000 0.000000 -1.000000
vn 1.000000 -0.000000 0.004300
vn 1.000000 -0.000000 0.004300
vn 1.000000 -0.000000 0.004300
vn 1.000000 -0.000000 0.004300
vn 1.000000 -0.000000 0.004300
vn 1.000000 -0.000000 0.004300
vn 0.013900 0.999800 -0.013900
vn 0.013900 0.999800 -0.013900
vn 0.013900 0.999800 -0.013900
vn 0.013900 0.999800 -0.013900
vn 0.002100 0.000000 1.000000
vn 0.002100 0.000000 1.000000
vn 0.002100 0.000000 1.000000
vn 0.002100 0.000000 1.000000
vn 0.002100 0.000000 1.000000
vn 0.002100 0.000000 1.000000
vn -1.000000 -0.000000 -0.008500
vn -1.000000 -0.000000 -0.008500
vn -1.000000 -0.000000 -0.008500
vn -1.000000 -0.000000 -0.008500
vn -1.000000 -0.000000 -0.008500
vn -1.000000 -0.000000 -0.008500
vn -1.000000 -0.000000 -0.008500
vn -1.000000 -0.000000 -0.008500
vn 0.000000 -1.000000 0.000000
vn 0.000000 -1.000000 0.000000
vn 0.000000 -1.000000 0.000000
vn 0.000000 0.000000 1.000000
vn 0.000000 0.000000 1.000000
vn 0.000000 0.000000 1.000000
vn 0.000000 0.000000 1.000000
vn 0.000000 0.000000 1.000000
vn 0.000000 0.000000 1.000000
vn 0.000000 0.000000 1.000000
vn 0.000000 0.000000 1.000000
vn 0.000000 0.000000 1.000000
vn 0.000000 0.000000 1.000000
vn 0.000000 0.000000 1.000000
vn 0.860400 0.054000 -0.506700
vn 0.860400 0.054000 -0.506700
vn 0.860400 0.054000 -0.506700
vn 0.860400 0.054000 -0.506700
vn -1.000000 -0.000400 -0.003500
vn -1.000000 -0.000400 -0.003500
vn -1.000000 -0.000400 -0.003500
vn -1.000000 -0.000400 -0.003500
vn 0.000000 0.000000 -1.000000
vn 0.000000 0.000000 -1.000000
vn 0.000000 0.000000 -1.000000
vn 0.000000 0.000000 -1.000000
vn 0.000000 0.000000 1.000000
vn 0.000000 0.000000 1.000000
vn 0.000000 0.000000 1.000000
vn 0.000000 1.000000 0.000000
vn 0.000000 1.000000 0.000000
vn 0.000000 1.000000 0.000000
vn 0.000000 1.000000 0.000000
vn 0.000000 1.000000 0.000000
vn 0.000000 1.000000 0.000000
vn 0.023700 -0.999700 0.000000
vn 0.023700 -0.999700 0.000000
vn 0.023700 -0.999700 0.000000
vn -0.007300 -0.999900 0.007400
vn -0.007300 -0.999900 0.007400
vn -0.007300 -0.999900 0.007400
vn -0.007300 0.999900 0.007300
vn -0.007300 0.999900 0.007300
vn -0.007300 0.999900 0.007300
vn 0.000000 0.000000 1.000000
vn 0.000000 0.000000 1.000000
vn 0.000000 0.000000 1.000000
vn 0.000000 0.000000 1.000000
vn 0.000000 0.000000 1.000000
vn 0.000000 0.000000 1.000000
vn 0.000000 0.986200 -0.165500
vn 0.000000 0.986200 -0.165500
vn 0.000000 0.986200 -0.165500
vn -0.031800 -0.999000 0.031900
vn -0.031800 -0.999000 0.031900
vn -0.031800 -0.999000 0.031900
vn 0.031800 -0.999000 -0.031800
vn 0.031800 -0.999000 -0.031800
vn 0.031800 -0.999000 -0.031800
vn -0.707100 0.000000 -0.707200
vn -0.707100 0.000000 -0.707200
vn -0.707100 0.000000 -0.707200
vn -0.707100 0.000000 -0.707200
vn 0.707000 0.000000 0.707200
vn 0.707000 0.000000 0.707200
vn 0.707000 0.000000 0.707200
vn 0.707000 0.000000 0.707200
vn 0.000000 0.000000 -1.000000
vn 0.000000 0.000000 -1.000000
vn 0.000000 0.000000 -1.000000
vn 0.000000 0.000000 -1.000000
vn -0.707100 -0.005400 -0.707100
vn -0.707100 -0.005400 -0.707100
vn -0.707100 -0.005400 -0.707100
vn -0.707100 -0.005400 -0.707100
vn 0.707000 0.002900 -0.707200
vn 0.707000 0.002900 -0.707200
vn 0.707000 0.002900 -0.707200
vn 0.707000 0.002900 -0.707200
vn 0.000000 0.000000 -1.000000
vn 0.000000 0.000000 -1.000000
vn 0.707100 0.000000 -0.707100
vn 0.707100 0.000000 -0.707100
vn 0.707100 0.000000 -0.707100
vn 0.707100 0.000000 -0.707100
vn -0.707100 0.000000 0.707100
vn -0.707100 0.000000 0.707100
vn -0.707100 0.000000 0.707100
vn -0.707100 0.000000 0.707100
vn 0.002100 0.000000 -1.000000
vn 0.002100 0.000000 -1.000000
vn 0.002100 0.000000 -1.000000
vn 0.002100 0.000000 -1.000000
vn 0.002100 0.000000 -1.000000
vn 0.000000 0.000000 1.000000
vn 0.000000 0.000000 1.000000
vn 0.000000 0.000000 1.000000
vn 0.000000 0.000000 1.000000
vn 0.000000 0.000000 1.000000
vn 0.000000 0.000000 1.000000
vn -0.348700 0.025200 -0.936900
vn -0.348700 0.025200 -0.936900
vn -0.348700 0.025200 -0.936900
vn -0.348700 0.025200 -0.936900
vn -0.001700 0.000100 -1.000000
vn -0.001700 0.000100 -1.000000
vn -0.001700 0.000100 -1.000000
vn -0.001700 0.000100 -1.000000
vt 0.974098 0.607253
vt 0.508034 0.607253
vt 0.508034 0.607253
vt 0.508034 1.126767
vt 0.505410 1.126767
vt 0.508034 1.126767
vt 0.974098 1.126767
vt 0.974098 0.607253
vt 0.978068 1.126767
vt 0.978068 1.126767
vt 0.978068 1.126767
vt 0.512004 1.126767
vt 0.512004 0.607253
vt 0.701204 -0.222072
vt 0.701204 -0.735428
vt -0.133279 -0.735428
vt -0.133279 -0.222072
vt 0.563903 -0.222072
vt 0.563902 -0.735428
vt 0.948231 -0.735428
vt 0.948231 -0.222072
vt 0.948231 -0.222072
vt 0.948231 -0.735428
vt 0.563902 -0.735428
vt 0.563903 -0.222072
vt 0.866721 -0.222072
vt 0.866721 -0.735428
vt 1.701204 -0.735428
vt 1.701204 -0.222072
vt 0.806815 0.607253
vt 0.806815 1.126767
vt -0.184891 1.126767
vt -0.184891 0.607253
vt 0.796061 0.241517
vt -0.274367 0.241517
vt -0.274367 1.208511
vt 0.796061 1.208511
vt 0.512005 0.241517
vt 0.974098 0.241517
vt 0.974098 1.208511
vt 0.508036 1.208511
vt 0.508036 1.208511
vt 0.508036 1.208511
vt 0.000000 0.000000
vt 0.000000 0.000000
vt 0.000000 0.000000
vt 0.000000 0.000000
vt 0.792796 0.241517
vt 0.788672 1.208511
vt -0.185681 1.208511
vt -0.185681 0.241517
vt 0.792796 0.241517
vt 0.795876 0.241588
vt 0.512005 0.241517
vt 0.512004 1.208511
vt 0.978067 1.208511
vt 0.979829 1.208216
vt 0.978067 1.208511
vt 0.978067 0.241517
vt 0.978067 0.241517
vt 0.978067 0.241517
vt -0.273656 1.126767
vt -0.278187 1.126767
vt -0.281587 1.126767
vt 0.000000 0.000000
vt 0.000000 0.000000
vt 0.000000 0.000000
vt 0.000000 0.000000
vt 0.000000 0.000000
vt 0.000000 0.000000
vt 0.000000 0.000000
vt 0.000000 0.000000
vt 0.000000 0.000000
vt 0.000000 0.000000
vt 0.000000 0.000000
vt 0.000000 0.000000
vt 1.005069 0.287979
vt 0.000000 0.000000
vt 0.000000 0.000000
vt 0.000000 0.000000
vt 0.000000 0.000000
vt 0.000000 0.000000
vt 0.494467 0.209515
vt 0.000000 0.000000
vt 0.787365 0.209543
vt 0.000000 0.000000
vt 0.000000 0.000000
vt 0.978068 1.126767
vt 0.978068 1.126767
vt 0.978068 1.126767
vt -0.184891 1.126767
vt -0.189095 1.126767
vt -0.192249 1.126767
vt 0.512004 1.126767
vt 0.508034 1.126767
vt 0.505410 1.126767
vt 0.512005 0.241517
vt 0.505398 0.241588
vt 0.508036 0.241517
vt 0.512005 0.241517
vt 0.508036 0.241517
vt 0.505398 0.241588
vt 0.796061 0.241517
vt 0.800591 0.241517
vt 0.803975 0.241587
vt 0.978067 0.241517
vt 0.978067 0.241517
vt 0.978067 0.241517
vt 0.508036 1.208511
vt 0.508036 1.208511
vt 0.508036 1.208511
vt -0.274367 1.208511
vt -0.282943 1.208216
vt -0.278897 1.208511
vt 0.974098 1.208511
vt 0.978067 1.208511
vt 0.979829 1.208216
vt -0.185681 1.208511
vt -0.193487 1.208216
vt -0.189804 1.208511
vt -0.273656 1.126767
vt -0.273656 0.607253
vt -0.278187 0.607253
vt -0.278187 1.126767
vt 0.806815 0.607253
vt 0.811018 0.607253
vt 0.811018 1.126767
vt 0.806815 1.126767
vt -0.184891 1.126767
vt -0.184891 0.607253
vt -0.189095 0.607253
vt -0.189095 1.126767
vt 0.974098 0.607253
vt 0.978068 1.126767
vt 0.978068 1.126767
vt 0.978068 0.607253
vt 0.508036 1.208511
vt 0.508036 0.241517
vt 0.512005 0.241517
vt 0.508036 1.208511
vt -0.278897 0.241517
vt -0.278897 1.208511
vt 0.974098 1.208511
vt 0.974098 0.241517
vt 0.978067 0.241517
vt 0.978067 1.208511
vt -0.185681 1.208511
vt -0.189804 1.208511
vt -0.189804 0.241517
vt -0.185681 0.241517
vt 0.799882 0.607253
vt 0.799882 0.607253
vt -0.273656 0.607253
vt -0.273656 1.126767
vt 0.795351 1.126767
vt 0.000000 0.000000
vt 0.000000 0.000000
vt 0.000000 0.000000
vt 0.000000 0.000000
vt 0.000000 0.000000
vt 0.000000 0.000000
vt 0.000000 0.000000
vt -0.289237 0.240017
vt 0.000000 0.000000
vt 0.000000 0.000000
vt 0.000000 0.000000
vt -0.260287 0.184142
vt 0.000000 0.000000
vt 0.000000 0.000000
f 1/1/1 2/2/2 3/3/3
f 1/1/1 3/3/3 4/4/4
f 1/1/1 4/4/4 5/5/5
f 1/1/1 5/5/5 6/6/6
f 1/1/1 6/6/6 7/7/7
f 8/8/8 9/9/9 10/10/10
f 8/8/8 10/10/10 11/11/11
f 8/8/8 11/11/11 12/12/12
f 8/8/8 12/12/12 13/13/13
f 14/14/14 15/15/15 16/16/16
f 14/14/14 16/16/16 17/17/17
f 18/18/18 19/19/19 20/20/20
f 18/18/18 20/20/20 21/21/21
f 22/22/22 23/23/23 24/24/24
f 22/22/22 24/24/24 25/25/25
f 26/26/26 27/27/27 28/28/28
f 26/26/26 28/28/28 29/29/29
f 30/30/30 31/31/31 32/32/32
f 30/30/30 32/32/32 33/33/33
f 34/34/34 35/35/35 36/36/36
f 34/34/34 36/36/36 37/37/37
f 38/38/38 39/39/39 40/40/40
f 38/38/38 40/40/40 41/41/41
f 38/38/38 41/41/41 42/42/42
f 38/38/38 42/42/42 43/43/43
f 44/44/44 45/45/45 46/46/46
f 44/44/44 46/46/46 47/47/47
f 48/48/48 49/49/49 50/50/50
f 48/48/48 50/50/50 51/51/51
f 48/48/48 51/51/51 52/52/52
f 48/48/48 52/52/52 53/53/53
f 54/54/54 55/55/55 56/56/56
f 54/54/54 56/56/56 57/57/57
f 54/54/54 57/57/57 58/58/58
f 54/54/54 58/58/58 59/59/59
f 54/54/54 59/59/59 60/60/60
f 54/54/54 60/60/60 61/61/61
f 62/62/62 63/63/63 64/64/64
f 65/65/65 66/66/66 67/67/67
f 68/68/68 69/69/69 70/70/70
f 68/68/68 70/70/70 71/71/71
f 72/72/72 73/73/73 74/74/74
f 72/72/72 74/74/74 75/75/75
f 76/76/76 77/77/77 78/78/78
f 76/76/76 78/78/78 79/79/79
f 80/80/80 81/81/81 82/82/82
f 80/80/80 82/82/82 83/83/83
f 84/84/84 85/85/85 86/86/86
f 84/84/84 86/86/86 87/87/87
f 88/88/88 89/89/89 90/90/90
f 91/91/91 92/92/92 93/93/93
f 94/94/94 95/95/95 96/96/96
f 97/97/97 98/98/98 99/99/99
f 100/100/100 101/101/101 102/102/102
f 103/103/103 104/104/104 105/105/105
f 106/106/106 107/107/107 108/108/108
f 109/109/109 110/110/110 111/111/111
f 112/112/112 113/113/113 114/114/114
f 115/115/115 116/116/116 117/117/117
f 118/118/118 119/119/119 120/120/120
f 121/121/121 122/122/122 123/123/123
f 121/121/121 123/123/123 124/124/124
f 125/125/125 126/126/126 127/127/127
f 125/125/125 127/127/127 128/128/128
f 129/129/129 130/130/130 131/131/131
f 129/129/129 131/131/131 132/132/132
f 133/133/133 134/134/134 135/135/135
f 133/133/133 135/135/135 136/136/136
f 137/137/137 138/138/138 139/139/139
f 137/137/137 139/139/139 140/140/140
f 36/36/36 35/35/35 141/141/141
f 36/36/36 141/141/141 142/142/142
f 143/143/143 144/144/144 145/145/145
f 143/143/143 145/145/145 146/146/146
f 147/147/147 148/148/148 149/149/149
f 147/147/147 149/149/149 150/150/150
f 151/151/151 152/152/152 153/153/153
f 151/151/151 153/153/153 154/154/154
f 151/151/151 154/154/154 155/155/155
f 156/156/156 157/157/157 158/158/158
f 159/159/159 160/160/160 161/161/161
f 162/162/162 163/163/163 164/164/164
f 162/162/162 164/164/164 165/165/165
f 166/166/166 167/167/167 168/168/168
f 166/166/166 168/168/168 169/169/169
