v 1.451011 4.052806 -2.281431
v 1.454780 4.052806 -2.294575
v 1.471695 4.052806 -2.289725
v 1.459469 4.052806 -2.279005
v 1.450954 4.025855 -2.281231
v 1.450954 4.052410 -2.281231
v 1.459412 4.052410 -2.278805
v 1.459412 4.025855 -2.278805
v 1.454854 4.052806 -2.294833
v 1.471769 4.052806 -2.289983
v 1.450954 4.052806 -2.281231
v 1.459412 4.052806 -2.278805
v 1.450954 4.025444 -2.281231
v 1.459412 4.025444 -2.278805
v 1.471695 4.052411 -2.289725
v 1.459469 4.052411 -2.279005
v 1.471769 4.052411 -2.289983
v 1.471695 4.025855 -2.289725
v 1.459469 4.025855 -2.279005
v 1.471769 4.025855 -2.289983
v 1.471695 4.025444 -2.289725
v 1.459469 4.025444 -2.279005
v 1.471769 4.025444 -2.289983
v 1.454780 4.025444 -2.294575
v 1.451011 4.025444 -2.281431
v 1.454854 4.052410 -2.294833
v 1.454854 4.025855 -2.294833
v 1.454854 4.025444 -2.294833
vn 0.000000 -1.000000 -0.000200
vn 0.000000 -1.000000 -0.000200
vn -0.642600 -0.648700 -0.407700
vn -0.532200 -0.776300 -0.337800
vn 0.275500 0.000000 -0.961300
vn 0.275600 0.000000 -0.961200
vn -0.484600 0.000000 -0.874700
vn -0.484800 0.000000 -0.874600
vn -0.194800 -0.707300 0.679600
vn -0.714100 -0.577500 0.395600
vn 0.194800 -0.706900 -0.679900
vn -0.395600 -0.577200 -0.714400
vn 0.194800 0.707100 -0.679800
vn -0.395900 0.577300 -0.714100
vn -0.844500 0.000000 -0.535500
vn -0.844400 0.000000 -0.535700
vn -0.874600 0.000000 0.484800
vn -0.844500 0.000000 -0.535400
vn -0.844500 0.000000 -0.535600
vn -0.874600 0.000000 0.484800
vn -0.642700 0.648800 -0.407500
vn -0.532200 0.776400 -0.337500
vn -0.714100 0.577300 0.395800
vn 0.000000 1.000000 -0.000100
vn 0.000000 1.000000 0.000000
vn -0.275500 0.000000 0.961300
vn -0.275600 0.000000 0.961200
vn -0.195000 0.707200 0.679600
vt 0.000000 0.000000
vt 0.000000 0.000000
vt 0.000000 0.000000
vt 0.000000 0.000000
vt 0.000000 0.000000
vt 0.000000 0.000000
vt 0.000000 0.000000
vt 0.000000 0.000000
vt 0.000000 0.000000
vt 0.000000 0.000000
vt 0.000000 0.000000
vt 0.000000 0.000000
vt 0.000000 0.000000
vt 0.000000 0.000000
vt 0.000000 0.000000
vt 0.000000 0.000000
vt 0.000000 0.000000
vt 0.000000 0.000000
vt 0.000000 0.000000
vt 0.000000 0.000000
vt 0.000000 0.000000
vt 0.000000 0.000000
vt 0.000000 0.000000
vt 0.000000 0.000000
vt 0.000000 0.000000
vt 0.000000 0.000000
vt 0.000000 0.000000
vt 0.000000 0.000000
f 1/1/1 2/2/2 3/3/3
f 1/1/1 3/3/3 4/4/4
f 5/5/5 6/6/6 7/7/7
f 5/5/5 7/7/7 8/8/8
f 2/2/2 9/9/9 10/10/10
f 2/2/2 10/10/10 3/3/3
f 6/6/6 11/11/11 12/12/12
f 6/6/6 12/12/12 7/7/7
f 13/13/13 5/5/5 8/8/8
f 13/13/13 8/8/8 14/14/14
f 11/11/11 1/1/1 4/4/4
f 11/11/11 4/4/4 12/12/12
f 4/4/4 3/3/3 15/15/15
f 4/4/4 15/15/15 16/16/16
f 3/3/3 10/10/10 17/17/17
f 3/3/3 17/17/17 15/15/15
f 16/16/16 15/15/15 18/18/18
f 16/16/16 18/18/18 19/19/19
f 15/15/15 17/17/17 20/20/20
f 15/15/15 20/20/20 18/18/18
f 19/19/19 18/18/18 21/21/21
f 19/19/19 21/21/21 22/22/22
f 18/18/18 20/20/20 23/23/23
f 18/18/18 23/23/23 21/21/21
f 24/24/24 25/25/25 22/22/22
f 24/24/24 22/22/22 21/21/21
f 26/26/26 27/27/27 20/20/20
f 26/26/26 20/20/20 17/17/17
f 28/28/28 23/23/23 20/20/20
f 28/28/28 20/20/20 27/27/27
f 13/13/13 14/14/14 22/22/22
f 13/13/13 22/22/22 25/25/25
f 17/17/17 10/10/10 9/9/9
f 17/17/17 9/9/9 26/26/26
f 21/21/21 23/23/23 28/28/28
f 21/21/21 28/28/28 24/24/24
f 12/12/12 4/4/4 16/16/16
f 12/12/12 16/16/16 7/7/7
f 7/7/7 16/16/16 19/19/19
f 7/7/7 19/19/19 8/8/8
f 8/8/8 19/19/19 22/22/22
f 8/8/8 22/22/22 14/14/14
