v -10.072622 4.052806 -10.326657
v -10.072861 4.052806 -10.340329
v -10.090455 4.052806 -10.340022
v -10.081420 4.052806 -10.326504
v -10.072618 4.025855 -10.326449
v -10.072618 4.052410 -10.326449
v -10.081416 4.052410 -10.326296
v -10.081416 4.025855 -10.326296
v -10.072865 4.052806 -10.340598
v -10.090460 4.052806 -10.340291
v -10.072618 4.052806 -10.326449
v -10.081416 4.052806 -10.326296
v -10.072618 4.025444 -10.326449
v -10.081416 4.025444 -10.326296
v -10.090455 4.052410 -10.340022
v -10.081420 4.052410 -10.326504
v -10.090460 4.052410 -10.340291
v -10.090455 4.025855 -10.340022
v -10.081420 4.025855 -10.326504
v -10.090460 4.025855 -10.340291
v -10.090455 4.025444 -10.340022
v -10.081420 4.025444 -10.326504
v -10.090460 4.025444 -10.340291
v -10.072861 4.025444 -10.340329
v -10.072622 4.025444 -10.326657
v -10.072865 4.052410 -10.340598
v -10.072865 4.025855 -10.340598
v -10.072865 4.025444 -10.340598
vn 0.000000 1.000000 0.000000
vn 0.000000 1.000000 0.000200
vn -0.726200 0.648800 0.227400
vn -0.601600 0.776300 0.188400
vn 0.017500 0.000000 0.999800
vn 0.017500 0.000000 0.999800
vn -0.694300 0.000000 0.719700
vn -0.694300 0.000000 0.719700
vn -0.012300 0.707300 -0.706800
vn -0.587500 0.577400 -0.566900
vn 0.012400 0.706900 0.707100
vn -0.566900 0.577400 0.587500
vn 0.012400 -0.706900 0.707200
vn -0.566900 -0.577400 0.587500
vn -0.954300 0.000000 0.298700
vn -0.954300 0.000000 0.299000
vn -0.719400 0.000000 -0.694500
vn -0.954300 0.000000 0.298800
vn -0.954200 0.000000 0.299100
vn -0.719400 0.000000 -0.694500
vn -0.726200 -0.648900 0.227200
vn -0.601500 -0.776300 0.188500
vn -0.587300 -0.577200 -0.567300
vn 0.000000 -1.000000 -0.000200
vn 0.000000 -1.000000 0.000000
vn -0.017500 0.000000 -0.999800
vn -0.017500 0.000000 -0.999800
vn -0.012300 -0.707000 -0.707100
vt 0.000000 0.000000
vt 0.000000 0.000000
vt 0.000000 0.000000
vt 0.000000 0.000000
vt 0.000000 0.000000
vt 0.000000 0.000000
vt 0.000000 0.000000
vt 0.000000 0.000000
vt 0.000000 0.000000
vt 0.000000 0.000000
vt 0.000000 0.000000
vt 0.000000 0.000000
vt 0.000000 0.000000
vt 0.000000 0.000000
vt 0.000000 0.000000
vt 0.000000 0.000000
vt 0.000000 0.000000
vt 0.000000 0.000000
vt 0.000000 0.000000
vt 0.000000 0.000000
vt 0.000000 0.000000
vt 0.000000 0.000000
vt 0.000000 0.000000
vt 0.000000 0.000000
vt 0.000000 0.000000
vt 0.000000 0.000000
vt 0.000000 0.000000
vt 0.000000 0.000000
f 1/1/1 2/2/2 3/3/3
f 1/1/1 3/3/3 4/4/4
f 5/5/5 6/6/6 7/7/7
f 5/5/5 7/7/7 8/8/8
f 2/2/2 9/9/9 10/10/10
f 2/2/2 10/10/10 3/3/3
f 6/6/6 11/11/11 12/12/12
f 6/6/6 12/12/12 7/7/7
f 13/13/13 5/5/5 8/8/8
f 13/13/13 8/8/8 14/14/14
f 11/11/11 1/1/1 4/4/4
f 11/11/11 4/4/4 12/12/12
f 4/4/4 3/3/3 15/15/15
f 4/4/4 15/15/15 16/16/16
f 3/3/3 10/10/10 17/17/17
f 3/3/3 17/17/17 15/15/15
f 16/16/16 15/15/15 18/18/18
f 16/16/16 18/18/18 19/19/19
f 15/15/15 17/17/17 20/20/20
f 15/15/15 20/20/20 18/18/18
f 19/19/19 18/18/18 21/21/21
f 19/19/19 21/21/21 22/22/22
f 18/18/18 20/20/20 23/23/23
f 18/18/18 23/23/23 21/21/21
f 24/24/24 25/25/25 22/22/22
f 24/24/24 22/22/22 21/21/21
f 26/26/26 27/27/27 20/20/20
f 26/26/26 20/20/20 17/17/17
f 28/28/28 23/23/23 20/20/20
f 28/28/28 20/20/20 27/27/27
f 13/13/13 14/14/14 22/22/22
f 13/13/13 22/22/22 25/25/25
f 17/17/17 10/10/10 9/9/9
f 17/17/17 9/9/9 26/26/26
f 21/21/21 23/23/23 28/28/28
f 21/21/21 28/28/28 24/24/24
f 12/12/12 4/4/4 16/16/16
f 12/12/12 16/16/16 7/7/7
f 7/7/7 16/16/16 19/19/19
f 7/7/7 19/19/19 8/8/8
f 8/8/8 19/19/19 22/22/22
f 8/8/8 22/22/22 14/14/14
