v 1.691678 4.052805 -8.908961
v 1.684736 4.052805 -8.920742
v 1.699896 4.052805 -8.929676
v 1.699259 4.052805 -8.913429
v 1.691784 4.025854 -8.908782
v 1.691784 4.052409 -8.908782
v 1.699364 4.052409 -8.913250
v 1.699364 4.025854 -8.913250
v 1.684599 4.052805 -8.920973
v 1.699759 4.052805 -8.929908
v 1.691784 4.052805 -8.908782
v 1.699364 4.052805 -8.913250
v 1.691784 4.025443 -8.908782
v 1.699364 4.025443 -8.913250
v 1.699896 4.052410 -8.929676
v 1.699259 4.052410 -8.913429
v 1.699759 4.052410 -8.929908
v 1.699896 4.025854 -8.929676
v 1.699259 4.025854 -8.913429
v 1.699759 4.025854 -8.929908
v 1.699896 4.025443 -8.929676
v 1.699259 4.025443 -8.913429
v 1.699759 4.025443 -8.929908
v 1.684736 4.025443 -8.920742
v 1.691678 4.025443 -8.908961
v 1.684599 4.052409 -8.920973
v 1.684599 4.025854 -8.920973
v 1.684599 4.025443 -8.920973
vn 0.000000 -1.000000 0.000000
vn 0.000000 -1.000000 0.000000
vn -0.737800 -0.648900 0.185900
vn -0.611300 -0.776300 0.153600
vn -0.507900 0.000000 -0.861400
vn -0.507700 0.000000 -0.861500
vn -0.968100 0.000000 -0.250400
vn -0.968200 0.000000 -0.250000
vn 0.358900 -0.706900 0.609500
vn -0.204400 -0.577100 0.790700
vn -0.359100 -0.706800 -0.609400
vn -0.790400 -0.577300 -0.204600
vn -0.359300 0.706800 -0.609300
vn -0.790500 0.577500 -0.204100
vn -0.969700 0.000000 0.244100
vn -0.969800 0.000000 0.243900
vn -0.250300 0.000000 0.968100
vn -0.969800 0.000000 0.243900
vn -0.969700 0.000000 0.244200
vn -0.250400 0.000000 0.968100
vn -0.737900 0.648900 0.185500
vn -0.611200 0.776400 0.153900
vn -0.204400 0.577400 0.790400
vn 0.000000 1.000000 -0.000200
vn 0.000000 1.000000 0.000000
vn 0.507600 0.000000 0.861600
vn 0.507800 0.000000 0.861400
vn 0.359300 0.706900 0.609200
vt 0.000000 0.000000
vt 0.000000 0.000000
vt 0.000000 0.000000
vt 0.000000 0.000000
vt 0.000000 0.000000
vt 0.000000 0.000000
vt 0.000000 0.000000
vt 0.000000 0.000000
vt 0.000000 0.000000
vt 0.000000 0.000000
vt 0.000000 0.000000
vt 0.000000 0.000000
vt 0.000000 0.000000
vt 0.000000 0.000000
vt 0.000000 0.000000
vt 0.000000 0.000000
vt 0.000000 0.000000
vt 0.000000 0.000000
vt 0.000000 0.000000
vt 0.000000 0.000000
vt 0.000000 0.000000
vt 0.000000 0.000000
vt 0.000000 0.000000
vt 0.000000 0.000000
vt 0.000000 0.000000
vt 0.000000 0.000000
vt 0.000000 0.000000
vt 0.000000 0.000000
f 1/1/1 2/2/2 3/3/3
f 1/1/1 3/3/3 4/4/4
f 5/5/5 6/6/6 7/7/7
f 5/5/5 7/7/7 8/8/8
f 2/2/2 9/9/9 10/10/10
f 2/2/2 10/10/10 3/3/3
f 6/6/6 11/11/11 12/12/12
f 6/6/6 12/12/12 7/7/7
f 13/13/13 5/5/5 8/8/8
f 13/13/13 8/8/8 14/14/14
f 11/11/11 1/1/1 4/4/4
f 11/11/11 4/4/4 12/12/12
f 4/4/4 3/3/3 15/15/15
f 4/4/4 15/15/15 16/16/16
f 3/3/3 10/10/10 17/17/17
f 3/3/3 17/17/17 15/15/15
f 16/16/16 15/15/15 18/18/18
f 16/16/16 18/18/18 19/19/19
f 15/15/15 17/17/17 20/20/20
f 15/15/15 20/20/20 18/18/18
f 19/19/19 18/18/18 21/21/21
f 19/19/19 21/21/21 22/22/22
f 18/18/18 20/20/20 23/23/23
f 18/18/18 23/23/23 21/21/21
f 24/24/24 25/25/25 22/22/22
f 24/24/24 22/22/22 21/21/21
f 26/26/26 27/27/27 20/20/20
f 26/26/26 20/20/20 17/17/17
f 28/28/28 23/23/23 20/20/20
f 28/28/28 20/20/20 27/27/27
f 13/13/13 14/14/14 22/22/22
f 13/13/13 22/22/22 25/25/25
f 17/17/17 10/10/10 9/9/9
f 17/17/17 9/9/9 26/26/26
f 21/21/21 23/23/23 28/28/28
f 21/21/21 28/28/28 24/24/24
f 12/12/12 4/4/4 16/16/16
f 12/12/12 16/16/16 7/7/7
f 7/7/7 16/16/16 19/19/19
f 7/7/7 19/19/19 8/8/8
f 8/8/8 19/19/19 22/22/22
f 8/8/8 22/22/22 14/14/14
