v -13.255743 5.782220 -4.519699
v -13.255745 5.462018 -4.519699
v -13.374893 5.462018 -4.549780
v -13.374893 5.782220 -4.549780
v -13.374893 5.782220 -4.549780
v -13.374893 5.462018 -4.549780
v -13.832714 5.464582 -5.040959
v -13.832714 5.782220 -5.040959
v -13.832714 5.782220 -5.040959
v -13.832714 5.464582 -5.040959
v -13.832714 5.464582 -6.405643
v -13.832714 5.782220 -6.405643
v -13.844620 3.675825 -5.050011
v -13.844620 3.806957 -5.050011
v -13.374893 3.806957 -4.549780
v -13.374893 3.675825 -4.549780
v -13.255745 5.462018 -4.519699
v -13.255745 3.798932 -4.519699
v -13.374893 3.806957 -4.549780
v -13.374893 5.462018 -4.549780
v -13.255745 3.667019 -4.519699
v -12.577198 3.674634 -4.519699
v -12.577198 3.805872 -4.519699
v -13.255745 3.798932 -4.519699
v -13.255714 4.503143 -6.921175
v -13.371593 4.503143 -6.911602
v -13.371593 5.462019 -6.921175
v -13.255714 5.593406 -6.921175
v -12.033865 3.806957 -8.033726
v -12.033859 3.675825 -8.033726
v -13.258877 3.675825 -8.033726
v -13.258877 3.806957 -8.033726
v -12.033968 2.983804 -8.033726
v -13.258877 2.983804 -8.033726
v -11.466017 4.503143 -6.920135
v -11.600456 4.503143 -6.920135
v -11.600456 5.593407 -6.920135
v -11.466017 5.593407 -6.920135
v -11.466017 2.983804 -6.920135
v -11.600456 2.983804 -6.920135
v -11.600456 3.675825 -6.920135
v -11.466017 3.675825 -6.920135
v -11.600456 5.593407 -6.920135
v -11.600456 5.593407 -7.057943
v -13.256584 5.593406 -7.057943
v -13.255714 5.593406 -6.921175
v -11.600456 2.983804 -6.920135
v -11.600456 2.983804 -7.057943
v -11.600456 3.675825 -7.057943
v -11.600456 3.675825 -6.920135
v -11.600456 4.503143 -6.920135
v -11.600456 4.503143 -7.057943
v -11.600456 5.593407 -7.057943
v -11.600456 5.593407 -6.920135
v -13.258877 3.806957 -8.033726
v -13.258877 3.675825 -8.033726
v -13.256584 3.675825 -7.057943
v -13.256584 3.806957 -7.057943
v -11.600477 3.806957 -8.033726
v -11.600456 3.675825 -8.033726
v -11.863466 3.675825 -8.033726
v -11.863480 3.806957 -8.033726
v -11.600780 2.983804 -8.033727
v -11.863683 2.983804 -8.033726
v -12.033966 5.593406 -8.033726
v -12.033913 4.503143 -8.033726
v -13.258877 4.503143 -8.033726
v -13.258877 5.593406 -8.033726
v -13.258877 5.593406 -8.033726
v -13.258877 4.503143 -8.033726
v -13.256584 4.503143 -7.057943
v -13.256584 5.593406 -7.057943
v -11.863682 5.593407 -8.033726
v -11.863573 4.503143 -8.033726
v -12.033889 4.240377 -8.033726
v -13.258877 4.240377 -8.033726
v -13.258877 4.503143 -8.033726
v -13.258877 4.240377 -8.033726
v -13.256584 4.240377 -7.057943
v -13.256584 4.503143 -7.057943
v -11.600456 4.503143 -7.057943
v -11.600456 4.503143 -8.033726
v -11.600780 5.593407 -8.033726
v -11.600456 5.593407 -7.057943
v -11.863526 4.240377 -8.033726
v -12.033889 4.240377 -8.033726
v -12.033889 4.240377 -8.108054
v -11.863526 4.240377 -8.108054
v -11.863573 4.503143 -8.108054
v -11.863526 4.240377 -8.108054
v -12.033889 4.240377 -8.108054
v -12.033913 4.503143 -8.108054
v -12.033889 4.240377 -8.033726
v -12.033913 4.503143 -8.033726
v -12.033913 4.503143 -8.108054
v -12.033889 4.240377 -8.108054
v -11.863573 4.503143 -8.033726
v -11.863526 4.240377 -8.033726
v -11.863526 4.240377 -8.108054
v -11.863573 4.503143 -8.108054
v -12.033913 4.503143 -8.033726
v -11.863573 4.503143 -8.033726
v -11.863573 4.503143 -8.108054
v -12.033913 4.503143 -8.108054
v -11.466017 4.240377 -6.920135
v -11.600456 4.240377 -6.920135
v -11.600456 4.240377 -6.920135
v -11.600456 4.240377 -7.057943
v -13.256584 3.806957 -7.057943
v -13.256584 3.675825 -7.057943
v -13.255714 3.675825 -6.921175
v -13.255714 3.806957 -6.921175
v -12.577198 5.462018 -4.519699
v -13.255745 5.462018 -4.519699
v -13.255745 3.667019 -4.519699
v -13.374893 3.675825 -4.549780
v -13.374893 3.806957 -4.549780
v -13.256584 4.503143 -7.057943
v -13.256584 4.240377 -7.057943
v -13.255714 4.240377 -6.921175
v -13.255714 4.503143 -6.921175
v -13.255714 3.806957 -6.921175
v -13.371593 3.806957 -6.911602
v -13.371593 4.240377 -6.911602
v -13.255714 4.240377 -6.921175
v -13.371593 4.503143 -6.911602
v -13.255714 4.503143 -6.921175
v -13.256584 5.593406 -7.057943
v -13.256584 4.503143 -7.057943
v -13.255714 5.593406 -6.921175
v -13.258877 3.806957 -8.033726
v -13.256584 3.806957 -7.057943
v -11.600547 4.240377 -8.033726
v -11.863526 4.240377 -8.033726
v -13.256584 3.806957 -7.057943
v -13.255714 3.806957 -6.921175
v -13.255714 3.675825 -6.921175
v -13.371593 3.675825 -6.911602
v -13.840826 3.806957 -6.436677
v -13.840826 3.675825 -6.436677
v -13.844620 3.675825 -5.050011
v -13.844620 3.806957 -5.050011
v -13.394293 3.806957 -6.903340
v -13.394293 3.675825 -6.903340
v -13.840826 3.675825 -6.436677
v -13.840826 3.806957 -6.436677
v -13.371593 3.675825 -6.911602
v -13.394293 3.675825 -6.903340
v -13.394293 3.806957 -6.903340
v -13.371593 3.806957 -6.911602
v -11.466017 3.806957 -6.920135
v -11.600456 3.806957 -6.920135
v -11.600456 3.806957 -6.920135
v -11.600456 3.806957 -7.057943
v -11.600456 4.240377 -7.057943
v -11.600547 4.240377 -8.033726
v -11.600456 4.503143 -8.033726
v -11.600456 4.503143 -7.057943
v -11.600456 3.806957 -7.057943
v -11.600477 3.806957 -8.033726
v -11.600547 4.240377 -8.033726
v -11.600456 4.240377 -7.057943
v -11.600456 3.675825 -7.057943
v -11.600456 3.675825 -8.033726
v -11.600477 3.806957 -8.033726
v -11.600456 3.806957 -7.057943
v 4.121979 2.983804 -2.782773
v 3.076037 2.983804 -2.782773
v 3.076037 5.624643 -2.782773
v 4.121979 5.624643 -2.782773
v 4.121979 2.983804 -2.782773
v 4.121979 2.983804 -3.941705
v 4.121979 5.624643 -3.941705
v 4.121979 5.624643 -2.782773
v -11.595964 2.983804 -8.174269
v -11.595964 5.648887 -8.174269
v -11.595963 5.648886 -9.251806
v -11.595963 2.983804 -9.251806
v -11.595964 2.983804 -8.174269
v -10.432640 2.989361 -8.174269
v -10.432640 5.648886 -8.174269
v -11.595964 5.648887 -8.174269
v -11.600780 5.593407 -8.033726
v -11.600456 4.503143 -8.033726
v -11.863573 4.503143 -8.033726
v -11.600456 2.983804 -7.057943
v -11.600780 2.983804 -8.033727
v -11.600456 3.675825 -8.033726
v -11.600456 3.675825 -7.057943
v -13.832714 5.782220 -6.405643
v -13.832714 5.464582 -6.405643
v -13.371593 5.462019 -6.921175
v -13.371593 5.782220 -6.921175
v -13.255745 5.462018 -4.519699
v -12.577198 5.462018 -4.519699
v -12.577198 5.782220 -4.519699
v -13.255743 5.782220 -4.519699
v -11.600456 5.782220 -6.920135
v -11.466017 5.782220 -6.920135
v -13.255714 5.593406 -6.921175
v -13.371593 5.462019 -6.921175
v -13.371593 5.782220 -6.921175
v -13.255714 5.782220 -6.921175
v -13.255714 5.593406 -6.921175
v -11.600456 5.593407 -6.920135
v -11.600456 5.782220 -6.920135
v -13.255714 5.782220 -6.921175
vn 0.244800 -0.000000 -0.969600
vn 0.244800 -0.000000 -0.969600
vn 0.244800 -0.000000 -0.969600
vn 0.244800 -0.000000 -0.969600
vn 0.731500 0.000000 -0.681800
vn 0.731500 0.000000 -0.681800
vn 0.731500 0.000000 -0.681800
vn 0.731500 0.000000 -0.681800
vn 1.000000 0.000000 0.000000
vn 1.000000 0.000000 0.000000
vn 1.000000 0.000000 0.000000
vn 1.000000 0.000000 0.000000
vn 0.729000 0.000000 -0.684500
vn 0.729000 0.000000 -0.684500
vn 0.729000 0.000000 -0.684500
vn 0.729000 0.000000 -0.684500
vn 0.244800 -0.000000 -0.969600
vn 0.244800 -0.000000 -0.969600
vn 0.244800 -0.000000 -0.969600
vn 0.244800 -0.000000 -0.969600
vn 0.000000 0.000000 1.000000
vn 0.000000 0.000000 1.000000
vn 0.000000 0.000000 1.000000
vn 0.000000 0.000000 1.000000
vn -0.038600 -0.004700 -0.999200
vn -0.038600 -0.004700 -0.999200
vn -0.038600 -0.004700 -0.999200
vn -0.038600 -0.004700 -0.999200
vn 0.000000 0.000000 -1.000000
vn 0.000000 0.000000 -1.000000
vn 0.000000 0.000000 -1.000000
vn 0.000000 0.000000 -1.000000
vn 0.000000 0.000000 -1.000000
vn 0.000000 0.000000 -1.000000
vn 0.000000 0.000000 -1.000000
vn 0.000000 0.000000 -1.000000
vn 0.000000 0.000000 -1.000000
vn 0.000000 0.000000 -1.000000
vn 0.000000 0.000000 -1.000000
vn 0.000000 0.000000 -1.000000
vn 0.000000 0.000000 -1.000000
vn 0.000000 0.000000 -1.000000
vn -0.000000 1.000000 -0.000000
vn -0.000000 1.000000 -0.000000
vn -0.000000 1.000000 -0.000000
vn -0.000000 1.000000 -0.000000
vn 1.000000 0.000000 0.000000
vn 1.000000 0.000000 0.000000
vn 1.000000 0.000000 0.000000
vn 1.000000 0.000000 0.000000
vn 1.000000 0.000000 0.000000
vn 1.000000 0.000000 0.000000
vn 1.000000 0.000000 0.000000
vn 1.000000 0.000000 0.000000
vn -1.000000 0.000000 0.002300
vn -1.000000 0.000000 0.002300
vn -1.000000 0.000000 0.002300
vn -1.000000 0.000000 0.002300
vn 0.000000 0.000000 -1.000000
vn 0.000000 0.000000 -1.000000
vn 0.000000 0.000000 -1.000000
vn 0.000000 0.000000 -1.000000
vn 0.000000 0.000000 -1.000000
vn 0.000000 0.000000 -1.000000
vn 0.000000 0.000000 -1.000000
vn 0.000000 0.000000 -1.000000
vn 0.000000 0.000000 -1.000000
vn 0.000000 0.000000 -1.000000
vn -1.000000 0.000000 0.002300
vn -1.000000 0.000000 0.002300
vn -1.000000 0.000000 0.002300
vn -1.000000 0.000000 0.002300
vn 0.000000 0.000000 -1.000000
vn 0.000000 0.000000 -1.000000
vn 0.000000 0.000000 -1.000000
vn 0.000000 0.000000 -1.000000
vn 0.000000 0.000000 -1.000000
vn -1.000000 0.000000 0.002300
vn -1.000000 0.000000 0.002300
vn -1.000000 0.000000 0.002300
vn 1.000000 0.000100 -0.000200
vn 1.000000 0.000100 -0.000200
vn 1.000000 0.000100 -0.000200
vn 1.000000 0.000100 -0.000200
vn 0.000000 -1.000000 0.000000
vn 0.000000 -1.000000 0.000000
vn 0.000000 -1.000000 0.000000
vn 0.000000 -1.000000 0.000000
vn 0.000000 0.000000 -1.000000
vn 0.000000 0.000000 -1.000000
vn 0.000000 0.000000 -1.000000
vn 0.000000 0.000000 -1.000000
vn -1.000000 -0.000100 0.000000
vn -1.000000 -0.000100 0.000000
vn -1.000000 -0.000100 0.000000
vn -1.000000 -0.000100 0.000000
vn 1.000000 0.000200 0.000000
vn 1.000000 0.000200 0.000000
vn 1.000000 0.000200 0.000000
vn 1.000000 0.000200 0.000000
vn -0.000000 1.000000 -0.000000
vn -0.000000 1.000000 -0.000000
vn -0.000000 1.000000 -0.000000
vn -0.000000 1.000000 -0.000000
vn 0.000000 0.000000 -1.000000
vn 0.000000 0.000000 -1.000000
vn 1.000000 0.000000 0.000000
vn 1.000000 0.000000 0.000000
vn -1.000000 0.000000 0.006400
vn -1.000000 0.000000 0.006400
vn -1.000000 0.000000 0.006400
vn -1.000000 0.000000 0.006400
vn 0.000000 0.000000 1.000000
vn 0.000000 0.000000 1.000000
vn 0.244800 -0.000000 -0.969600
vn 0.244800 -0.000000 -0.969600
vn 0.244800 -0.000000 -0.969600
vn -1.000000 0.000000 0.006400
vn -1.000000 0.000000 0.006400
vn -1.000000 0.000000 0.006400
vn -1.000000 0.000000 0.006400
vn -0.082300 0.000000 -0.996600
vn -0.082300 0.000000 -0.996600
vn -0.082300 0.000000 -0.996600
vn -0.082300 0.000000 -0.996600
vn -0.082300 0.000000 -0.996600
vn -0.082300 0.000000 -0.996600
vn -1.000000 0.000000 0.006400
vn -1.000000 0.000000 0.006400
vn -1.000000 0.000000 0.006400
vn -1.000000 0.000000 0.002300
vn -1.000000 0.000000 0.002300
vn 0.000000 0.000000 -1.000000
vn 0.000000 0.000000 -1.000000
vn -1.000000 0.000000 0.006400
vn -1.000000 0.000000 0.006400
vn -0.082300 0.000000 -0.996600
vn -0.082300 0.000000 -0.996600
vn -1.000000 0.000000 -0.002700
vn -1.000000 0.000000 -0.002700
vn -1.000000 0.000000 -0.002700
vn -1.000000 0.000000 -0.002700
vn -0.722500 0.000000 -0.691400
vn -0.722500 0.000000 -0.691400
vn -0.722500 0.000000 -0.691400
vn -0.722500 0.000000 -0.691400
vn -0.342000 0.000000 -0.939700
vn -0.342000 0.000000 -0.939700
vn -0.342000 0.000000 -0.939700
vn -0.342000 0.000000 -0.939700
vn 0.000000 0.000000 -1.000000
vn 0.000000 0.000000 -1.000000
vn 1.000000 0.000000 0.000000
vn 1.000000 0.000000 0.000000
vn 1.000000 -0.000200 -0.000000
vn 1.000000 -0.000200 -0.000000
vn 1.000000 -0.000200 -0.000000
vn 1.000000 -0.000200 -0.000000
vn 1.000000 0.000100 -0.000100
vn 1.000000 0.000100 -0.000100
vn 1.000000 0.000100 -0.000100
vn 1.000000 0.000100 -0.000100
vn 1.000000 0.000100 -0.000000
vn 1.000000 0.000100 -0.000000
vn 1.000000 0.000100 -0.000000
vn 1.000000 0.000100 -0.000000
vn 0.000000 0.000000 -1.000000
vn 0.000000 0.000000 -1.000000
vn 0.000000 0.000000 -1.000000
vn 0.000000 0.000000 -1.000000
vn 1.000000 0.000000 0.000000
vn 1.000000 0.000000 0.000000
vn 1.000000 0.000000 0.000000
vn 1.000000 0.000000 0.000000
vn -1.000000 0.000000 -0.000000
vn -1.000000 0.000000 -0.000000
vn -1.000000 0.000000 -0.000000
vn -1.000000 0.000000 -0.000000
vn 0.000000 0.000000 1.000000
vn 0.000000 0.000000 1.000000
vn 0.000000 0.000000 1.000000
vn 0.000000 0.000000 1.000000
vn 0.000000 0.000000 -1.000000
vn 0.000000 0.000000 -1.000000
vn 0.000000 0.000000 -1.000000
vn 1.000000 -0.000200 -0.000200
vn 1.000000 -0.000200 -0.000200
vn 1.000000 -0.000200 -0.000200
vn 1.000000 -0.000200 -0.000200
vn 0.745300 0.000000 0.666700
vn 0.745300 0.000000 0.666700
vn 0.745300 0.000000 0.666700
vn 0.745300 0.000000 0.666700
vn 0.000000 0.000000 1.000000
vn 0.000000 0.000000 1.000000
vn 0.000000 0.000000 1.000000
vn 0.000000 0.000000 1.000000
vn 0.000000 0.000000 -1.000000
vn 0.000000 0.000000 -1.000000
vn 0.000000 0.000000 -1.000000
vn 0.000000 0.000000 -1.000000
vn 0.000000 0.000000 -1.000000
vn 0.000000 0.000000 -1.000000
vn -0.000600 0.000000 1.000000
vn -0.000600 0.000000 1.000000
vn -0.000600 0.000000 1.000000
vn -0.000600 0.000000 1.000000
vt -4.123730 3.094433
vt -4.123730 2.768410
vt -4.000506 2.768410
vt -4.000504 3.094432
vt -4.000504 3.094432
vt -4.000506 2.768410
vt -3.327207 2.768410
vt -3.327207 3.094429
vt -3.327207 3.094429
vt -3.327207 2.768410
vt -1.958790 2.768410
vt -1.958791 3.094427
vt -3.311173 0.933390
vt -3.311170 1.065075
vt -4.000309 1.065133
vt -4.000326 0.933432
vt -4.123730 2.768410
vt -4.123730 1.065133
vt -4.001244 1.065133
vt -4.001244 2.768410
vt -4.123760 0.932638
vt -4.805323 0.933312
vt -4.805288 1.065133
vt -4.123730 1.065133
vt -1.148733 1.804416
vt -1.265620 1.804367
vt -1.265233 2.768356
vt -1.148738 2.900437
vt 1.195700 1.099728
vt 1.195706 0.966886
vt -0.031823 0.966886
vt -0.031823 1.099728
vt 1.195597 0.265847
vt -0.031823 0.265847
vt 1.069853 1.491362
vt 0.872156 1.491362
vt 0.872152 2.900438
vt 1.069849 2.900438
vt 1.069852 -0.472254
vt 0.872155 -0.472254
vt 0.872155 0.422128
vt 1.069852 0.422128
vt 1.321953 2.900104
vt 1.321953 2.770851
vt -0.270338 2.770849
vt -0.269904 2.899594
vt 1.502448 0.277405
vt 1.631700 0.277403
vt 1.631709 0.972899
vt 1.502457 0.972901
vt 1.502465 1.804368
vt 1.631716 1.804367
vt 1.631715 2.900104
vt 1.502462 2.900104
vt -0.032995 1.065620
vt -0.032995 0.933541
vt -1.014285 0.933541
vt -1.014285 1.065620
vt 1.631695 1.099728
vt 1.631716 0.966886
vt 1.364459 0.966886
vt 1.364446 1.099728
vt 1.631387 0.265847
vt 1.364239 0.265847
vt 1.195923 2.900104
vt 1.195652 1.804367
vt -0.032995 1.804367
vt -0.032671 2.900104
vt -0.032671 2.900104
vt -0.032995 1.804367
vt -1.016933 1.804367
vt -1.016609 2.900104
vt 1.366719 2.900104
vt 1.366504 1.804367
vt 1.195676 1.540650
vt -0.031823 1.540650
vt -0.031823 1.804367
vt -0.032995 1.539704
vt -1.014285 1.539704
vt -1.014285 1.804367
vt 1.631716 1.804367
vt 2.588808 1.804365
vt 2.588808 2.900103
vt 1.631715 2.900104
vt 1.364398 1.536940
vt 1.194875 1.536940
vt 1.194875 1.600697
vt 1.364398 1.600697
vt 1.302416 1.805237
vt 1.302463 1.536940
vt 1.137619 1.536940
vt 1.137595 1.805237
vt 1.137619 1.536940
vt 1.137595 1.805237
vt 1.056344 1.805236
vt 1.056368 1.536939
vt 1.306380 1.805237
vt 1.306426 1.536940
vt 1.401636 1.536940
vt 1.401588 1.805236
vt 0.483070 0.516863
vt 0.568107 0.516863
vt 0.568107 0.554027
vt 0.483070 0.554027
vt 1.069852 1.151762
vt 0.872155 1.151762
vt 1.502464 1.540285
vt 1.631715 1.540284
vt -1.014285 1.065620
vt -1.014285 0.933541
vt -1.148761 0.933541
vt -1.148761 1.065620
vt -4.805288 2.768410
vt -4.123730 2.768410
vt -4.123760 0.932638
vt -4.000326 0.933432
vt -4.000309 1.065133
vt -1.014285 1.804367
vt -1.014285 1.539704
vt -1.148761 1.539704
vt -1.148761 1.804367
vt -1.148761 1.065620
vt -1.265620 1.065620
vt -1.265620 1.539704
vt -1.148761 1.539704
vt -1.265620 1.804367
vt -1.148761 1.804367
vt -1.016609 2.900104
vt -1.016933 1.804367
vt -1.148437 2.900104
vt -0.032995 1.103156
vt -1.014285 1.103156
vt 1.631624 1.536941
vt 1.364398 1.536940
vt -1.014285 1.103156
vt -1.148761 1.103156
vt -1.148761 0.933541
vt -1.265620 0.933541
vt -1.918743 1.065127
vt -1.918733 0.933455
vt -3.311173 0.933390
vt -3.311170 1.065075
vt -1.298707 1.065203
vt -1.298691 0.933537
vt -1.918733 0.933455
vt -1.918743 1.065127
vt -1.265620 0.933541
vt -1.298691 0.933537
vt -1.298707 1.065203
vt -1.265635 1.065207
vt 1.069852 0.591605
vt 0.872155 0.591605
vt 1.502460 1.104691
vt 1.631711 1.104690
vt 1.631715 1.540284
vt 2.588807 1.540279
vt 2.588808 1.804365
vt 1.631716 1.804367
vt 1.631711 1.104690
vt 2.588803 1.104681
vt 2.588807 1.540279
vt 1.631715 1.540284
vt 1.631709 0.972899
vt 2.588802 0.972890
vt 2.588803 1.104681
vt 1.631711 1.104690
vt 0.399754 0.277393
vt -0.698977 0.277393
vt -0.698977 3.026830
vt 0.399754 3.026830
vt 0.399754 0.277393
vt 1.596824 0.277393
vt 1.596824 3.026830
vt 0.399754 3.026830
vt 2.588796 0.277393
vt 2.588796 3.026830
vt 1.596824 3.026830
vt 1.596824 0.277393
vt 2.588796 0.277393
vt 3.681948 0.282612
vt 3.681948 2.991395
vt 2.588796 2.991395
vt 1.631715 2.900104
vt 1.631716 1.804367
vt 1.364351 1.804367
vt 1.631700 0.277403
vt 2.588796 0.277393
vt 2.588802 0.972890
vt 1.631709 0.972899
vt -1.958791 3.094427
vt -1.958790 2.770924
vt -1.265233 2.768356
vt -1.265232 3.094429
vt -4.805288 2.768410
vt -4.123730 2.768410
vt -4.123730 3.094433
vt -4.805288 3.094433
vt 0.872152 3.093551
vt 1.069849 3.093551
vt -1.148738 2.900437
vt -1.265233 2.768356
vt -1.265232 3.094429
vt -1.148738 3.094427
vt -1.148738 2.900437
vt 0.872152 2.900438
vt 0.872152 3.094429
vt -1.148738 3.094427
f 1/1/1 2/2/2 3/3/3
f 1/1/1 3/3/3 4/4/4
f 5/5/5 6/6/6 7/7/7
f 5/5/5 7/7/7 8/8/8
f 9/9/9 10/10/10 11/11/11
f 9/9/9 11/11/11 12/12/12
f 13/13/13 14/14/14 15/15/15
f 13/13/13 15/15/15 16/16/16
f 17/17/17 18/18/18 19/19/19
f 17/17/17 19/19/19 20/20/20
f 21/21/21 22/22/22 23/23/23
f 21/21/21 23/23/23 24/24/24
f 25/25/25 26/26/26 27/27/27
f 25/25/25 27/27/27 28/28/28
f 29/29/29 30/30/30 31/31/31
f 29/29/29 31/31/31 32/32/32
f 30/30/30 33/33/33 34/34/34
f 30/30/30 34/34/34 31/31/31
f 35/35/35 36/36/36 37/37/37
f 35/35/35 37/37/37 38/38/38
f 39/39/39 40/40/40 41/41/41
f 39/39/39 41/41/41 42/42/42
f 43/43/43 44/44/44 45/45/45
f 43/43/43 45/45/45 46/46/46
f 47/47/47 48/48/48 49/49/49
f 47/47/47 49/49/49 50/50/50
f 51/51/51 52/52/52 53/53/53
f 51/51/51 53/53/53 54/54/54
f 55/55/55 56/56/56 57/57/57
f 55/55/55 57/57/57 58/58/58
f 59/59/59 60/60/60 61/61/61
f 59/59/59 61/61/61 62/62/62
f 62/62/62 61/61/61 30/30/30
f 62/62/62 30/30/30 29/29/29
f 60/60/60 63/63/63 64/64/64
f 60/60/60 64/64/64 61/61/61
f 61/61/61 64/64/64 33/33/33
f 61/61/61 33/33/33 30/30/30
f 65/65/65 66/66/66 67/67/67
f 65/65/65 67/67/67 68/68/68
f 69/69/69 70/70/70 71/71/71
f 69/69/69 71/71/71 72/72/72
f 73/73/73 74/74/74 66/66/66
f 73/73/73 66/66/66 65/65/65
f 66/66/66 75/75/75 76/76/76
f 66/66/66 76/76/76 77/77/77
f 70/70/70 78/78/78 79/79/79
f 70/70/70 79/79/79 80/80/80
f 81/81/81 82/82/82 83/83/83
f 81/81/81 83/83/83 84/84/84
f 85/85/85 86/86/86 87/87/87
f 85/85/85 87/87/87 88/88/88
f 89/89/89 90/90/90 91/91/91
f 89/89/89 91/91/91 92/92/92
f 93/93/93 94/94/94 95/95/95
f 93/93/93 95/95/95 96/96/96
f 97/97/97 98/98/98 99/99/99
f 97/97/97 99/99/99 100/100/100
f 101/101/101 102/102/102 103/103/103
f 101/101/101 103/103/103 104/104/104
f 105/105/105 106/106/106 36/36/36
f 105/105/105 36/36/36 35/35/35
f 107/107/107 108/108/108 52/52/52
f 107/107/107 52/52/52 51/51/51
f 109/109/109 110/110/110 111/111/111
f 109/109/109 111/111/111 112/112/112
f 24/24/24 23/23/23 113/113/113
f 24/24/24 113/113/113 114/114/114
f 18/18/18 115/115/115 116/116/116
f 18/18/18 116/116/116 117/117/117
f 118/118/118 119/119/119 120/120/120
f 118/118/118 120/120/120 121/121/121
f 122/122/122 123/123/123 124/124/124
f 122/122/122 124/124/124 125/125/125
f 125/125/125 124/124/124 126/126/126
f 125/125/125 126/126/126 127/127/127
f 128/128/128 129/129/129 121/121/121
f 128/128/128 121/121/121 130/130/130
f 75/75/75 29/29/29 32/32/32
f 75/75/75 32/32/32 76/76/76
f 78/78/78 131/131/131 132/132/132
f 78/78/78 132/132/132 79/79/79
f 133/133/133 59/59/59 62/62/62
f 133/133/133 62/62/62 134/134/134
f 134/134/134 62/62/62 29/29/29
f 134/134/134 29/29/29 75/75/75
f 119/119/119 135/135/135 136/136/136
f 119/119/119 136/136/136 120/120/120
f 137/137/137 138/138/138 123/123/123
f 137/137/137 123/123/123 122/122/122
f 139/139/139 140/140/140 141/141/141
f 139/139/139 141/141/141 142/142/142
f 143/143/143 144/144/144 145/145/145
f 143/143/143 145/145/145 146/146/146
f 147/147/147 148/148/148 149/149/149
f 147/147/147 149/149/149 150/150/150
f 151/151/151 152/152/152 106/106/106
f 151/151/151 106/106/106 105/105/105
f 153/153/153 154/154/154 108/108/108
f 153/153/153 108/108/108 107/107/107
f 42/42/42 41/41/41 152/152/152
f 42/42/42 152/152/152 151/151/151
f 50/50/50 49/49/49 154/154/154
f 50/50/50 154/154/154 153/153/153
f 155/155/155 156/156/156 157/157/157
f 155/155/155 157/157/157 158/158/158
f 159/159/159 160/160/160 161/161/161
f 159/159/159 161/161/161 162/162/162
f 163/163/163 164/164/164 165/165/165
f 163/163/163 165/165/165 166/166/166
f 167/167/167 168/168/168 169/169/169
f 167/167/167 169/169/169 170/170/170
f 171/171/171 172/172/172 173/173/173
f 171/171/171 173/173/173 174/174/174
f 175/175/175 176/176/176 177/177/177
f 175/175/175 177/177/177 178/178/178
f 179/179/179 180/180/180 181/181/181
f 179/179/179 181/181/181 182/182/182
f 183/183/183 184/184/184 74/74/74
f 183/183/183 74/74/74 73/73/73
f 184/184/184 133/133/133 134/134/134
f 184/184/184 134/134/134 185/185/185
f 186/186/186 187/187/187 188/188/188
f 186/186/186 188/188/188 189/189/189
f 190/190/190 191/191/191 192/192/192
f 190/190/190 192/192/192 193/193/193
f 194/194/194 195/195/195 196/196/196
f 194/194/194 196/196/196 197/197/197
f 38/38/38 37/37/37 198/198/198
f 38/38/38 198/198/198 199/199/199
f 200/200/200 201/201/201 202/202/202
f 200/200/200 202/202/202 203/203/203
f 204/204/204 205/205/205 206/206/206
f 204/204/204 206/206/206 207/207/207
