v -8.996958 7.338180 -0.307412
v -4.298683 11.509867 -0.293685
v -4.298683 11.783747 -0.293685
v -8.996958 7.612059 -0.307412
v -4.298683 11.509867 -0.293685
v 0.399592 7.338180 -0.293685
v 0.399592 7.612059 -0.293685
v -4.298683 11.783747 -0.293685
v -8.996958 7.612059 -0.307412
v -4.298683 11.783747 -0.293685
v -4.298683 11.783747 -0.220609
v -8.996958 7.612059 -0.234336
v -4.298683 11.783747 -0.293685
v 0.399592 7.612059 -0.293685
v 0.399592 7.612059 -0.220609
v -4.298683 11.783747 -0.220609
v -7.542357 8.629746 -8.233001
v -4.298683 11.509867 -8.242477
v -4.298683 11.783747 -8.242477
v -7.840809 8.638626 -8.232128
v -4.298683 11.509867 -8.242477
v -1.042318 8.625468 -8.254965
v -0.739727 8.630672 -8.255849
v -4.298683 11.783747 -8.242477
v -7.840809 8.638626 -8.232128
v -4.298683 11.783747 -8.242477
v -4.298683 11.783747 -8.315554
v -7.840809 8.638626 -8.305204
v -4.298683 11.783747 -8.242477
v -0.739727 8.630672 -8.255849
v -0.739727 8.654559 -8.328925
v -4.298683 11.783747 -8.315554
v -7.542357 8.629746 -8.143320
v -4.298683 11.509867 -8.143320
v -4.298683 11.509867 -8.242477
v -7.542357 8.629746 -8.233001
v -4.298683 11.509867 -8.143320
v -1.042318 8.625468 -8.143320
v -1.042318 8.625468 -8.254965
v -4.298683 11.509867 -8.242477
v -8.996958 7.338180 -0.406570
v -4.298683 11.509867 -0.392843
v -4.298683 11.509867 -0.293685
v -8.996958 7.338180 -0.307412
v -4.298683 11.509867 -0.392843
v 0.399592 7.338180 -0.392843
v 0.399592 7.338180 -0.293685
v -4.298683 11.509867 -0.293685
v -8.996958 7.612059 -0.234336
v -4.298683 11.783747 -0.220609
v -4.298683 11.915613 -0.220609
v -8.996958 7.743926 -0.234336
v -4.298683 11.783747 -0.220609
v 0.399592 7.612059 -0.220609
v 0.399592 7.743927 -0.220609
v -4.298683 11.915613 -0.220609
v -7.840809 8.638626 -8.305204
v -4.298683 11.783747 -8.315554
v -4.298683 11.915614 -8.315554
v -7.940337 8.641420 -8.304914
v -4.298683 11.783747 -8.315554
v -0.739727 8.654559 -8.328925
v -0.618364 8.650295 -8.329280
v -4.298683 11.915614 -8.315554
vn -0.002900 0.000000 1.000000
vn -0.002900 0.000000 1.000000
vn -0.002900 0.000000 1.000000
vn -0.002900 0.000000 1.000000
vn 0.000000 0.000000 1.000000
vn 0.000000 0.000000 1.000000
vn 0.000000 0.000000 1.000000
vn 0.000000 0.000000 1.000000
vn 0.664000 -0.747800 0.000000
vn 0.664000 -0.747800 0.000000
vn 0.664000 -0.747800 0.000000
vn 0.664000 -0.747800 0.000000
vn -0.664000 -0.747800 0.000000
vn -0.664000 -0.747800 0.000000
vn -0.664000 -0.747800 0.000000
vn -0.664000 -0.747800 0.000000
vn 0.002900 -0.000000 1.000000
vn 0.002900 -0.000000 1.000000
vn 0.002900 -0.000000 1.000000
vn 0.002900 -0.000000 1.000000
vn 0.003400 -0.000500 1.000000
vn 0.003400 -0.000500 1.000000
vn 0.003400 -0.000500 1.000000
vn 0.003400 -0.000500 1.000000
vn -0.664000 0.747800 0.000000
vn -0.664000 0.747800 0.000000
vn -0.664000 0.747800 0.000000
vn -0.664000 0.747800 0.000000
vn 0.657100 0.744000 0.121600
vn 0.657100 0.744000 0.121600
vn 0.657100 0.744000 0.121600
vn 0.657100 0.744000 0.121600
vn -0.664000 0.747800 0.000000
vn -0.664000 0.747800 0.000000
vn -0.664000 0.747800 0.000000
vn -0.664000 0.747800 0.000000
vn 0.663100 0.748600 0.000000
vn 0.663100 0.748600 0.000000
vn 0.663100 0.748600 0.000000
vn 0.663100 0.748600 0.000000
vn 0.664000 -0.747800 0.000000
vn 0.664000 -0.747800 0.000000
vn 0.664000 -0.747800 0.000000
vn 0.664000 -0.747800 0.000000
vn -0.664000 -0.747800 0.000000
vn -0.664000 -0.747800 0.000000
vn -0.664000 -0.747800 0.000000
vn -0.664000 -0.747800 0.000000
vn -0.002900 0.000000 1.000000
vn -0.002900 0.000000 1.000000
vn -0.002900 0.000000 1.000000
vn -0.002900 0.000000 1.000000
vn 0.000000 0.000000 1.000000
vn 0.000000 0.000000 1.000000
vn 0.000000 0.000000 1.000000
vn 0.000000 0.000000 1.000000
vn 0.002900 -0.000000 1.000000
vn 0.002900 -0.000000 1.000000
vn 0.002900 -0.000000 1.000000
vn 0.002900 -0.000000 1.000000
vn 0.003400 -0.000400 1.000000
vn 0.003400 -0.000400 1.000000
vn 0.003400 -0.000400 1.000000
vn 0.003400 -0.000400 1.000000
vt 1.615798 -1.599512
vt 3.020361 -1.603197
vt 3.020551 -1.647907
vt 1.656329 -1.645399
vt 3.020361 -1.603197
vt 4.424788 -1.587595
vt 4.384650 -1.633822
vt 3.020551 -1.647907
vt 1.656329 -1.645399
vt 3.020551 -1.647907
vt 3.020648 -1.662496
vt 1.655220 -1.662554
vt 3.020551 -1.647907
vt 4.384650 -1.633822
vt 4.385973 -1.650971
vt 3.020648 -1.662496
vt 1.607694 -3.505325
vt 3.024360 -3.498540
vt 3.024372 -3.453605
vt 1.651307 -3.459007
vt 3.024360 -3.498540
vt 4.434857 -3.505524
vt 4.394261 -3.459347
vt 3.024372 -3.453605
vt 1.651307 -3.459007
vt 3.024372 -3.453605
vt 3.024371 -3.438875
vt 1.652982 -3.441827
vt 3.024372 -3.453605
vt 4.394261 -3.459347
vt 4.395484 -3.442113
vt 3.024371 -3.438875
vt 1.605000 -3.527759
vt 3.024310 -3.520868
vt 3.024360 -3.498540
vt 1.607694 -3.505325
vt 3.024310 -3.520868
vt 4.434700 -3.527782
vt 4.434857 -3.505524
vt 3.024360 -3.498540
vt 1.615807 -1.577345
vt 3.020218 -1.581034
vt 3.020361 -1.603197
vt 1.615798 -1.599512
vt 3.020218 -1.581034
vt 4.424493 -1.565431
vt 4.424788 -1.587595
vt 3.020361 -1.603197
vt 1.655220 -1.662554
vt 3.020648 -1.662496
vt 3.020731 -1.682361
vt 1.673125 -1.685313
vt 3.020648 -1.662496
vt 4.385973 -1.650971
vt 4.368262 -1.673879
vt 3.020731 -1.682361
vt 1.652982 -3.441827
vt 3.024371 -3.438875
vt 3.024336 -3.418880
vt 1.673779 -3.419056
vt 3.024371 -3.438875
vt 4.395484 -3.442113
vt 4.374771 -3.419342
vt 3.024336 -3.418880
f 1/1/1 2/2/2 3/3/3
f 1/1/1 3/3/3 4/4/4
f 5/5/5 6/6/6 7/7/7
f 5/5/5 7/7/7 8/8/8
f 9/9/9 10/10/10 11/11/11
f 9/9/9 11/11/11 12/12/12
f 13/13/13 14/14/14 15/15/15
f 13/13/13 15/15/15 16/16/16
f 17/17/17 18/18/18 19/19/19
f 17/17/17 19/19/19 20/20/20
f 21/21/21 22/22/22 23/23/23
f 21/21/21 23/23/23 24/24/24
f 25/25/25 26/26/26 27/27/27
f 25/25/25 27/27/27 28/28/28
f 29/29/29 30/30/30 31/31/31
f 29/29/29 31/31/31 32/32/32
f 33/33/33 34/34/34 35/35/35
f 33/33/33 35/35/35 36/36/36
f 37/37/37 38/38/38 39/39/39
f 37/37/37 39/39/39 40/40/40
f 41/41/41 42/42/42 43/43/43
f 41/41/41 43/43/43 44/44/44
f 45/45/45 46/46/46 47/47/47
f 45/45/45 47/47/47 48/48/48
f 49/49/49 50/50/50 51/51/51
f 49/49/49 51/51/51 52/52/52
f 53/53/53 54/54/54 55/55/55
f 53/53/53 55/55/55 56/56/56
f 57/57/57 58/58/58 59/59/59
f 57/57/57 59/59/59 60/60/60
f 61/61/61 62/62/62 63/63/63
f 61/61/61 63/63/63 64/64/64
